<?xml version="1.0" encoding="utf-8" standalone="no"?>
<!DOCTYPE svg PUBLIC "-//W3C//DTD SVG 1.1//EN"
  "http://www.w3.org/Graphics/SVG/1.1/DTD/svg11.dtd">
<!-- Created with matplotlib (https://matplotlib.org/) -->
<svg height="288pt" version="1.1" viewBox="0 0 360 288" width="360pt" xmlns="http://www.w3.org/2000/svg" xmlns:xlink="http://www.w3.org/1999/xlink">
 <defs>
  <style type="text/css">
*{stroke-linecap:butt;stroke-linejoin:round;}
  </style>
 </defs>
 <g id="figure_1">
  <g id="patch_1">
   <path d="M 0 288 
L 360 288 
L 360 0 
L 0 0 
z
" style="fill:#ffffff;"/>
  </g>
  <g id="axes_1">
   <g id="line2d_1">
    <path clip-path="url(#p4de14f2568)" d="M 22.914639 76.93378 
L 35.933991 76.93378 
" style="fill:none;stroke:#808080;stroke-dasharray:0.75,1.2375;stroke-dashoffset:0;stroke-width:0.75;"/>
   </g>
   <g id="line2d_2">
    <path clip-path="url(#p4de14f2568)" d="M 88.011399 18.389188 
L 101.030751 18.389188 
" style="fill:none;stroke:#808080;stroke-dasharray:0.75,1.2375;stroke-dashoffset:0;stroke-width:0.75;"/>
   </g>
   <g id="line2d_3">
    <path clip-path="url(#p4de14f2568)" d="M 35.933991 76.93378 
L 87.751012 76.93378 
L 88.011399 18.389188 
L 88.011399 18.389188 
" style="fill:none;stroke:#ed2f55;stroke-linecap:square;stroke-width:0.75;"/>
   </g>
   <g id="text_1">
    <!-- noease -->
    <defs>
     <path d="M 54.59375 36.796875 
C 54.59375 48.5 46.5 54.59375 36.09375 54.59375 
C 26 54.59375 22 48.59375 20.09375 45.40625 
L 19.90625 45.40625 
L 19.90625 53.203125 
L 6.5 53.203125 
L 6.5 0 
L 20.5 0 
L 20.5 30.5 
C 20.5 38.59375 25.296875 42.796875 31.5 42.796875 
C 40.40625 42.796875 40.59375 36.203125 40.59375 32.296875 
L 40.59375 0 
L 54.59375 0 
z
" id="HelveticaLTStd-Bold-110"/>
     <path d="M 57.796875 26.59375 
C 57.796875 45.796875 44.90625 54.59375 30.59375 54.59375 
C 16.296875 54.59375 3.40625 45.796875 3.40625 26.59375 
C 3.40625 7.40625 16.296875 -1.40625 30.59375 -1.40625 
C 44.90625 -1.40625 57.796875 7.40625 57.796875 26.59375 
z
M 43.40625 26.59375 
C 43.40625 19.796875 41.40625 10.40625 30.59375 10.40625 
C 19.796875 10.40625 17.796875 19.796875 17.796875 26.59375 
C 17.796875 33.40625 19.796875 42.796875 30.59375 42.796875 
C 41.40625 42.796875 43.40625 33.40625 43.40625 26.59375 
z
" id="HelveticaLTStd-Bold-111"/>
     <path d="M 37.796875 15.59375 
C 36.703125 11.796875 32.703125 9.796875 28.796875 9.796875 
C 17.5 9.796875 16.703125 18.796875 16.296875 22.796875 
L 52.796875 22.796875 
L 52.796875 25.296875 
C 52.796875 49.59375 38.296875 54.59375 27.796875 54.59375 
C 4.5 54.59375 2.296875 34.09375 2.296875 27.703125 
C 2.296875 5.796875 13.796875 -1.40625 28.796875 -1.40625 
C 37.90625 -1.40625 48.5 2.796875 52.203125 15.59375 
z
M 16.703125 31.90625 
C 17.5 38.90625 21 43.09375 27.59375 43.09375 
C 32.09375 43.09375 37.59375 40.5 38.40625 31.90625 
z
" id="HelveticaLTStd-Bold-101"/>
     <path d="M 49.59375 39.203125 
C 49.59375 52.296875 35.90625 54.59375 28.40625 54.59375 
C 17.5 54.59375 6.203125 52.296875 4.59375 36 
L 18.09375 36 
C 18.5 39.09375 19.703125 43.40625 26.703125 43.40625 
C 30.296875 43.40625 35.90625 43.09375 35.90625 37.203125 
C 35.90625 34.203125 33.203125 33.296875 31 33 
L 18.40625 31.09375 
C 9.5 29.796875 2.90625 24.5 2.90625 14.09375 
C 2.90625 3.09375 11.09375 -1.40625 19.09375 -1.40625 
C 28.59375 -1.40625 33.09375 3 36.296875 6.296875 
C 36.59375 3.296875 36.796875 2.5 37.59375 0 
L 52.703125 0 
L 52.703125 2.09375 
C 51 2.703125 49.59375 4.09375 49.59375 10.40625 
z
M 35.90625 19.09375 
C 35.90625 12.59375 29.59375 8.59375 23.40625 8.59375 
C 20.703125 8.59375 16.90625 10.09375 16.90625 15 
C 16.90625 20.796875 21.203125 22.09375 26.40625 23 
C 32.203125 23.90625 34.5 24.796875 35.90625 25.90625 
z
" id="HelveticaLTStd-Bold-97"/>
     <path d="M 50.296875 37 
C 49.203125 52 36.796875 54.59375 26.40625 54.59375 
C 9.796875 54.59375 4.90625 44.59375 4.90625 36.796875 
C 4.90625 16.90625 37.90625 23.59375 37.90625 14.703125 
C 37.90625 12.703125 36.203125 9.203125 29 9.203125 
C 20.203125 9.203125 17.40625 12.5 17.40625 17 
L 3 17 
C 3.40625 2.796875 16.5 -1.40625 28.59375 -1.40625 
C 36.90625 -1.40625 51.90625 1.40625 51.90625 16.90625 
C 51.90625 36.5 18.59375 30.40625 18.59375 38.796875 
C 18.59375 41.09375 19.59375 44 27.203125 44 
C 34.796875 44 36 40.40625 36.59375 37 
z
" id="HelveticaLTStd-Bold-115"/>
    </defs>
    <g transform="translate(46.467383 9.461959)scale(0.09 -0.09)">
     <use xlink:href="#HelveticaLTStd-Bold-110"/>
     <use x="61.099991" xlink:href="#HelveticaLTStd-Bold-111"/>
     <use x="122.199982" xlink:href="#HelveticaLTStd-Bold-101"/>
     <use x="177.799973" xlink:href="#HelveticaLTStd-Bold-97"/>
     <use x="233.399963" xlink:href="#HelveticaLTStd-Bold-115"/>
     <use x="288.999954" xlink:href="#HelveticaLTStd-Bold-101"/>
    </g>
   </g>
  </g>
  <g id="axes_2">
   <g id="line2d_4">
    <path clip-path="url(#pa980937040)" d="M 142.880733 76.93378 
L 155.900085 76.93378 
" style="fill:none;stroke:#808080;stroke-dasharray:0.75,1.2375;stroke-dashoffset:0;stroke-width:0.75;"/>
   </g>
   <g id="line2d_5">
    <path clip-path="url(#pa980937040)" d="M 207.977493 18.389188 
L 220.996845 18.389188 
" style="fill:none;stroke:#808080;stroke-dasharray:0.75,1.2375;stroke-dashoffset:0;stroke-width:0.75;"/>
   </g>
   <g id="line2d_6">
    <path clip-path="url(#pa980937040)" d="M 155.900085 76.93378 
L 168.65905 76.93378 
L 168.919437 18.389188 
L 207.977493 18.389188 
L 207.977493 18.389188 
" style="fill:none;stroke:#ed2f55;stroke-linecap:square;stroke-width:0.75;"/>
   </g>
   <g id="line2d_7">
    <path clip-path="url(#pa980937040)" d="M 155.900085 76.93378 
L 181.678402 76.93378 
L 181.938789 18.389188 
L 207.977493 18.389188 
L 207.977493 18.389188 
" style="fill:none;stroke:#4592e6;stroke-linecap:square;stroke-width:0.75;"/>
   </g>
   <g id="line2d_8">
    <path clip-path="url(#pa980937040)" d="M 155.900085 76.93378 
L 194.697754 76.93378 
L 194.958141 18.389188 
L 207.977493 18.389188 
L 207.977493 18.389188 
" style="fill:none;stroke:#ffc400;stroke-linecap:square;stroke-width:0.75;"/>
   </g>
   <g id="text_2">
    <!-- stepease -->
    <defs>
     <path d="M 22.203125 67.59375 
L 8.203125 67.59375 
L 8.203125 53.203125 
L 1 53.203125 
L 1 43.203125 
L 8.203125 43.203125 
L 8.203125 10.90625 
C 8.203125 4 10.40625 -0.59375 22.5 -0.59375 
L 24.296875 -0.59375 
C 26.5 -0.59375 28.703125 -0.5 30.90625 -0.40625 
L 30.90625 10.203125 
C 29.90625 10.09375 28.90625 10 28 10 
C 22.296875 10 22.203125 11.203125 22.203125 14.296875 
L 22.203125 43.203125 
L 30.90625 43.203125 
L 30.90625 53.203125 
L 22.203125 53.203125 
z
" id="HelveticaLTStd-Bold-116"/>
     <path d="M 19.59375 25.40625 
C 19.59375 33.90625 21.90625 42.5 31.5 42.5 
C 40.40625 42.5 43.40625 34.59375 43.40625 26.203125 
C 43.40625 19.90625 40.90625 10.09375 31.90625 10.09375 
C 23 10.09375 19.59375 17.5 19.59375 25.40625 
z
M 19.59375 53.203125 
L 6.203125 53.203125 
L 6.203125 -20.703125 
L 20.203125 -20.703125 
L 20.203125 6.796875 
L 20.40625 6.796875 
C 22.09375 3.90625 25.59375 -1.40625 35.40625 -1.40625 
C 51.203125 -1.40625 57.796875 12.59375 57.796875 27.203125 
C 57.796875 45.59375 47.40625 54.59375 35.703125 54.59375 
C 26.296875 54.59375 22.40625 49.703125 19.796875 45.5 
L 19.59375 45.5 
z
" id="HelveticaLTStd-Bold-112"/>
    </defs>
    <g transform="translate(162.680898 9.461959)scale(0.09 -0.09)">
     <use xlink:href="#HelveticaLTStd-Bold-115"/>
     <use x="55.599991" xlink:href="#HelveticaLTStd-Bold-116"/>
     <use x="88.899979" xlink:href="#HelveticaLTStd-Bold-101"/>
     <use x="144.499969" xlink:href="#HelveticaLTStd-Bold-112"/>
     <use x="205.59996" xlink:href="#HelveticaLTStd-Bold-101"/>
     <use x="261.199951" xlink:href="#HelveticaLTStd-Bold-97"/>
     <use x="316.799942" xlink:href="#HelveticaLTStd-Bold-115"/>
     <use x="372.399933" xlink:href="#HelveticaLTStd-Bold-101"/>
    </g>
   </g>
   <g id="legend_1">
    <g id="line2d_9">
     <path d="M 212.771635 35.816641 
L 217.271635 35.816641 
" style="fill:none;stroke:#ed2f55;stroke-linecap:square;stroke-width:0.75;"/>
    </g>
    <g id="line2d_10"/>
    <g id="text_3">
     <!-- 0.25 -->
     <defs>
      <path d="M 45.203125 34.703125 
Q 45.203125 41.09375 44.5 46 
Q 43.796875 50.90625 42 55.5 
Q 40.203125 60.09375 36.546875 62.59375 
Q 32.90625 65.09375 27.59375 65.09375 
Q 10.296875 65.09375 10.296875 34 
Q 10.296875 19.40625 14.25 11.703125 
Q 18.203125 4 27.796875 4 
Q 33.203125 4 36.84375 6.640625 
Q 40.5 9.296875 42.203125 14.140625 
Q 43.90625 19 44.546875 23.796875 
Q 45.203125 28.59375 45.203125 34.703125 
z
M 27.796875 70.5 
Q 33.796875 70.5 38.25 68.203125 
Q 42.703125 65.90625 45.203125 62.453125 
Q 47.703125 59 49.203125 53.84375 
Q 50.703125 48.703125 51.140625 44.140625 
Q 51.59375 39.59375 51.59375 34 
Q 51.59375 26.40625 50.546875 20.5 
Q 49.5 14.59375 47 9.390625 
Q 44.5 4.203125 39.640625 1.390625 
Q 34.796875 -1.40625 27.796875 -1.40625 
Q 20.796875 -1.40625 15.890625 1.390625 
Q 11 4.203125 8.5 9.453125 
Q 6 14.703125 4.953125 20.75 
Q 3.90625 26.796875 3.90625 34.703125 
Q 3.90625 40.59375 4.40625 45.34375 
Q 4.90625 50.09375 6.453125 54.9375 
Q 8 59.796875 10.59375 63.09375 
Q 13.203125 66.40625 17.546875 68.453125 
Q 21.90625 70.5 27.796875 70.5 
z
" id="HelveticaLTStd-Light-48"/>
      <path d="M 17.5 0 
L 10.203125 0 
L 10.203125 8.796875 
L 17.5 8.796875 
z
" id="HelveticaLTStd-Light-46"/>
      <path d="M 13.703125 47.40625 
L 6.90625 47.40625 
Q 6.90625 57.796875 13.15625 64.140625 
Q 19.40625 70.5 29.796875 70.5 
Q 40.09375 70.5 45.796875 65 
Q 51.5 59.5 51.5 51 
Q 51.5 45.703125 49.390625 41.390625 
Q 47.296875 37.09375 43.59375 34.046875 
Q 39.90625 31 36.25 28.796875 
Q 32.59375 26.59375 27.9375 24.046875 
Q 23.296875 21.5 20.796875 19.59375 
Q 16.59375 16.40625 14.1875 13.15625 
Q 11.796875 9.90625 11.59375 5.40625 
L 50.90625 5.40625 
L 50.90625 0 
L 4.796875 0 
Q 4.90625 5.59375 6.046875 9.59375 
Q 7.203125 13.59375 10.296875 17.203125 
Q 13.59375 21.09375 17.890625 24.390625 
Q 22.203125 27.703125 25.75 29.703125 
Q 29.296875 31.703125 32.890625 34 
Q 36.5 36.296875 38.953125 38.34375 
Q 41.40625 40.40625 42.953125 43.5 
Q 44.5 46.59375 44.5 50.59375 
Q 44.5 57.296875 40.09375 61.1875 
Q 35.703125 65.09375 29 65.09375 
Q 22.203125 65.09375 17.796875 59.84375 
Q 13.40625 54.59375 13.703125 47.40625 
z
" id="HelveticaLTStd-Light-50"/>
      <path d="M 3.5 18.296875 
L 9.90625 18.296875 
Q 10.90625 11.296875 15.546875 7.640625 
Q 20.203125 4 27.296875 4 
Q 35 4 39.59375 9.140625 
Q 44.203125 14.296875 44.203125 22 
Q 44.203125 30 39.390625 34.953125 
Q 34.59375 39.90625 26.703125 39.90625 
Q 17 39.90625 11.40625 32.59375 
L 6.09375 33.296875 
L 11.796875 69.796875 
L 46.796875 69.796875 
L 46.796875 64.40625 
L 17.203125 64.40625 
L 12.796875 40.703125 
Q 16.90625 43.40625 20.203125 44.34375 
Q 23.5 45.296875 28.296875 45.296875 
Q 38.203125 45.296875 44.390625 39 
Q 50.59375 32.703125 50.59375 22 
Q 50.59375 11.296875 44.046875 4.9375 
Q 37.5 -1.40625 28.296875 -1.40625 
Q 5 -1.40625 3.5 18.296875 
z
" id="HelveticaLTStd-Light-53"/>
     </defs>
     <g transform="translate(219.521635 38.966641)scale(0.09 -0.09)">
      <use xlink:href="#HelveticaLTStd-Light-48"/>
      <use x="55.599991" xlink:href="#HelveticaLTStd-Light-46"/>
      <use x="83.399979" xlink:href="#HelveticaLTStd-Light-50"/>
      <use x="138.999969" xlink:href="#HelveticaLTStd-Light-53"/>
     </g>
    </g>
    <g id="line2d_11">
     <path d="M 212.771635 46.833203 
L 217.271635 46.833203 
" style="fill:none;stroke:#4592e6;stroke-linecap:square;stroke-width:0.75;"/>
    </g>
    <g id="line2d_12"/>
    <g id="text_4">
     <!-- 0.5 -->
     <g transform="translate(219.521635 49.983203)scale(0.09 -0.09)">
      <use xlink:href="#HelveticaLTStd-Light-48"/>
      <use x="55.599991" xlink:href="#HelveticaLTStd-Light-46"/>
      <use x="83.399979" xlink:href="#HelveticaLTStd-Light-53"/>
     </g>
    </g>
    <g id="line2d_13">
     <path d="M 212.771635 57.849766 
L 217.271635 57.849766 
" style="fill:none;stroke:#ffc400;stroke-linecap:square;stroke-width:0.75;"/>
    </g>
    <g id="line2d_14"/>
    <g id="text_5">
     <!-- 0.75 -->
     <defs>
      <path d="M 5.90625 63.40625 
L 5.90625 69.796875 
L 50.796875 69.796875 
L 50.796875 63.796875 
Q 37.09375 48.296875 30 30.5 
Q 22.90625 12.703125 22.203125 0 
L 15.203125 0 
Q 16.203125 14.703125 24.296875 32.5 
Q 32.40625 50.296875 43.09375 63.40625 
z
" id="HelveticaLTStd-Light-55"/>
     </defs>
     <g transform="translate(219.521635 60.999766)scale(0.09 -0.09)">
      <use xlink:href="#HelveticaLTStd-Light-48"/>
      <use x="55.599991" xlink:href="#HelveticaLTStd-Light-46"/>
      <use x="83.399979" xlink:href="#HelveticaLTStd-Light-55"/>
      <use x="138.999969" xlink:href="#HelveticaLTStd-Light-53"/>
     </g>
    </g>
   </g>
  </g>
  <g id="axes_3">
   <g id="line2d_15">
    <path clip-path="url(#pff571485c2)" d="M 265.348546 76.93378 
L 278.367898 76.93378 
" style="fill:none;stroke:#808080;stroke-dasharray:0.75,1.2375;stroke-dashoffset:0;stroke-width:0.75;"/>
   </g>
   <g id="line2d_16">
    <path clip-path="url(#pff571485c2)" d="M 330.445306 18.389188 
L 343.464658 18.389188 
" style="fill:none;stroke:#808080;stroke-dasharray:0.75,1.2375;stroke-dashoffset:0;stroke-width:0.75;"/>
   </g>
   <g id="line2d_17">
    <path clip-path="url(#pff571485c2)" d="M 278.367898 76.93378 
L 330.445306 18.389188 
L 330.445306 18.389188 
" style="fill:none;stroke:#ed2f55;stroke-linecap:square;stroke-width:0.75;"/>
   </g>
   <g id="text_6">
    <!-- linear -->
    <defs>
     <path d="M 20.90625 71.796875 
L 6.90625 71.796875 
L 6.90625 0 
L 20.90625 0 
z
" id="HelveticaLTStd-Bold-108"/>
     <path d="M 6.90625 53.203125 
L 6.90625 0 
L 20.90625 0 
L 20.90625 53.203125 
z
M 20.90625 72.5 
L 6.90625 72.5 
L 6.90625 59.5 
L 20.90625 59.5 
z
" id="HelveticaLTStd-Bold-105"/>
     <path d="M 6.40625 0 
L 20.40625 0 
L 20.40625 27.703125 
C 20.40625 33.59375 22.40625 40.40625 33.296875 40.40625 
C 34.59375 40.40625 36.09375 40.40625 37.296875 40.203125 
L 37.296875 54.40625 
C 36.40625 54.5 35.5 54.59375 34.59375 54.59375 
C 26.09375 54.59375 22.90625 49.40625 20 44 
L 19.796875 44 
L 19.796875 53.203125 
L 6.40625 53.203125 
z
" id="HelveticaLTStd-Bold-114"/>
    </defs>
    <g transform="translate(292.401445 9.461959)scale(0.09 -0.09)">
     <use xlink:href="#HelveticaLTStd-Bold-108"/>
     <use x="27.799988" xlink:href="#HelveticaLTStd-Bold-105"/>
     <use x="55.599976" xlink:href="#HelveticaLTStd-Bold-110"/>
     <use x="116.699966" xlink:href="#HelveticaLTStd-Bold-101"/>
     <use x="172.299957" xlink:href="#HelveticaLTStd-Bold-97"/>
     <use x="227.899948" xlink:href="#HelveticaLTStd-Bold-114"/>
    </g>
   </g>
  </g>
  <g id="axes_4">
   <g id="line2d_18">
    <path clip-path="url(#p26b08f683c)" d="M 22.914639 173.594874 
L 35.933991 173.594874 
" style="fill:none;stroke:#808080;stroke-dasharray:0.75,1.2375;stroke-dashoffset:0;stroke-width:0.75;"/>
   </g>
   <g id="line2d_19">
    <path clip-path="url(#p26b08f683c)" d="M 88.011399 115.050282 
L 101.030751 115.050282 
" style="fill:none;stroke:#808080;stroke-dasharray:0.75,1.2375;stroke-dashoffset:0;stroke-width:0.75;"/>
   </g>
   <g id="line2d_20">
    <path clip-path="url(#p26b08f683c)" d="M 35.933991 173.594874 
L 37.496314 173.464963 
L 39.058636 173.076381 
L 40.620958 172.432579 
L 42.18328 171.539271 
L 43.745603 170.404385 
L 45.568312 168.788579 
L 47.391021 166.87727 
L 49.474117 164.360844 
L 51.817601 161.154302 
L 54.421471 157.200608 
L 57.546116 152.046748 
L 62.753856 142.943664 
L 67.961597 133.975558 
L 71.086242 129.027845 
L 73.690112 125.311743 
L 76.033595 122.365105 
L 78.116692 120.112031 
L 79.939401 118.452729 
L 81.76211 117.105886 
L 83.324433 116.212577 
L 84.886755 115.568775 
L 86.449077 115.180194 
L 88.011399 115.050282 
L 88.011399 115.050282 
" style="fill:none;stroke:#ed2f55;stroke-linecap:square;stroke-width:0.75;"/>
   </g>
   <g id="text_7">
    <!-- sineio -->
    <g transform="translate(48.969102 106.123052)scale(0.09 -0.09)">
     <use xlink:href="#HelveticaLTStd-Bold-115"/>
     <use x="55.599991" xlink:href="#HelveticaLTStd-Bold-105"/>
     <use x="83.399979" xlink:href="#HelveticaLTStd-Bold-110"/>
     <use x="144.499969" xlink:href="#HelveticaLTStd-Bold-101"/>
     <use x="200.09996" xlink:href="#HelveticaLTStd-Bold-105"/>
     <use x="227.899948" xlink:href="#HelveticaLTStd-Bold-111"/>
    </g>
   </g>
  </g>
  <g id="axes_5">
   <g id="line2d_21">
    <path clip-path="url(#p0efe395f89)" d="M 142.880733 173.594874 
L 155.900085 173.594874 
" style="fill:none;stroke:#808080;stroke-dasharray:0.75,1.2375;stroke-dashoffset:0;stroke-width:0.75;"/>
   </g>
   <g id="line2d_22">
    <path clip-path="url(#p0efe395f89)" d="M 207.977493 115.050282 
L 220.996845 115.050282 
" style="fill:none;stroke:#808080;stroke-dasharray:0.75,1.2375;stroke-dashoffset:0;stroke-width:0.75;"/>
   </g>
   <g id="line2d_23">
    <path clip-path="url(#p0efe395f89)" d="M 155.900085 173.594874 
L 157.462407 173.464963 
L 159.02473 173.076381 
L 160.587052 172.432579 
L 162.149374 171.539271 
L 163.711696 170.404385 
L 165.534406 168.788579 
L 167.357115 166.87727 
L 169.440211 164.360844 
L 171.783695 161.154302 
L 174.387565 157.200608 
L 177.512209 152.046748 
L 182.71995 142.943664 
L 187.927691 133.975558 
L 191.052335 129.027845 
L 193.656206 125.311743 
L 195.999689 122.365105 
L 198.082786 120.112031 
L 199.905495 118.452729 
L 201.728204 117.105886 
L 203.290526 116.212577 
L 204.852849 115.568775 
L 206.415171 115.180194 
L 207.977493 115.050282 
L 207.977493 115.050282 
" style="fill:none;stroke:#ed2f55;stroke-linecap:square;stroke-width:0.75;"/>
   </g>
   <g id="line2d_24">
    <path clip-path="url(#p0efe395f89)" d="M 155.900085 173.594874 
L 156.681246 173.466903 
L 157.462407 173.091775 
L 158.243568 172.483964 
L 159.285117 171.339299 
L 160.326665 169.850173 
L 161.6286 167.57009 
L 163.190922 164.334013 
L 165.274019 159.412936 
L 168.919437 150.03332 
L 172.564856 140.872856 
L 174.908339 135.559461 
L 176.991435 131.36409 
L 178.814145 128.143968 
L 180.636854 125.355484 
L 182.459563 122.990289 
L 184.282272 121.026257 
L 186.104982 119.431354 
L 187.927691 118.167072 
L 189.7504 117.191357 
L 191.57311 116.461029 
L 193.656206 115.87255 
L 195.999689 115.453591 
L 198.863947 115.185659 
L 202.769752 115.064726 
L 207.977493 115.050282 
L 207.977493 115.050282 
" style="fill:none;stroke:#4592e6;stroke-linecap:square;stroke-width:0.75;"/>
   </g>
   <g id="line2d_25">
    <path clip-path="url(#p0efe395f89)" d="M 155.900085 173.594874 
L 156.420859 173.370872 
L 156.941633 172.728606 
L 157.462407 171.714679 
L 158.243568 169.60185 
L 159.285117 165.928001 
L 160.847439 159.28682 
L 165.013631 140.950527 
L 166.575954 135.229341 
L 168.138276 130.421494 
L 169.440211 127.106768 
L 170.742146 124.37506 
L 172.044082 122.163868 
L 173.346017 120.403263 
L 174.647952 119.02301 
L 175.949887 117.957017 
L 177.251822 117.145801 
L 178.814145 116.436314 
L 180.636854 115.880015 
L 182.71995 115.491412 
L 185.323821 115.235287 
L 189.229626 115.091024 
L 198.343173 115.05048 
L 207.977493 115.050282 
L 207.977493 115.050282 
" style="fill:none;stroke:#ffc400;stroke-linecap:square;stroke-width:0.75;"/>
   </g>
   <g id="text_8">
    <!-- saccadic -->
    <defs>
     <path d="M 38.09375 19.40625 
C 38.09375 16.90625 35.703125 10.09375 28.59375 10.09375 
C 18 10.09375 17.796875 21.59375 17.796875 27.40625 
C 17.796875 34 20.09375 42.796875 28.90625 42.796875 
L 29.59375 42.796875 
C 35.59375 42.796875 37.59375 37.59375 38.203125 34.203125 
L 52.40625 34.203125 
C 51.09375 50.796875 37.296875 54.59375 28.90625 54.59375 
C 10.90625 54.59375 3.40625 42.296875 3.40625 25.09375 
C 3.40625 13.90625 8 -1.40625 28 -1.40625 
C 47.5 -1.40625 51.796875 13.90625 52.296875 19.40625 
z
" id="HelveticaLTStd-Bold-99"/>
     <path d="M 55.09375 71.796875 
L 41.09375 71.796875 
L 41.09375 46.296875 
L 40.90625 46.296875 
C 38.703125 49.703125 34.5 54.59375 25.5 54.59375 
C 13.796875 54.59375 3.40625 45.59375 3.40625 27.203125 
C 3.40625 12.59375 10 -1.40625 25.796875 -1.40625 
C 31.59375 -1.40625 37.796875 0.703125 41.203125 6.703125 
L 41.40625 6.703125 
L 41.40625 0 
L 55.09375 0 
z
M 17.796875 26.203125 
C 17.796875 34.59375 20.796875 42.5 29.703125 42.5 
C 39.296875 42.5 41.703125 33.90625 41.703125 25.40625 
C 41.703125 17.5 38.203125 10.09375 29.296875 10.09375 
C 20.296875 10.09375 17.796875 19.90625 17.796875 26.203125 
z
" id="HelveticaLTStd-Bold-100"/>
    </defs>
    <g transform="translate(162.928398 106.123052)scale(0.09 -0.09)">
     <use xlink:href="#HelveticaLTStd-Bold-115"/>
     <use x="55.599991" xlink:href="#HelveticaLTStd-Bold-97"/>
     <use x="111.199982" xlink:href="#HelveticaLTStd-Bold-99"/>
     <use x="166.799973" xlink:href="#HelveticaLTStd-Bold-99"/>
     <use x="222.399963" xlink:href="#HelveticaLTStd-Bold-97"/>
     <use x="277.999954" xlink:href="#HelveticaLTStd-Bold-100"/>
     <use x="339.099945" xlink:href="#HelveticaLTStd-Bold-105"/>
     <use x="366.899933" xlink:href="#HelveticaLTStd-Bold-99"/>
    </g>
   </g>
   <g id="legend_2">
    <g id="line2d_26">
     <path d="M 219.025932 132.477734 
L 223.525932 132.477734 
" style="fill:none;stroke:#ed2f55;stroke-linecap:square;stroke-width:0.75;"/>
    </g>
    <g id="line2d_27"/>
    <g id="text_9">
     <!-- 1 -->
     <defs>
      <path d="M 30.203125 0 
L 30.203125 52.40625 
L 12 52.40625 
L 12 56.59375 
Q 15.796875 56.796875 18 57.140625 
Q 20.203125 57.5 22.796875 58.34375 
Q 25.40625 59.203125 26.90625 60.59375 
Q 28.40625 62 29.65625 64.453125 
Q 30.90625 66.90625 31.5 70.5 
L 36.59375 70.5 
L 36.59375 0 
z
" id="HelveticaLTStd-Light-49"/>
     </defs>
     <g transform="translate(225.775932 135.627734)scale(0.09 -0.09)">
      <use xlink:href="#HelveticaLTStd-Light-49"/>
     </g>
    </g>
    <g id="line2d_28">
     <path d="M 219.025932 143.494297 
L 223.525932 143.494297 
" style="fill:none;stroke:#4592e6;stroke-linecap:square;stroke-width:0.75;"/>
    </g>
    <g id="line2d_29"/>
    <g id="text_10">
     <!-- 2 -->
     <g transform="translate(225.775932 146.644297)scale(0.09 -0.09)">
      <use xlink:href="#HelveticaLTStd-Light-50"/>
     </g>
    </g>
    <g id="line2d_30">
     <path d="M 219.025932 154.510859 
L 223.525932 154.510859 
" style="fill:none;stroke:#ffc400;stroke-linecap:square;stroke-width:0.75;"/>
    </g>
    <g id="line2d_31"/>
    <g id="text_11">
     <!-- 4 -->
     <defs>
      <path d="M 35.796875 0 
L 35.796875 17.40625 
L 3.59375 17.40625 
L 3.59375 22.90625 
L 36.40625 69.796875 
L 42.203125 69.796875 
L 42.203125 22.796875 
L 52 22.796875 
L 52 17.40625 
L 42.203125 17.40625 
L 42.203125 0 
z
M 35.796875 60.203125 
L 9.90625 22.796875 
L 35.796875 22.796875 
z
" id="HelveticaLTStd-Light-52"/>
     </defs>
     <g transform="translate(225.775932 157.660859)scale(0.09 -0.09)">
      <use xlink:href="#HelveticaLTStd-Light-52"/>
     </g>
    </g>
   </g>
  </g>
  <g id="axes_6">
   <g id="line2d_32">
    <path clip-path="url(#p2d6d5cd879)" d="M 265.348546 173.594874 
L 278.367898 173.594874 
" style="fill:none;stroke:#808080;stroke-dasharray:0.75,1.2375;stroke-dashoffset:0;stroke-width:0.75;"/>
   </g>
   <g id="line2d_33">
    <path clip-path="url(#p2d6d5cd879)" d="M 330.445306 115.050282 
L 343.464658 115.050282 
" style="fill:none;stroke:#808080;stroke-dasharray:0.75,1.2375;stroke-dashoffset:0;stroke-width:0.75;"/>
   </g>
   <g id="line2d_34">
    <path clip-path="url(#p2d6d5cd879)" d="M 278.367898 173.594874 
L 281.232155 167.395415 
L 284.096412 161.721139 
L 286.96067 156.527555 
L 289.824927 151.773943 
L 292.689185 147.423029 
L 295.813829 143.095848 
L 298.938474 139.166984 
L 302.063118 135.599773 
L 305.187763 132.360925 
L 308.572794 129.187734 
L 311.957826 126.329727 
L 315.342857 123.755598 
L 318.988276 121.268654 
L 322.633694 119.046684 
L 326.5395 116.92803 
L 330.445306 115.050282 
L 330.445306 115.050282 
" style="fill:none;stroke:#ed2f55;stroke-linecap:square;stroke-width:0.75;"/>
   </g>
   <g id="line2d_35">
    <path clip-path="url(#p2d6d5cd879)" d="M 278.367898 173.594874 
L 283.575638 169.392926 
L 288.522992 165.122057 
L 293.470346 160.56049 
L 298.4177 155.688438 
L 303.104666 150.767271 
L 307.791633 145.529328 
L 312.4786 139.954218 
L 317.165567 134.020236 
L 321.592146 128.065602 
L 326.018726 121.749594 
L 330.445306 115.050282 
L 330.445306 115.050282 
" style="fill:none;stroke:#4592e6;stroke-linecap:square;stroke-width:0.75;"/>
   </g>
   <g id="line2d_36">
    <path clip-path="url(#p2d6d5cd879)" d="M 278.367898 173.594874 
L 282.53409 172.08114 
L 286.439896 170.414085 
L 290.085314 168.605229 
L 293.470346 166.672705 
L 296.59499 164.641484 
L 299.719635 162.340346 
L 302.583892 159.963305 
L 305.44815 157.298247 
L 308.312407 154.310275 
L 310.916278 151.280886 
L 313.520148 147.919568 
L 316.124018 144.189953 
L 318.727889 140.051685 
L 321.331759 135.45999 
L 323.93563 130.365185 
L 326.279113 125.304263 
L 328.622596 119.7469 
L 330.445306 115.050282 
L 330.445306 115.050282 
" style="fill:none;stroke:#ffc400;stroke-linecap:square;stroke-width:0.75;"/>
   </g>
   <g id="text_12">
    <!-- expin -->
    <defs>
     <path d="M 36 27.09375 
L 53.5 53.203125 
L 37 53.203125 
L 28.203125 37.703125 
L 19.203125 53.203125 
L 2.203125 53.203125 
L 19.59375 27.09375 
L 1.5 0 
L 18.40625 0 
L 27.59375 16 
L 36.796875 0 
L 54.09375 0 
z
" id="HelveticaLTStd-Bold-120"/>
    </defs>
    <g transform="translate(292.653867 106.123052)scale(0.09 -0.09)">
     <use xlink:href="#HelveticaLTStd-Bold-101"/>
     <use x="55.599991" xlink:href="#HelveticaLTStd-Bold-120"/>
     <use x="111.199982" xlink:href="#HelveticaLTStd-Bold-112"/>
     <use x="172.299973" xlink:href="#HelveticaLTStd-Bold-105"/>
     <use x="200.09996" xlink:href="#HelveticaLTStd-Bold-110"/>
    </g>
   </g>
   <g id="legend_3">
    <g id="line2d_37">
     <path d="M 337.741166 132.477734 
L 342.241166 132.477734 
" style="fill:none;stroke:#ed2f55;stroke-linecap:square;stroke-width:0.75;"/>
    </g>
    <g id="line2d_38"/>
    <g id="text_13">
     <!-- 0.2 -->
     <g transform="translate(344.491166 135.627734)scale(0.09 -0.09)">
      <use xlink:href="#HelveticaLTStd-Light-48"/>
      <use x="55.599991" xlink:href="#HelveticaLTStd-Light-46"/>
      <use x="83.399979" xlink:href="#HelveticaLTStd-Light-50"/>
     </g>
    </g>
    <g id="line2d_39">
     <path d="M 337.741166 143.494297 
L 342.241166 143.494297 
" style="fill:none;stroke:#4592e6;stroke-linecap:square;stroke-width:0.75;"/>
    </g>
    <g id="line2d_40"/>
    <g id="text_14">
     <!-- 2.0 -->
     <g transform="translate(344.491166 146.644297)scale(0.09 -0.09)">
      <use xlink:href="#HelveticaLTStd-Light-50"/>
      <use x="55.599991" xlink:href="#HelveticaLTStd-Light-46"/>
      <use x="83.399979" xlink:href="#HelveticaLTStd-Light-48"/>
     </g>
    </g>
    <g id="line2d_41">
     <path d="M 337.741166 154.510859 
L 342.241166 154.510859 
" style="fill:none;stroke:#ffc400;stroke-linecap:square;stroke-width:0.75;"/>
    </g>
    <g id="line2d_42"/>
    <g id="text_15">
     <!-- 8.0 -->
     <defs>
      <path d="M 27.90625 34.5 
Q 20.203125 34.5 15.5 30.703125 
Q 10.796875 26.90625 10.796875 19.40625 
Q 10.796875 12.703125 15.59375 8.34375 
Q 20.40625 4 28.296875 4 
Q 35.40625 4 40.09375 8.390625 
Q 44.796875 12.796875 44.796875 19.796875 
Q 44.796875 26.90625 40.046875 30.703125 
Q 35.296875 34.5 27.90625 34.5 
z
M 27.59375 65.09375 
Q 21.40625 65.09375 17.34375 61.75 
Q 13.296875 58.40625 13.296875 52.40625 
Q 13.296875 46.203125 17.59375 43.046875 
Q 21.90625 39.90625 28.296875 39.90625 
Q 34.5 39.90625 38.203125 43.296875 
Q 41.90625 46.703125 41.90625 53.796875 
Q 41.90625 65.09375 27.59375 65.09375 
z
M 16.703125 37.90625 
Q 11.09375 41.40625 9 44.40625 
Q 6.90625 47.40625 6.90625 53.296875 
Q 6.90625 60.59375 12.796875 65.6875 
Q 18.703125 70.796875 27 70.5 
Q 35.90625 70.5 42.09375 66.140625 
Q 48.296875 61.796875 48.296875 53.296875 
Q 48.296875 42.203125 38.703125 37.5 
Q 44.5 35.40625 47.84375 30.75 
Q 51.203125 26.09375 51.203125 20 
Q 51.203125 9.796875 44.5 4.1875 
Q 37.796875 -1.40625 26.40625 -1.40625 
Q 17.90625 -1.40625 11.15625 4.140625 
Q 4.40625 9.703125 4.40625 19.40625 
Q 4.40625 25.796875 7.59375 30.6875 
Q 10.796875 35.59375 16.703125 37.90625 
z
" id="HelveticaLTStd-Light-56"/>
     </defs>
     <g transform="translate(344.491166 157.660859)scale(0.09 -0.09)">
      <use xlink:href="#HelveticaLTStd-Light-56"/>
      <use x="55.599991" xlink:href="#HelveticaLTStd-Light-46"/>
      <use x="83.399979" xlink:href="#HelveticaLTStd-Light-48"/>
     </g>
    </g>
   </g>
  </g>
  <g id="axes_7">
   <g id="line2d_43">
    <path clip-path="url(#p61f4908389)" d="M 22.914639 270.255968 
L 35.933991 270.255968 
" style="fill:none;stroke:#808080;stroke-dasharray:0.75,1.2375;stroke-dashoffset:0;stroke-width:0.75;"/>
   </g>
   <g id="line2d_44">
    <path clip-path="url(#p61f4908389)" d="M 88.011399 211.711376 
L 101.030751 211.711376 
" style="fill:none;stroke:#808080;stroke-dasharray:0.75,1.2375;stroke-dashoffset:0;stroke-width:0.75;"/>
   </g>
   <g id="line2d_45">
    <path clip-path="url(#p61f4908389)" d="M 35.933991 270.255968 
L 40.100184 268.244793 
L 44.00599 266.109021 
L 47.651408 263.869099 
L 51.296827 261.362061 
L 54.681858 258.767134 
L 58.06689 255.886036 
L 61.191534 252.945325 
L 64.316179 249.706477 
L 67.440823 246.139266 
L 70.565468 242.210402 
L 73.429725 238.259992 
L 76.293983 233.943951 
L 79.15824 229.228438 
L 82.022497 224.076481 
L 84.886755 218.447683 
L 87.751012 212.297912 
L 88.011399 211.711376 
L 88.011399 211.711376 
" style="fill:none;stroke:#ed2f55;stroke-linecap:square;stroke-width:0.75;"/>
   </g>
   <g id="line2d_46">
    <path clip-path="url(#p61f4908389)" d="M 35.933991 270.255968 
L 40.360571 263.556656 
L 44.787151 257.240648 
L 49.474117 250.946547 
L 54.161084 245.033096 
L 58.848051 239.477274 
L 63.535018 234.257453 
L 68.482371 229.089726 
L 73.429725 224.251328 
L 78.377079 219.72127 
L 83.58482 215.264315 
L 88.011399 211.711376 
L 88.011399 211.711376 
" style="fill:none;stroke:#4592e6;stroke-linecap:square;stroke-width:0.75;"/>
   </g>
   <g id="line2d_47">
    <path clip-path="url(#p61f4908389)" d="M 35.933991 270.255968 
L 38.537862 263.648823 
L 41.141732 257.694131 
L 43.745603 252.327463 
L 46.349473 247.49075 
L 48.953343 243.13166 
L 51.557214 239.203028 
L 54.161084 235.662347 
L 56.764955 232.471307 
L 59.629212 229.323893 
L 62.493469 226.516625 
L 65.357727 224.012743 
L 68.482371 221.588814 
L 71.607016 219.449205 
L 74.992047 217.413559 
L 78.377079 215.635274 
L 82.022497 213.970787 
L 85.928303 212.436784 
L 88.011399 211.711376 
L 88.011399 211.711376 
" style="fill:none;stroke:#ffc400;stroke-linecap:square;stroke-width:0.75;"/>
   </g>
   <g id="text_16">
    <!-- expout -->
    <defs>
     <path d="M 54.5 53.203125 
L 40.5 53.203125 
L 40.5 22.5 
C 40.5 13 34.296875 10.40625 29.703125 10.40625 
C 25.40625 10.40625 20.59375 12 20.59375 20.203125 
L 20.59375 53.203125 
L 6.59375 53.203125 
L 6.59375 18.203125 
C 6.59375 4.59375 14.203125 -1.40625 24.703125 -1.40625 
C 32.09375 -1.40625 37.703125 1.796875 40.90625 7.5 
L 41.09375 7.5 
L 41.09375 0 
L 54.5 0 
z
" id="HelveticaLTStd-Bold-117"/>
    </defs>
    <g transform="translate(47.223242 202.784146)scale(0.09 -0.09)">
     <use xlink:href="#HelveticaLTStd-Bold-101"/>
     <use x="55.599991" xlink:href="#HelveticaLTStd-Bold-120"/>
     <use x="111.199982" xlink:href="#HelveticaLTStd-Bold-112"/>
     <use x="172.299973" xlink:href="#HelveticaLTStd-Bold-111"/>
     <use x="233.399963" xlink:href="#HelveticaLTStd-Bold-117"/>
     <use x="294.499954" xlink:href="#HelveticaLTStd-Bold-116"/>
    </g>
   </g>
   <g id="legend_4">
    <g id="line2d_48">
     <path d="M 95.30726 229.138828 
L 99.80726 229.138828 
" style="fill:none;stroke:#ed2f55;stroke-linecap:square;stroke-width:0.75;"/>
    </g>
    <g id="line2d_49"/>
    <g id="text_17">
     <!-- 0.2 -->
     <g transform="translate(102.05726 232.288828)scale(0.09 -0.09)">
      <use xlink:href="#HelveticaLTStd-Light-48"/>
      <use x="55.599991" xlink:href="#HelveticaLTStd-Light-46"/>
      <use x="83.399979" xlink:href="#HelveticaLTStd-Light-50"/>
     </g>
    </g>
    <g id="line2d_50">
     <path d="M 95.30726 240.155391 
L 99.80726 240.155391 
" style="fill:none;stroke:#4592e6;stroke-linecap:square;stroke-width:0.75;"/>
    </g>
    <g id="line2d_51"/>
    <g id="text_18">
     <!-- 2.0 -->
     <g transform="translate(102.05726 243.305391)scale(0.09 -0.09)">
      <use xlink:href="#HelveticaLTStd-Light-50"/>
      <use x="55.599991" xlink:href="#HelveticaLTStd-Light-46"/>
      <use x="83.399979" xlink:href="#HelveticaLTStd-Light-48"/>
     </g>
    </g>
    <g id="line2d_52">
     <path d="M 95.30726 251.171953 
L 99.80726 251.171953 
" style="fill:none;stroke:#ffc400;stroke-linecap:square;stroke-width:0.75;"/>
    </g>
    <g id="line2d_53"/>
    <g id="text_19">
     <!-- 8.0 -->
     <g transform="translate(102.05726 254.321953)scale(0.09 -0.09)">
      <use xlink:href="#HelveticaLTStd-Light-56"/>
      <use x="55.599991" xlink:href="#HelveticaLTStd-Light-46"/>
      <use x="83.399979" xlink:href="#HelveticaLTStd-Light-48"/>
     </g>
    </g>
   </g>
  </g>
  <g id="axes_8">
   <g id="line2d_54">
    <path clip-path="url(#p141a13a4a6)" d="M 142.880733 270.255968 
L 155.900085 270.255968 
" style="fill:none;stroke:#808080;stroke-dasharray:0.75,1.2375;stroke-dashoffset:0;stroke-width:0.75;"/>
   </g>
   <g id="line2d_55">
    <path clip-path="url(#p141a13a4a6)" d="M 207.977493 211.711376 
L 220.996845 211.711376 
" style="fill:none;stroke:#808080;stroke-dasharray:0.75,1.2375;stroke-dashoffset:0;stroke-width:0.75;"/>
   </g>
   <g id="line2d_56">
    <path clip-path="url(#p141a13a4a6)" d="M 155.900085 270.255968 
L 158.243568 270.137415 
L 160.587052 269.781757 
L 162.930535 269.188993 
L 165.274019 268.359123 
L 167.617502 267.292148 
L 169.960985 265.988067 
L 172.304469 264.446881 
L 174.908339 262.456365 
L 177.512209 260.173126 
L 180.11608 257.597163 
L 182.980337 254.42551 
L 185.844595 250.899662 
L 188.708852 247.019619 
L 191.57311 242.785382 
L 194.697754 237.762256 
L 197.822398 232.317609 
L 201.20743 225.943566 
L 204.592462 219.074822 
L 207.977493 211.711376 
L 207.977493 211.711376 
" style="fill:none;stroke:#ed2f55;stroke-linecap:square;stroke-width:0.75;"/>
   </g>
   <g id="line2d_57">
    <path clip-path="url(#p141a13a4a6)" d="M 155.900085 270.255968 
L 162.149374 270.154803 
L 165.534406 269.885285 
L 168.398663 269.446647 
L 171.002533 268.828124 
L 173.346017 268.054962 
L 175.6895 267.043509 
L 177.772596 265.918516 
L 179.855693 264.557471 
L 181.938789 262.937894 
L 184.021885 261.037302 
L 186.104982 258.833215 
L 188.188078 256.303152 
L 190.271174 253.424632 
L 192.354271 250.175173 
L 194.437367 246.532294 
L 196.520463 242.473515 
L 198.863947 237.382265 
L 201.20743 231.704178 
L 203.550913 225.407246 
L 205.894397 218.45946 
L 207.977493 211.711376 
L 207.977493 211.711376 
" style="fill:none;stroke:#4592e6;stroke-linecap:square;stroke-width:0.75;"/>
   </g>
   <g id="line2d_58">
    <path clip-path="url(#p141a13a4a6)" d="M 155.900085 270.255968 
L 174.127178 270.148347 
L 178.293371 269.885886 
L 181.157628 269.493999 
L 183.501111 268.958364 
L 185.584208 268.248096 
L 187.406917 267.385062 
L 188.969239 266.417754 
L 190.531561 265.192866 
L 192.093884 263.658222 
L 193.656206 261.754091 
L 194.958141 259.836288 
L 196.260076 257.570777 
L 197.562011 254.908854 
L 198.863947 251.79687 
L 200.165882 248.175903 
L 201.467817 243.981429 
L 202.769752 239.142971 
L 204.332074 232.378192 
L 205.894397 224.429732 
L 207.456719 215.137397 
L 207.977493 211.711376 
L 207.977493 211.711376 
" style="fill:none;stroke:#ffc400;stroke-linecap:square;stroke-width:0.75;"/>
   </g>
   <g id="text_20">
    <!-- polyin -->
    <defs>
     <path d="M 53.90625 53.203125 
L 39.09375 53.203125 
L 28.203125 14 
L 28 14 
L 16.59375 53.203125 
L 1 53.203125 
L 20.59375 -2.203125 
C 19.296875 -9.5 16.5 -10.203125 11.40625 -10.203125 
C 10.203125 -10.203125 9.296875 -10.09375 8.703125 -10 
L 8.703125 -21.203125 
C 10.703125 -21.296875 13.09375 -21.40625 15 -21.40625 
C 27.203125 -21.40625 29 -18.796875 35.59375 0.90625 
z
" id="HelveticaLTStd-Bold-121"/>
    </defs>
    <g transform="translate(168.687695 202.784146)scale(0.09 -0.09)">
     <use xlink:href="#HelveticaLTStd-Bold-112"/>
     <use x="61.099991" xlink:href="#HelveticaLTStd-Bold-111"/>
     <use x="122.199982" xlink:href="#HelveticaLTStd-Bold-108"/>
     <use x="149.999969" xlink:href="#HelveticaLTStd-Bold-121"/>
     <use x="205.59996" xlink:href="#HelveticaLTStd-Bold-105"/>
     <use x="233.399948" xlink:href="#HelveticaLTStd-Bold-110"/>
    </g>
   </g>
   <g id="legend_5">
    <g id="line2d_59">
     <path d="M 219.025932 229.138828 
L 223.525932 229.138828 
" style="fill:none;stroke:#ed2f55;stroke-linecap:square;stroke-width:0.75;"/>
    </g>
    <g id="line2d_60"/>
    <g id="text_21">
     <!-- 2 -->
     <g transform="translate(225.775932 232.288828)scale(0.09 -0.09)">
      <use xlink:href="#HelveticaLTStd-Light-50"/>
     </g>
    </g>
    <g id="line2d_61">
     <path d="M 219.025932 240.155391 
L 223.525932 240.155391 
" style="fill:none;stroke:#4592e6;stroke-linecap:square;stroke-width:0.75;"/>
    </g>
    <g id="line2d_62"/>
    <g id="text_22">
     <!-- 3 -->
     <defs>
      <path d="M 22.09375 34 
L 22.09375 39.203125 
Q 31.90625 39.09375 37.09375 42.09375 
Q 42.296875 45.09375 42.296875 52.703125 
Q 42.296875 58.90625 38.046875 62 
Q 33.796875 65.09375 27.296875 65.09375 
Q 20.59375 65.09375 16.390625 60.84375 
Q 12.203125 56.59375 12.203125 50 
L 5.796875 50 
Q 5.796875 59.40625 12.59375 65.796875 
Q 17.796875 70.5 28.59375 70.5 
Q 37.40625 70.5 43.046875 66.046875 
Q 48.703125 61.59375 48.703125 53.09375 
Q 48.703125 41.703125 38.703125 37.40625 
Q 51.203125 33.5 51.203125 20 
Q 51.203125 11 45.140625 4.953125 
Q 39.09375 -1.09375 28.5 -1.40625 
Q 16.09375 -1.40625 10.296875 3.4375 
Q 4.5 8.296875 3.40625 20.40625 
L 9.796875 20.40625 
Q 9.796875 12.5 14.546875 8.25 
Q 19.296875 4 27.296875 4 
Q 34.796875 4 39.9375 8.796875 
Q 45.09375 13.59375 44.796875 19.90625 
Q 44.5 28 38.296875 31.34375 
Q 32.09375 34.703125 22.09375 34 
z
" id="HelveticaLTStd-Light-51"/>
     </defs>
     <g transform="translate(225.775932 243.305391)scale(0.09 -0.09)">
      <use xlink:href="#HelveticaLTStd-Light-51"/>
     </g>
    </g>
    <g id="line2d_63">
     <path d="M 219.025932 251.171953 
L 223.525932 251.171953 
" style="fill:none;stroke:#ffc400;stroke-linecap:square;stroke-width:0.75;"/>
    </g>
    <g id="line2d_64"/>
    <g id="text_23">
     <!-- 6 -->
     <defs>
      <path d="M 50.296875 53.203125 
L 43.703125 53.203125 
Q 42.59375 58.796875 39.1875 61.9375 
Q 35.796875 65.09375 30.296875 65.09375 
Q 26.703125 65.09375 23.796875 63.9375 
Q 20.90625 62.796875 19 61.1875 
Q 17.09375 59.59375 15.59375 56.640625 
Q 14.09375 53.703125 13.296875 51.390625 
Q 12.5 49.09375 11.84375 45.25 
Q 11.203125 41.40625 11 39.203125 
Q 10.796875 37 10.5 33.203125 
Q 12.5 35.90625 13.75 37.296875 
Q 15 38.703125 17.296875 40.59375 
Q 19.59375 42.5 22.4375 43.34375 
Q 25.296875 44.203125 29 44.203125 
Q 39.59375 44.203125 45.5 38.140625 
Q 51.40625 32.09375 51.40625 21.5 
Q 51.40625 10.796875 45.453125 4.6875 
Q 39.5 -1.40625 28.796875 -1.40625 
Q 17.40625 -1.40625 10.75 6.59375 
Q 4.09375 14.59375 4.09375 32.296875 
Q 4.09375 37.703125 4.75 42.703125 
Q 5.40625 47.703125 7.203125 52.890625 
Q 9 58.09375 11.75 61.890625 
Q 14.5 65.703125 19.09375 68.09375 
Q 23.703125 70.5 29.703125 70.5 
Q 38.203125 70.5 43.75 66 
Q 49.296875 61.5 50.296875 53.203125 
z
M 28.796875 38.796875 
Q 21.59375 38.796875 17.25 33.75 
Q 12.90625 28.703125 12.90625 21.296875 
Q 12.90625 14.5 16.90625 9.25 
Q 20.90625 4 28.90625 4 
Q 37.09375 4 41.046875 9.203125 
Q 45 14.40625 45 21.703125 
Q 45 38.796875 28.796875 38.796875 
z
" id="HelveticaLTStd-Light-54"/>
     </defs>
     <g transform="translate(225.775932 254.321953)scale(0.09 -0.09)">
      <use xlink:href="#HelveticaLTStd-Light-54"/>
     </g>
    </g>
   </g>
  </g>
  <g id="axes_9">
   <g id="line2d_65">
    <path clip-path="url(#pac8ae3927c)" d="M 265.348546 270.255968 
L 278.367898 270.255968 
" style="fill:none;stroke:#808080;stroke-dasharray:0.75,1.2375;stroke-dashoffset:0;stroke-width:0.75;"/>
   </g>
   <g id="line2d_66">
    <path clip-path="url(#pac8ae3927c)" d="M 330.445306 211.711376 
L 343.464658 211.711376 
" style="fill:none;stroke:#808080;stroke-dasharray:0.75,1.2375;stroke-dashoffset:0;stroke-width:0.75;"/>
   </g>
   <g id="line2d_67">
    <path clip-path="url(#pac8ae3927c)" d="M 278.367898 270.255968 
L 282.013316 262.346594 
L 285.398348 255.515903 
L 288.783379 249.179915 
L 291.908024 243.770394 
L 295.032668 238.782395 
L 298.157313 234.215917 
L 301.02157 230.400273 
L 303.885827 226.938824 
L 306.750085 223.83157 
L 309.353955 221.314153 
L 311.957826 219.089458 
L 314.561696 217.157487 
L 317.165567 215.518238 
L 319.50905 214.293192 
L 321.852533 213.305252 
L 324.196017 212.554418 
L 326.5395 212.040689 
L 328.882983 211.764066 
L 330.445306 211.711376 
L 330.445306 211.711376 
" style="fill:none;stroke:#ed2f55;stroke-linecap:square;stroke-width:0.75;"/>
   </g>
   <g id="line2d_68">
    <path clip-path="url(#pac8ae3927c)" d="M 278.367898 270.255968 
L 280.971768 261.906045 
L 283.315251 255.105659 
L 285.658735 248.949015 
L 288.002218 243.404103 
L 290.345701 238.438914 
L 292.689185 234.021439 
L 295.032668 230.119669 
L 297.115764 227.058489 
L 299.198861 224.357008 
L 301.281957 221.992743 
L 303.365053 219.943214 
L 305.44815 218.185939 
L 307.531246 216.698438 
L 309.614342 215.45823 
L 311.957826 214.330595 
L 314.301309 213.455478 
L 316.905179 212.740356 
L 319.50905 212.253557 
L 322.633694 211.908964 
L 326.279113 211.741351 
L 330.445306 211.711376 
L 330.445306 211.711376 
" style="fill:none;stroke:#4592e6;stroke-linecap:square;stroke-width:0.75;"/>
   </g>
   <g id="line2d_69">
    <path clip-path="url(#pac8ae3927c)" d="M 278.367898 270.255968 
L 279.93022 260.477382 
L 281.492542 252.099521 
L 283.054864 244.95705 
L 284.617187 238.899724 
L 286.179509 233.79144 
L 287.741831 229.509322 
L 289.304153 225.942832 
L 290.866475 222.992915 
L 292.428798 220.571176 
L 293.99112 218.599089 
L 295.553442 217.007225 
L 297.115764 215.73453 
L 298.678087 214.727615 
L 300.500796 213.82727 
L 302.323505 213.162984 
L 304.406602 212.626135 
L 307.010472 212.197516 
L 310.135116 211.917379 
L 314.561696 211.758505 
L 323.675243 211.711658 
L 330.445306 211.711376 
L 330.445306 211.711376 
" style="fill:none;stroke:#ffc400;stroke-linecap:square;stroke-width:0.75;"/>
   </g>
   <g id="text_24">
    <!-- polyout -->
    <g transform="translate(288.158789 202.784146)scale(0.09 -0.09)">
     <use xlink:href="#HelveticaLTStd-Bold-112"/>
     <use x="61.099991" xlink:href="#HelveticaLTStd-Bold-111"/>
     <use x="122.199982" xlink:href="#HelveticaLTStd-Bold-108"/>
     <use x="149.999969" xlink:href="#HelveticaLTStd-Bold-121"/>
     <use x="205.59996" xlink:href="#HelveticaLTStd-Bold-111"/>
     <use x="266.699951" xlink:href="#HelveticaLTStd-Bold-117"/>
     <use x="327.799942" xlink:href="#HelveticaLTStd-Bold-116"/>
    </g>
   </g>
   <g id="legend_6">
    <g id="line2d_70">
     <path d="M 341.493744 229.138828 
L 345.993744 229.138828 
" style="fill:none;stroke:#ed2f55;stroke-linecap:square;stroke-width:0.75;"/>
    </g>
    <g id="line2d_71"/>
    <g id="text_25">
     <!-- 2 -->
     <g transform="translate(348.243744 232.288828)scale(0.09 -0.09)">
      <use xlink:href="#HelveticaLTStd-Light-50"/>
     </g>
    </g>
    <g id="line2d_72">
     <path d="M 341.493744 240.155391 
L 345.993744 240.155391 
" style="fill:none;stroke:#4592e6;stroke-linecap:square;stroke-width:0.75;"/>
    </g>
    <g id="line2d_73"/>
    <g id="text_26">
     <!-- 3 -->
     <g transform="translate(348.243744 243.305391)scale(0.09 -0.09)">
      <use xlink:href="#HelveticaLTStd-Light-51"/>
     </g>
    </g>
    <g id="line2d_74">
     <path d="M 341.493744 251.171953 
L 345.993744 251.171953 
" style="fill:none;stroke:#ffc400;stroke-linecap:square;stroke-width:0.75;"/>
    </g>
    <g id="line2d_75"/>
    <g id="text_27">
     <!-- 6 -->
     <g transform="translate(348.243744 254.321953)scale(0.09 -0.09)">
      <use xlink:href="#HelveticaLTStd-Light-54"/>
     </g>
    </g>
   </g>
  </g>
 </g>
 <defs>
  <clipPath id="p4de14f2568">
   <rect height="64.399051" width="85.927723" x="19.008834" y="15.461959"/>
  </clipPath>
  <clipPath id="pa980937040">
   <rect height="64.399051" width="85.927723" x="138.974928" y="15.461959"/>
  </clipPath>
  <clipPath id="pff571485c2">
   <rect height="64.399051" width="85.927723" x="261.44274" y="15.461959"/>
  </clipPath>
  <clipPath id="p26b08f683c">
   <rect height="64.399051" width="85.927723" x="19.008834" y="112.123052"/>
  </clipPath>
  <clipPath id="p0efe395f89">
   <rect height="64.399051" width="85.927723" x="138.974928" y="112.123052"/>
  </clipPath>
  <clipPath id="p2d6d5cd879">
   <rect height="64.399051" width="85.927723" x="261.44274" y="112.123052"/>
  </clipPath>
  <clipPath id="p61f4908389">
   <rect height="64.399051" width="85.927723" x="19.008834" y="208.784146"/>
  </clipPath>
  <clipPath id="p141a13a4a6">
   <rect height="64.399051" width="85.927723" x="138.974928" y="208.784146"/>
  </clipPath>
  <clipPath id="pac8ae3927c">
   <rect height="64.399051" width="85.927723" x="261.44274" y="208.784146"/>
  </clipPath>
 </defs>
</svg>
