<?xml version="1.0" encoding="utf-8" standalone="no"?>
<!DOCTYPE svg PUBLIC "-//W3C//DTD SVG 1.1//EN"
  "http://www.w3.org/Graphics/SVG/1.1/DTD/svg11.dtd">
<!-- Created with matplotlib (https://matplotlib.org/) -->
<svg height="518.4pt" version="1.1" viewBox="0 0 504 518.4" width="504pt" xmlns="http://www.w3.org/2000/svg" xmlns:xlink="http://www.w3.org/1999/xlink">
 <defs>
  <style type="text/css">
*{stroke-linecap:butt;stroke-linejoin:round;}
  </style>
 </defs>
 <g id="figure_1">
  <g id="patch_1">
   <path d="M 0 518.4 
L 504 518.4 
L 504 0 
L 0 0 
z
" style="fill:#ffffff;"/>
  </g>
  <g id="axes_1">
   <g id="line2d_1">
    <path clip-path="url(#p0ecbe41f43)" d="M 9.730597 119.984145 
L 32.165118 119.984145 
" style="fill:none;stroke:#808080;stroke-dasharray:0.75,1.2375;stroke-dashoffset:0;stroke-width:0.75;"/>
   </g>
   <g id="line2d_2">
    <path clip-path="url(#p0ecbe41f43)" d="M 121.903206 26.551855 
L 144.337728 26.551855 
" style="fill:none;stroke:#808080;stroke-dasharray:0.75,1.2375;stroke-dashoffset:0;stroke-width:0.75;"/>
   </g>
   <g id="line2d_3">
    <path clip-path="url(#p0ecbe41f43)" d="M 32.165118 119.984145 
L 121.454516 119.984145 
L 121.903206 26.551855 
L 121.903206 26.551855 
" style="fill:none;stroke:#ed2f55;stroke-linecap:square;stroke-width:0.75;"/>
   </g>
   <g id="text_1">
    <!-- noease -->
    <defs>
     <path d="M 16.59375 44.25 
Q 18.25 45.953125 20.015625 47.328125 
Q 21.796875 48.703125 23.796875 49.703125 
Q 25.796875 50.703125 28.046875 51.25 
Q 30.296875 51.796875 32.953125 51.796875 
Q 37.15625 51.796875 40.328125 50.390625 
Q 43.5 49 45.671875 46.453125 
Q 47.84375 43.90625 48.9375 40.328125 
Q 50.046875 36.75 50.046875 32.453125 
L 50.046875 0 
L 39.34375 0 
L 39.34375 32.453125 
Q 39.34375 37.59375 36.96875 40.4375 
Q 34.59375 43.296875 29.75 43.296875 
Q 26.15625 43.296875 23.078125 41.640625 
Q 20 40 17.296875 37.15625 
L 17.296875 0 
L 6.546875 0 
L 6.546875 51 
L 13.046875 51 
Q 15.25 51 15.84375 48.953125 
z
" id="Lato-Semibold-110"/>
     <path d="M 28.59375 51.796875 
Q 34.25 51.796875 38.828125 49.9375 
Q 43.40625 48.09375 46.625 44.6875 
Q 49.84375 41.296875 51.59375 36.4375 
Q 53.34375 31.59375 53.34375 25.546875 
Q 53.34375 19.5 51.59375 14.640625 
Q 49.84375 9.796875 46.625 6.375 
Q 43.40625 2.953125 38.828125 1.09375 
Q 34.25 -0.75 28.59375 -0.75 
Q 22.90625 -0.75 18.328125 1.09375 
Q 13.75 2.953125 10.5 6.375 
Q 7.25 9.796875 5.5 14.640625 
Q 3.75 19.5 3.75 25.546875 
Q 3.75 31.59375 5.5 36.4375 
Q 7.25 41.296875 10.5 44.6875 
Q 13.75 48.09375 18.328125 49.9375 
Q 22.90625 51.796875 28.59375 51.796875 
z
M 28.59375 7.65625 
Q 35.5 7.65625 38.875 12.28125 
Q 42.25 16.90625 42.25 25.5 
Q 42.25 34.09375 38.875 38.765625 
Q 35.5 43.453125 28.59375 43.453125 
Q 21.59375 43.453125 18.1875 38.765625 
Q 14.796875 34.09375 14.796875 25.5 
Q 14.796875 16.90625 18.1875 12.28125 
Q 21.59375 7.65625 28.59375 7.65625 
z
" id="Lato-Semibold-111"/>
     <path d="M 40 31.25 
Q 40 33.953125 39.21875 36.265625 
Q 38.453125 38.59375 36.953125 40.3125 
Q 35.453125 42.046875 33.21875 43.015625 
Q 31 44 28.09375 44 
Q 22.25 44 18.890625 40.640625 
Q 15.546875 37.296875 14.65625 31.25 
z
M 14.34375 24.65625 
Q 14.546875 20.296875 15.6875 17.125 
Q 16.84375 13.953125 18.765625 11.84375 
Q 20.703125 9.75 23.375 8.71875 
Q 26.046875 7.703125 29.34375 7.703125 
Q 32.5 7.703125 34.796875 8.421875 
Q 37.09375 9.15625 38.796875 10.03125 
Q 40.5 10.90625 41.703125 11.625 
Q 42.90625 12.34375 43.90625 12.34375 
Q 45.203125 12.34375 45.90625 11.34375 
L 48.953125 7.40625 
Q 47.046875 5.15625 44.640625 3.59375 
Q 42.25 2.046875 39.546875 1.0625 
Q 36.84375 0.09375 34 -0.328125 
Q 31.15625 -0.75 28.453125 -0.75 
Q 23.15625 -0.75 18.625 1.015625 
Q 14.09375 2.796875 10.765625 6.25 
Q 7.453125 9.703125 5.578125 14.796875 
Q 3.703125 19.90625 3.703125 26.546875 
Q 3.703125 31.84375 5.375 36.4375 
Q 7.046875 41.046875 10.171875 44.4375 
Q 13.296875 47.84375 17.765625 49.8125 
Q 22.25 51.796875 27.90625 51.796875 
Q 32.59375 51.796875 36.59375 50.265625 
Q 40.59375 48.75 43.5 45.796875 
Q 46.40625 42.84375 48.03125 38.5625 
Q 49.65625 34.296875 49.65625 28.84375 
Q 49.65625 26.34375 49.09375 25.5 
Q 48.546875 24.65625 47.09375 24.65625 
z
" id="Lato-Semibold-101"/>
     <path d="M 33.796875 22.296875 
Q 28.046875 22.09375 24.09375 21.375 
Q 20.15625 20.65625 17.703125 19.53125 
Q 15.25 18.40625 14.171875 16.84375 
Q 13.09375 15.296875 13.09375 13.453125 
Q 13.09375 11.65625 13.671875 10.375 
Q 14.25 9.09375 15.265625 8.265625 
Q 16.296875 7.453125 17.671875 7.078125 
Q 19.046875 6.703125 20.703125 6.703125 
Q 24.90625 6.703125 27.921875 8.265625 
Q 30.953125 9.84375 33.796875 12.84375 
z
M 5.296875 43.90625 
Q 13.953125 51.953125 25.90625 51.953125 
Q 30.296875 51.953125 33.71875 50.515625 
Q 37.15625 49.09375 39.46875 46.5 
Q 41.796875 43.90625 43.015625 40.328125 
Q 44.25 36.75 44.25 32.40625 
L 44.25 0 
L 39.453125 0 
Q 37.90625 0 37.09375 0.46875 
Q 36.296875 0.953125 35.75 2.40625 
L 34.703125 6.546875 
Q 32.75 4.796875 30.84375 3.421875 
Q 28.953125 2.046875 26.921875 1.09375 
Q 24.90625 0.15625 22.578125 -0.3125 
Q 20.25 -0.796875 17.453125 -0.796875 
Q 14.34375 -0.796875 11.671875 0.046875 
Q 9 0.90625 7.046875 2.625 
Q 5.09375 4.34375 3.96875 6.890625 
Q 2.84375 9.453125 2.84375 12.90625 
Q 2.84375 15.84375 4.421875 18.640625 
Q 6 21.453125 9.625 23.671875 
Q 13.25 25.90625 19.171875 27.34375 
Q 25.09375 28.796875 33.796875 29 
L 33.796875 32.40625 
Q 33.796875 37.90625 31.4375 40.59375 
Q 29.09375 43.296875 24.546875 43.296875 
Q 21.453125 43.296875 19.34375 42.515625 
Q 17.25 41.75 15.703125 40.84375 
Q 14.15625 39.953125 12.953125 39.171875 
Q 11.75 38.40625 10.40625 38.40625 
Q 9.296875 38.40625 8.515625 38.96875 
Q 7.75 39.546875 7.25 40.40625 
z
" id="Lato-Semibold-97"/>
     <path d="M 37 41.75 
Q 36.59375 41.046875 36.09375 40.75 
Q 35.59375 40.453125 34.84375 40.453125 
Q 34 40.453125 33 40.96875 
Q 32 41.5 30.640625 42.140625 
Q 29.296875 42.796875 27.46875 43.3125 
Q 25.65625 43.84375 23.203125 43.84375 
Q 21.203125 43.84375 19.578125 43.375 
Q 17.953125 42.90625 16.828125 42.03125 
Q 15.703125 41.15625 15.09375 39.96875 
Q 14.5 38.796875 14.5 37.453125 
Q 14.5 35.65625 15.59375 34.453125 
Q 16.703125 33.25 18.5 32.375 
Q 20.296875 31.5 22.59375 30.796875 
Q 24.90625 30.09375 27.296875 29.296875 
Q 29.703125 28.5 32 27.453125 
Q 34.296875 26.40625 36.09375 24.875 
Q 37.90625 23.34375 39 21.171875 
Q 40.09375 19 40.09375 15.90625 
Q 40.09375 12.296875 38.796875 9.25 
Q 37.5 6.203125 35 3.953125 
Q 32.5 1.703125 28.765625 0.453125 
Q 25.046875 -0.796875 20.25 -0.796875 
Q 17.59375 -0.796875 15.125 -0.3125 
Q 12.65625 0.15625 10.421875 0.96875 
Q 8.203125 1.796875 6.265625 2.9375 
Q 4.34375 4.09375 2.84375 5.453125 
L 5.34375 9.546875 
Q 5.796875 10.296875 6.46875 10.71875 
Q 7.15625 11.15625 8.15625 11.15625 
Q 9.203125 11.15625 10.21875 10.46875 
Q 11.25 9.796875 12.625 9 
Q 14 8.203125 15.953125 7.515625 
Q 17.90625 6.84375 20.796875 6.84375 
Q 23.203125 6.84375 24.953125 7.421875 
Q 26.703125 8 27.84375 9 
Q 29 10 29.546875 11.265625 
Q 30.09375 12.546875 30.09375 14 
Q 30.09375 15.953125 29 17.203125 
Q 27.90625 18.453125 26.078125 19.34375 
Q 24.25 20.25 21.921875 20.953125 
Q 19.59375 21.65625 17.1875 22.453125 
Q 14.796875 23.25 12.46875 24.296875 
Q 10.15625 25.34375 8.328125 26.96875 
Q 6.5 28.59375 5.390625 30.921875 
Q 4.296875 33.25 4.296875 36.59375 
Q 4.296875 39.65625 5.515625 42.40625 
Q 6.75 45.15625 9.125 47.25 
Q 11.5 49.34375 14.96875 50.5625 
Q 18.453125 51.796875 23 51.796875 
Q 28.15625 51.796875 32.34375 50.140625 
Q 36.546875 48.5 39.40625 45.65625 
z
" id="Lato-Semibold-115"/>
    </defs>
    <g transform="translate(58.237287 11.88024)scale(0.12 -0.12)">
     <use xlink:href="#Lato-Semibold-110"/>
     <use x="56.100006" xlink:href="#Lato-Semibold-111"/>
     <use x="113.200012" xlink:href="#Lato-Semibold-101"/>
     <use x="166.300018" xlink:href="#Lato-Semibold-97"/>
     <use x="216.550018" xlink:href="#Lato-Semibold-115"/>
     <use x="260.200027" xlink:href="#Lato-Semibold-101"/>
    </g>
   </g>
  </g>
  <g id="axes_2">
   <g id="line2d_4">
    <path clip-path="url(#pc410af8dcb)" d="M 177.884317 119.984145 
L 200.318838 119.984145 
" style="fill:none;stroke:#808080;stroke-dasharray:0.75,1.2375;stroke-dashoffset:0;stroke-width:0.75;"/>
   </g>
   <g id="line2d_5">
    <path clip-path="url(#pc410af8dcb)" d="M 290.056926 26.551855 
L 312.491448 26.551855 
" style="fill:none;stroke:#808080;stroke-dasharray:0.75,1.2375;stroke-dashoffset:0;stroke-width:0.75;"/>
   </g>
   <g id="line2d_6">
    <path clip-path="url(#pc410af8dcb)" d="M 200.318838 119.984145 
L 222.30467 119.984145 
L 222.75336 26.551855 
L 290.056926 26.551855 
L 290.056926 26.551855 
" style="fill:none;stroke:#ed2f55;stroke-linecap:square;stroke-width:0.75;"/>
   </g>
   <g id="line2d_7">
    <path clip-path="url(#pc410af8dcb)" d="M 200.318838 119.984145 
L 244.739192 119.984145 
L 245.187882 26.551855 
L 290.056926 26.551855 
L 290.056926 26.551855 
" style="fill:none;stroke:#4592e6;stroke-linecap:square;stroke-width:0.75;"/>
   </g>
   <g id="line2d_8">
    <path clip-path="url(#pc410af8dcb)" d="M 200.318838 119.984145 
L 267.173714 119.984145 
L 267.622404 26.551855 
L 290.056926 26.551855 
L 290.056926 26.551855 
" style="fill:none;stroke:#ffc400;stroke-linecap:square;stroke-width:0.75;"/>
   </g>
   <g id="text_2">
    <!-- stepease -->
    <defs>
     <path d="M 22.90625 -0.796875 
Q 16.546875 -0.796875 13.125 2.765625 
Q 9.703125 6.34375 9.703125 12.84375 
L 9.703125 42.546875 
L 4.09375 42.546875 
Q 3.203125 42.546875 2.546875 43.125 
Q 1.90625 43.703125 1.90625 44.84375 
L 1.90625 49.203125 
L 10.15625 50.40625 
L 12.5 65.15625 
Q 12.75 66 13.34375 66.515625 
Q 13.953125 67.046875 14.953125 67.046875 
L 20.453125 67.046875 
L 20.453125 50.296875 
L 34.59375 50.296875 
L 34.59375 42.546875 
L 20.453125 42.546875 
L 20.453125 13.59375 
Q 20.453125 10.84375 21.796875 9.390625 
Q 23.15625 7.953125 25.40625 7.953125 
Q 26.65625 7.953125 27.546875 8.265625 
Q 28.453125 8.59375 29.09375 8.96875 
Q 29.75 9.34375 30.21875 9.671875 
Q 30.703125 10 31.15625 10 
Q 32.046875 10 32.59375 9 
L 35.796875 3.75 
Q 33.296875 1.546875 29.890625 0.375 
Q 26.5 -0.796875 22.90625 -0.796875 
z
" id="Lato-Semibold-116"/>
     <path d="M 17.296875 12.796875 
Q 19.546875 9.90625 22.21875 8.71875 
Q 24.90625 7.546875 28.15625 7.546875 
Q 34.453125 7.546875 37.96875 12.140625 
Q 41.5 16.75 41.5 25.84375 
Q 41.5 30.546875 40.703125 33.875 
Q 39.90625 37.203125 38.40625 39.296875 
Q 36.90625 41.40625 34.75 42.34375 
Q 32.59375 43.296875 29.90625 43.296875 
Q 25.796875 43.296875 22.8125 41.515625 
Q 19.84375 39.75 17.296875 36.453125 
z
M 16.75 43.59375 
Q 19.953125 47.34375 24.015625 49.640625 
Q 28.09375 51.953125 33.5 51.953125 
Q 37.796875 51.953125 41.296875 50.21875 
Q 44.796875 48.5 47.296875 45.203125 
Q 49.796875 41.90625 51.171875 37.03125 
Q 52.546875 32.15625 52.546875 25.84375 
Q 52.546875 20.203125 51.015625 15.328125 
Q 49.5 10.453125 46.640625 6.875 
Q 43.796875 3.296875 39.75 1.265625 
Q 35.703125 -0.75 30.59375 -0.75 
Q 26.09375 -0.75 22.96875 0.703125 
Q 19.84375 2.15625 17.296875 4.703125 
L 17.296875 -16.953125 
L 6.546875 -16.953125 
L 6.546875 51 
L 13.046875 51 
Q 15.25 51 15.84375 48.953125 
z
" id="Lato-Semibold-112"/>
    </defs>
    <g transform="translate(221.797257 11.88024)scale(0.12 -0.12)">
     <use xlink:href="#Lato-Semibold-115"/>
     <use x="43.650009" xlink:href="#Lato-Semibold-116"/>
     <use x="80.200012" xlink:href="#Lato-Semibold-101"/>
     <use x="133.300018" xlink:href="#Lato-Semibold-112"/>
     <use x="189.750031" xlink:href="#Lato-Semibold-101"/>
     <use x="242.850037" xlink:href="#Lato-Semibold-97"/>
     <use x="293.100037" xlink:href="#Lato-Semibold-115"/>
     <use x="336.750046" xlink:href="#Lato-Semibold-101"/>
    </g>
   </g>
   <g id="legend_1">
    <g id="line2d_9">
     <path d="M 305.597569 60.516852 
L 310.595569 60.516852 
" style="fill:none;stroke:#ed2f55;stroke-linecap:square;stroke-width:0.75;"/>
    </g>
    <g id="line2d_10"/>
    <g id="text_3">
     <!-- 0.25 -->
     <defs>
      <path d="M 55 35.796875 
Q 55 26.40625 52.96875 19.53125 
Q 50.953125 12.65625 47.453125 8.15625 
Q 43.953125 3.65625 39.171875 1.453125 
Q 34.40625 -0.75 28.953125 -0.75 
Q 23.453125 -0.75 18.71875 1.453125 
Q 14 3.65625 10.5 8.15625 
Q 7 12.65625 5 19.53125 
Q 3 26.40625 3 35.796875 
Q 3 45.203125 5 52.09375 
Q 7 59 10.5 63.515625 
Q 14 68.046875 18.71875 70.25 
Q 23.453125 72.453125 28.953125 72.453125 
Q 34.40625 72.453125 39.171875 70.25 
Q 43.953125 68.046875 47.453125 63.515625 
Q 50.953125 59 52.96875 52.09375 
Q 55 45.203125 55 35.796875 
z
M 45.75 35.796875 
Q 45.75 44 44.375 49.578125 
Q 43 55.15625 40.671875 58.546875 
Q 38.34375 61.953125 35.296875 63.421875 
Q 32.25 64.90625 28.953125 64.90625 
Q 25.65625 64.90625 22.59375 63.421875 
Q 19.546875 61.953125 17.25 58.546875 
Q 14.953125 55.15625 13.578125 49.578125 
Q 12.203125 44 12.203125 35.796875 
Q 12.203125 27.59375 13.578125 22.046875 
Q 14.953125 16.5 17.25 13.09375 
Q 19.546875 9.703125 22.59375 8.21875 
Q 25.65625 6.75 28.953125 6.75 
Q 32.25 6.75 35.296875 8.21875 
Q 38.34375 9.703125 40.671875 13.09375 
Q 43 16.5 44.375 22.046875 
Q 45.75 27.59375 45.75 35.796875 
z
" id="Lato-Regular-48"/>
      <path d="M 5.546875 5.5 
Q 5.546875 6.796875 6.015625 7.9375 
Q 6.5 9.09375 7.328125 9.9375 
Q 8.15625 10.796875 9.296875 11.296875 
Q 10.453125 11.796875 11.75 11.796875 
Q 13.046875 11.796875 14.1875 11.296875 
Q 15.34375 10.796875 16.1875 9.9375 
Q 17.046875 9.09375 17.546875 7.9375 
Q 18.046875 6.796875 18.046875 5.5 
Q 18.046875 4.15625 17.546875 3.03125 
Q 17.046875 1.90625 16.1875 1.046875 
Q 15.34375 0.203125 14.1875 -0.265625 
Q 13.046875 -0.75 11.75 -0.75 
Q 10.453125 -0.75 9.296875 -0.265625 
Q 8.15625 0.203125 7.328125 1.046875 
Q 6.5 1.90625 6.015625 3.03125 
Q 5.546875 4.15625 5.546875 5.5 
z
" id="Lato-Regular-46"/>
      <path d="M 49.34375 8.453125 
Q 50.796875 8.453125 51.640625 7.59375 
Q 52.5 6.75 52.5 5.40625 
L 52.5 0 
L 4.703125 0 
L 4.703125 3.046875 
Q 4.703125 4 5.09375 5 
Q 5.5 6 6.34375 6.84375 
L 29.296875 29.90625 
Q 32.15625 32.796875 34.5 35.46875 
Q 36.84375 38.15625 38.5 40.84375 
Q 40.15625 43.546875 41.046875 46.3125 
Q 41.953125 49.09375 41.953125 52.25 
Q 41.953125 55.40625 40.953125 57.78125 
Q 39.953125 60.15625 38.21875 61.703125 
Q 36.5 63.25 34.140625 64.015625 
Q 31.796875 64.796875 29.09375 64.796875 
Q 26.34375 64.796875 24.046875 64 
Q 21.75 63.203125 19.96875 61.765625 
Q 18.203125 60.34375 17 58.390625 
Q 15.796875 56.453125 15.296875 54.09375 
Q 14.703125 52.34375 13.671875 51.765625 
Q 12.65625 51.203125 10.796875 51.453125 
L 6.15625 52.25 
Q 6.84375 57.15625 8.875 60.921875 
Q 10.90625 64.703125 13.96875 67.25 
Q 17.046875 69.796875 21 71.125 
Q 24.953125 72.453125 29.546875 72.453125 
Q 34.09375 72.453125 38.046875 71.09375 
Q 42 69.75 44.890625 67.171875 
Q 47.796875 64.59375 49.4375 60.890625 
Q 51.09375 57.203125 51.09375 52.5 
Q 51.09375 48.5 49.890625 45.078125 
Q 48.703125 41.65625 46.640625 38.546875 
Q 44.59375 35.453125 41.921875 32.5 
Q 39.25 29.546875 36.25 26.546875 
L 17.34375 7.25 
Q 19.34375 7.796875 21.390625 8.125 
Q 23.453125 8.453125 25.34375 8.453125 
z
" id="Lato-Regular-50"/>
      <path d="M 18.09375 44.59375 
Q 23.703125 45.796875 28.40625 45.796875 
Q 34 45.796875 38.296875 44.140625 
Q 42.59375 42.5 45.46875 39.59375 
Q 48.34375 36.703125 49.8125 32.75 
Q 51.296875 28.796875 51.296875 24.15625 
Q 51.296875 18.453125 49.3125 13.84375 
Q 47.34375 9.25 43.875 5.96875 
Q 40.40625 2.703125 35.703125 0.953125 
Q 31 -0.796875 25.546875 -0.796875 
Q 22.40625 -0.796875 19.5 -0.171875 
Q 16.59375 0.453125 14.0625 1.5 
Q 11.546875 2.546875 9.390625 3.890625 
Q 7.25 5.25 5.59375 6.75 
L 8.34375 10.546875 
Q 9.25 11.84375 10.703125 11.84375 
Q 11.703125 11.84375 12.953125 11.0625 
Q 14.203125 10.296875 16 9.34375 
Q 17.796875 8.40625 20.21875 7.625 
Q 22.65625 6.84375 26 6.84375 
Q 29.75 6.84375 32.75 8.046875 
Q 35.75 9.25 37.890625 11.46875 
Q 40.046875 13.703125 41.1875 16.796875 
Q 42.34375 19.90625 42.34375 23.75 
Q 42.34375 27.09375 41.375 29.796875 
Q 40.40625 32.5 38.421875 34.390625 
Q 36.453125 36.296875 33.5 37.34375 
Q 30.546875 38.40625 26.59375 38.40625 
Q 23.90625 38.40625 20.96875 37.953125 
Q 18.046875 37.5 15 36.5 
L 9.40625 38.15625 
L 15.15625 71.65625 
L 49.09375 71.65625 
L 49.09375 67.75 
Q 49.09375 65.84375 47.921875 64.625 
Q 46.75 63.40625 43.90625 63.40625 
L 21.40625 63.40625 
z
" id="Lato-Regular-53"/>
     </defs>
     <g transform="translate(313.094569 64.015452)scale(0.09996 -0.09996)">
      <use xlink:href="#Lato-Regular-48"/>
      <use x="58" xlink:href="#Lato-Regular-46"/>
      <use x="81.600006" xlink:href="#Lato-Regular-50"/>
      <use x="139.600006" xlink:href="#Lato-Regular-53"/>
     </g>
    </g>
    <g id="line2d_11">
     <path d="M 305.597569 72.59327 
L 310.595569 72.59327 
" style="fill:none;stroke:#4592e6;stroke-linecap:square;stroke-width:0.75;"/>
    </g>
    <g id="line2d_12"/>
    <g id="text_4">
     <!-- 0.5 -->
     <g transform="translate(313.094569 76.09187)scale(0.09996 -0.09996)">
      <use xlink:href="#Lato-Regular-48"/>
      <use x="58" xlink:href="#Lato-Regular-46"/>
      <use x="81.600006" xlink:href="#Lato-Regular-53"/>
     </g>
    </g>
    <g id="line2d_13">
     <path d="M 305.597569 84.669687 
L 310.595569 84.669687 
" style="fill:none;stroke:#ffc400;stroke-linecap:square;stroke-width:0.75;"/>
    </g>
    <g id="line2d_14"/>
    <g id="text_5">
     <!-- 0.75 -->
     <defs>
      <path d="M 54.046875 71.65625 
L 54.046875 67.65625 
Q 54.046875 65.953125 53.671875 64.84375 
Q 53.296875 63.75 52.953125 63 
L 23.25 3.15625 
Q 22.59375 1.84375 21.4375 0.921875 
Q 20.296875 0 18.40625 0 
L 12 0 
L 42.09375 59.09375 
Q 42.75 60.34375 43.453125 61.390625 
Q 44.15625 62.453125 44.953125 63.40625 
L 7.546875 63.40625 
Q 6.703125 63.40625 6.046875 64.078125 
Q 5.40625 64.75 5.40625 65.59375 
L 5.40625 71.65625 
z
" id="Lato-Regular-55"/>
     </defs>
     <g transform="translate(313.094569 88.168287)scale(0.09996 -0.09996)">
      <use xlink:href="#Lato-Regular-48"/>
      <use x="58" xlink:href="#Lato-Regular-46"/>
      <use x="81.600006" xlink:href="#Lato-Regular-55"/>
      <use x="139.600006" xlink:href="#Lato-Regular-53"/>
     </g>
    </g>
   </g>
  </g>
  <g id="axes_3">
   <g id="line2d_15">
    <path clip-path="url(#pe4cd5ecf99)" d="M 348.936877 119.984145 
L 371.371398 119.984145 
" style="fill:none;stroke:#808080;stroke-dasharray:0.75,1.2375;stroke-dashoffset:0;stroke-width:0.75;"/>
   </g>
   <g id="line2d_16">
    <path clip-path="url(#pe4cd5ecf99)" d="M 461.109486 26.551855 
L 483.544008 26.551855 
" style="fill:none;stroke:#808080;stroke-dasharray:0.75,1.2375;stroke-dashoffset:0;stroke-width:0.75;"/>
   </g>
   <g id="line2d_17">
    <path clip-path="url(#pe4cd5ecf99)" d="M 371.371398 119.984145 
L 461.109486 26.551855 
L 461.109486 26.551855 
" style="fill:none;stroke:#ed2f55;stroke-linecap:square;stroke-width:0.75;"/>
   </g>
   <g id="text_6">
    <!-- linear -->
    <defs>
     <path d="M 17.5 74 
L 17.5 0 
L 6.75 0 
L 6.75 74 
z
" id="Lato-Semibold-108"/>
     <path d="M 17.75 51 
L 17.75 0 
L 7 0 
L 7 51 
z
M 19.546875 66.40625 
Q 19.546875 64.953125 18.96875 63.640625 
Q 18.40625 62.34375 17.40625 61.375 
Q 16.40625 60.40625 15.078125 59.828125 
Q 13.75 59.25 12.25 59.25 
Q 10.796875 59.25 9.515625 59.828125 
Q 8.25 60.40625 7.296875 61.375 
Q 6.34375 62.34375 5.765625 63.640625 
Q 5.203125 64.953125 5.203125 66.40625 
Q 5.203125 67.90625 5.765625 69.203125 
Q 6.34375 70.5 7.296875 71.46875 
Q 8.25 72.453125 9.515625 73.015625 
Q 10.796875 73.59375 12.25 73.59375 
Q 13.75 73.59375 15.078125 73.015625 
Q 16.40625 72.453125 17.40625 71.46875 
Q 18.40625 70.5 18.96875 69.203125 
Q 19.546875 67.90625 19.546875 66.40625 
z
" id="Lato-Semibold-105"/>
     <path d="M 16.703125 41.546875 
Q 19.09375 46.40625 22.5 49.171875 
Q 25.90625 51.953125 30.65625 51.953125 
Q 32.296875 51.953125 33.75 51.578125 
Q 35.203125 51.203125 36.34375 50.453125 
L 35.59375 42.34375 
Q 35.40625 41.5 34.96875 41.171875 
Q 34.546875 40.84375 33.84375 40.84375 
Q 33.09375 40.84375 31.6875 41.125 
Q 30.296875 41.40625 28.75 41.40625 
Q 26.5 41.40625 24.765625 40.75 
Q 23.046875 40.09375 21.671875 38.84375 
Q 20.296875 37.59375 19.25 35.796875 
Q 18.203125 34 17.296875 31.703125 
L 17.296875 0 
L 6.546875 0 
L 6.546875 51 
L 12.796875 51 
Q 14.5 51 15.140625 50.375 
Q 15.796875 49.75 16.046875 48.203125 
z
" id="Lato-Semibold-114"/>
    </defs>
    <g transform="translate(401.519817 11.88024)scale(0.12 -0.12)">
     <use xlink:href="#Lato-Semibold-108"/>
     <use x="24.25" xlink:href="#Lato-Semibold-105"/>
     <use x="49" xlink:href="#Lato-Semibold-110"/>
     <use x="105.100006" xlink:href="#Lato-Semibold-101"/>
     <use x="158.200012" xlink:href="#Lato-Semibold-97"/>
     <use x="208.450012" xlink:href="#Lato-Semibold-114"/>
    </g>
   </g>
  </g>
  <g id="axes_4">
   <g id="line2d_18">
    <path clip-path="url(#p6afeeb3b97)" d="M 9.730597 250.232145 
L 32.165118 250.232145 
" style="fill:none;stroke:#808080;stroke-dasharray:0.75,1.2375;stroke-dashoffset:0;stroke-width:0.75;"/>
   </g>
   <g id="line2d_19">
    <path clip-path="url(#p6afeeb3b97)" d="M 121.903206 156.799855 
L 144.337728 156.799855 
" style="fill:none;stroke:#808080;stroke-dasharray:0.75,1.2375;stroke-dashoffset:0;stroke-width:0.75;"/>
   </g>
   <g id="line2d_20">
    <path clip-path="url(#p6afeeb3b97)" d="M 32.165118 250.232145 
L 33.95988 250.139962 
L 35.754642 249.863775 
L 37.549404 249.404674 
L 39.792856 248.576405 
L 42.036308 247.470323 
L 44.27976 246.093248 
L 46.523212 244.45367 
L 48.766665 242.561698 
L 51.458807 239.9747 
L 54.15095 237.064093 
L 57.291783 233.293992 
L 60.432616 229.16423 
L 64.02214 224.068262 
L 68.060353 217.952083 
L 73.444639 209.371086 
L 86.905352 187.69147 
L 91.392256 181.010325 
L 94.98178 176.056939 
L 98.122613 172.07545 
L 101.263446 168.473702 
L 103.955588 165.721844 
L 106.647731 163.30545 
L 108.891183 161.563613 
L 111.134635 160.080426 
L 113.378088 158.865034 
L 115.62154 157.924931 
L 117.864992 157.265911 
L 119.659754 156.943865 
L 121.454516 156.805618 
L 121.903206 156.799855 
L 121.903206 156.799855 
" style="fill:none;stroke:#ed2f55;stroke-linecap:square;stroke-width:0.75;"/>
   </g>
   <g id="text_7">
    <!-- sineio -->
    <g transform="translate(61.467912 142.12824)scale(0.12 -0.12)">
     <use xlink:href="#Lato-Semibold-115"/>
     <use x="43.650009" xlink:href="#Lato-Semibold-105"/>
     <use x="68.400009" xlink:href="#Lato-Semibold-110"/>
     <use x="124.500015" xlink:href="#Lato-Semibold-101"/>
     <use x="177.600021" xlink:href="#Lato-Semibold-105"/>
     <use x="202.350021" xlink:href="#Lato-Semibold-111"/>
    </g>
   </g>
  </g>
  <g id="axes_5">
   <g id="line2d_21">
    <path clip-path="url(#pe91f72f490)" d="M 177.884317 250.232145 
L 200.318838 250.232145 
" style="fill:none;stroke:#808080;stroke-dasharray:0.75,1.2375;stroke-dashoffset:0;stroke-width:0.75;"/>
   </g>
   <g id="line2d_22">
    <path clip-path="url(#pe91f72f490)" d="M 290.056926 156.799855 
L 312.491448 156.799855 
" style="fill:none;stroke:#808080;stroke-dasharray:0.75,1.2375;stroke-dashoffset:0;stroke-width:0.75;"/>
   </g>
   <g id="line2d_23">
    <path clip-path="url(#pe91f72f490)" d="M 200.318838 250.232145 
L 202.1136 250.139962 
L 203.908362 249.863775 
L 205.703124 249.404674 
L 207.946576 248.576405 
L 210.190028 247.470323 
L 212.43348 246.093248 
L 214.676932 244.45367 
L 216.920385 242.561698 
L 219.612527 239.9747 
L 222.30467 237.064093 
L 225.445503 233.293992 
L 228.586336 229.16423 
L 232.17586 224.068262 
L 236.214073 217.952083 
L 241.598359 209.371086 
L 255.059072 187.69147 
L 259.545976 181.010325 
L 263.1355 176.056939 
L 266.276333 172.07545 
L 269.417166 168.473702 
L 272.109308 165.721844 
L 274.801451 163.30545 
L 277.044903 161.563613 
L 279.288355 160.080426 
L 281.531808 158.865034 
L 283.77526 157.924931 
L 286.018712 157.265911 
L 287.813474 156.943865 
L 289.608236 156.805618 
L 290.056926 156.799855 
L 290.056926 156.799855 
" style="fill:none;stroke:#ed2f55;stroke-linecap:square;stroke-width:0.75;"/>
   </g>
   <g id="line2d_24">
    <path clip-path="url(#pe91f72f490)" d="M 200.318838 250.232145 
L 201.216219 250.140881 
L 202.1136 249.871096 
L 203.010981 249.429241 
L 204.357052 248.459226 
L 205.703124 247.143289 
L 207.049195 245.50866 
L 208.843957 242.882888 
L 210.638719 239.811256 
L 212.882171 235.452583 
L 215.574313 229.640689 
L 219.163837 221.271391 
L 228.137646 200.011657 
L 231.278479 193.185589 
L 233.970621 187.777805 
L 236.662764 182.835332 
L 239.354907 178.388277 
L 241.598359 175.069251 
L 243.841811 172.099881 
L 246.085263 169.471444 
L 248.328715 167.169978 
L 250.572167 165.177423 
L 252.81562 163.472658 
L 255.059072 162.032435 
L 257.302524 160.832213 
L 259.994667 159.673364 
L 262.686809 158.780665 
L 265.378952 158.112126 
L 268.519785 157.562629 
L 272.109308 157.168225 
L 276.596213 156.916514 
L 282.877879 156.809297 
L 290.056926 156.799855 
L 290.056926 156.799855 
" style="fill:none;stroke:#4592e6;stroke-linecap:square;stroke-width:0.75;"/>
   </g>
   <g id="line2d_25">
    <path clip-path="url(#pe91f72f490)" d="M 200.318838 250.232145 
L 200.767529 250.141334 
L 201.216219 249.874657 
L 201.66491 249.441025 
L 202.562291 248.109963 
L 203.459672 246.22391 
L 204.357052 243.859612 
L 205.703124 239.581374 
L 207.497885 232.884194 
L 210.190028 221.721432 
L 214.228242 204.958701 
L 216.471694 196.515707 
L 218.715146 189.003951 
L 220.509908 183.724936 
L 222.30467 179.097935 
L 224.099432 175.097554 
L 225.894193 171.681423 
L 227.688955 168.797156 
L 229.483717 166.387648 
L 231.278479 164.394927 
L 233.07324 162.762834 
L 234.868002 161.43876 
L 236.662764 160.374675 
L 238.906216 159.34523 
L 241.149668 158.582754 
L 243.841811 157.93598 
L 246.982644 157.447981 
L 250.572167 157.123341 
L 255.507762 156.911092 
L 264.032881 156.811386 
L 290.056926 156.799855 
L 290.056926 156.799855 
" style="fill:none;stroke:#ffc400;stroke-linecap:square;stroke-width:0.75;"/>
   </g>
   <g id="text_8">
    <!-- saccadic -->
    <defs>
     <path d="M 42.59375 41 
Q 42.09375 40.34375 41.640625 40 
Q 41.203125 39.65625 40.34375 39.65625 
Q 39.5 39.65625 38.578125 40.25 
Q 37.65625 40.84375 36.375 41.5625 
Q 35.09375 42.296875 33.296875 42.890625 
Q 31.5 43.5 28.796875 43.5 
Q 25.296875 43.5 22.671875 42.25 
Q 20.046875 41 18.265625 38.671875 
Q 16.5 36.34375 15.625 33.015625 
Q 14.75 29.703125 14.75 25.546875 
Q 14.75 21.25 15.703125 17.890625 
Q 16.65625 14.546875 18.421875 12.25 
Q 20.203125 9.953125 22.71875 8.75 
Q 25.25 7.546875 28.40625 7.546875 
Q 31.5 7.546875 33.453125 8.296875 
Q 35.40625 9.046875 36.703125 9.9375 
Q 38 10.84375 38.921875 11.59375 
Q 39.84375 12.34375 40.90625 12.34375 
Q 42.203125 12.34375 42.90625 11.34375 
L 45.953125 7.40625 
Q 44.09375 5.15625 41.84375 3.59375 
Q 39.59375 2.046875 37.09375 1.0625 
Q 34.59375 0.09375 31.890625 -0.328125 
Q 29.203125 -0.75 26.453125 -0.75 
Q 21.703125 -0.75 17.578125 1.015625 
Q 13.453125 2.796875 10.375 6.171875 
Q 7.296875 9.546875 5.515625 14.421875 
Q 3.75 19.296875 3.75 25.546875 
Q 3.75 31.203125 5.34375 36.015625 
Q 6.953125 40.84375 10.015625 44.34375 
Q 13.09375 47.84375 17.640625 49.8125 
Q 22.203125 51.796875 28.15625 51.796875 
Q 33.703125 51.796875 37.921875 50 
Q 42.15625 48.203125 45.453125 44.90625 
z
" id="Lato-Semibold-99"/>
     <path d="M 39.09375 38.453125 
Q 36.84375 41.34375 34.140625 42.5 
Q 31.453125 43.65625 28.296875 43.65625 
Q 22 43.65625 18.453125 39.03125 
Q 14.90625 34.40625 14.90625 25.34375 
Q 14.90625 20.65625 15.703125 17.328125 
Q 16.5 14 18 11.890625 
Q 19.5 9.796875 21.640625 8.84375 
Q 23.796875 7.90625 26.5 7.90625 
Q 30.59375 7.90625 33.5625 9.671875 
Q 36.546875 11.453125 39.09375 14.703125 
z
M 49.84375 74 
L 49.84375 0 
L 43.34375 0 
Q 41.203125 0 40.59375 2.046875 
L 39.65625 7.59375 
Q 36.453125 3.84375 32.375 1.546875 
Q 28.296875 -0.75 22.90625 -0.75 
Q 18.59375 -0.75 15.09375 0.96875 
Q 11.59375 2.703125 9.09375 6 
Q 6.59375 9.296875 5.21875 14.171875 
Q 3.84375 19.046875 3.84375 25.34375 
Q 3.84375 31.046875 5.375 35.890625 
Q 6.90625 40.75 9.75 44.328125 
Q 12.59375 47.90625 16.671875 49.921875 
Q 20.75 51.953125 25.796875 51.953125 
Q 30.296875 51.953125 33.4375 50.515625 
Q 36.59375 49.09375 39.09375 46.546875 
L 39.09375 74 
z
" id="Lato-Semibold-100"/>
    </defs>
    <g transform="translate(223.029132 142.12824)scale(0.12 -0.12)">
     <use xlink:href="#Lato-Semibold-115"/>
     <use x="43.650009" xlink:href="#Lato-Semibold-97"/>
     <use x="93.900009" xlink:href="#Lato-Semibold-99"/>
     <use x="141.900009" xlink:href="#Lato-Semibold-99"/>
     <use x="189.900009" xlink:href="#Lato-Semibold-97"/>
     <use x="240.150009" xlink:href="#Lato-Semibold-100"/>
     <use x="296.550018" xlink:href="#Lato-Semibold-105"/>
     <use x="321.300018" xlink:href="#Lato-Semibold-99"/>
    </g>
   </g>
   <g id="legend_2">
    <g id="line2d_26">
     <path d="M 312.574464 190.764852 
L 317.572464 190.764852 
" style="fill:none;stroke:#ed2f55;stroke-linecap:square;stroke-width:0.75;"/>
    </g>
    <g id="line2d_27"/>
    <g id="text_9">
     <!-- 1 -->
     <defs>
      <path d="M 50.90625 6.796875 
L 50.90625 0 
L 12.5 0 
L 12.5 6.796875 
L 27.84375 6.796875 
L 27.84375 55.65625 
Q 27.84375 57.84375 28 60.09375 
L 15.25 49.15625 
Q 14.59375 48.59375 13.9375 48.46875 
Q 13.296875 48.34375 12.75 48.4375 
Q 12.203125 48.546875 11.71875 48.84375 
Q 11.25 49.15625 11 49.5 
L 8.203125 53.34375 
L 29.546875 71.796875 
L 36.796875 71.796875 
L 36.796875 6.796875 
z
" id="Lato-Regular-49"/>
     </defs>
     <g transform="translate(320.071464 194.263452)scale(0.09996 -0.09996)">
      <use xlink:href="#Lato-Regular-49"/>
     </g>
    </g>
    <g id="line2d_28">
     <path d="M 312.574464 202.84127 
L 317.572464 202.84127 
" style="fill:none;stroke:#4592e6;stroke-linecap:square;stroke-width:0.75;"/>
    </g>
    <g id="line2d_29"/>
    <g id="text_10">
     <!-- 2 -->
     <g transform="translate(320.071464 206.33987)scale(0.09996 -0.09996)">
      <use xlink:href="#Lato-Regular-50"/>
     </g>
    </g>
    <g id="line2d_30">
     <path d="M 312.574464 214.917687 
L 317.572464 214.917687 
" style="fill:none;stroke:#ffc400;stroke-linecap:square;stroke-width:0.75;"/>
    </g>
    <g id="line2d_31"/>
    <g id="text_11">
     <!-- 4 -->
     <defs>
      <path d="M 36.5 25.84375 
L 36.5 55.40625 
Q 36.5 56.703125 36.59375 58.25 
Q 36.703125 59.796875 36.90625 61.40625 
L 10.796875 25.84375 
z
M 55.15625 25.84375 
L 55.15625 20.75 
Q 55.15625 19.953125 54.671875 19.390625 
Q 54.203125 18.84375 53.203125 18.84375 
L 44.296875 18.84375 
L 44.296875 0 
L 36.5 0 
L 36.5 18.84375 
L 4.703125 18.84375 
Q 3.703125 18.84375 2.96875 19.421875 
Q 2.25 20 2.046875 20.84375 
L 1.15625 25.40625 
L 36 71.65625 
L 44.296875 71.65625 
L 44.296875 25.84375 
z
" id="Lato-Regular-52"/>
     </defs>
     <g transform="translate(320.071464 218.416287)scale(0.09996 -0.09996)">
      <use xlink:href="#Lato-Regular-52"/>
     </g>
    </g>
   </g>
  </g>
  <g id="axes_6">
   <g id="line2d_32">
    <path clip-path="url(#p0917eef094)" d="M 348.936877 250.232145 
L 371.371398 250.232145 
" style="fill:none;stroke:#808080;stroke-dasharray:0.75,1.2375;stroke-dashoffset:0;stroke-width:0.75;"/>
   </g>
   <g id="line2d_33">
    <path clip-path="url(#p0917eef094)" d="M 461.109486 156.799855 
L 483.544008 156.799855 
" style="fill:none;stroke:#808080;stroke-dasharray:0.75,1.2375;stroke-dashoffset:0;stroke-width:0.75;"/>
   </g>
   <g id="line2d_34">
    <path clip-path="url(#p0917eef094)" d="M 371.371398 250.232145 
L 374.960922 242.950378 
L 378.550445 236.122621 
L 382.139969 229.720569 
L 386.178183 222.994126 
L 390.216397 216.737621 
L 394.254611 210.918222 
L 398.292825 205.505391 
L 402.331039 200.470723 
L 406.369253 195.787798 
L 410.407466 191.432042 
L 414.44568 187.380598 
L 418.932585 183.210094 
L 423.419489 179.362049 
L 427.906394 175.811532 
L 432.393298 172.535539 
L 437.328893 169.223736 
L 442.264488 166.192491 
L 447.200082 163.418036 
L 452.584368 160.658713 
L 457.968653 158.153387 
L 461.109486 156.799855 
L 461.109486 156.799855 
" style="fill:none;stroke:#ed2f55;stroke-linecap:square;stroke-width:0.75;"/>
   </g>
   <g id="line2d_35">
    <path clip-path="url(#p0917eef094)" d="M 371.371398 250.232145 
L 378.101755 245.246502 
L 384.832112 239.994819 
L 391.562468 234.4629 
L 398.292825 228.635793 
L 405.023181 222.497746 
L 411.304847 216.47374 
L 417.586514 210.15024 
L 423.86818 203.512357 
L 430.149846 196.544461 
L 436.431512 189.230143 
L 442.713178 181.552182 
L 448.546154 174.081249 
L 454.379129 166.266018 
L 460.212105 158.090622 
L 461.109486 156.799855 
L 461.109486 156.799855 
" style="fill:none;stroke:#4592e6;stroke-linecap:square;stroke-width:0.75;"/>
   </g>
   <g id="line2d_36">
    <path clip-path="url(#p0917eef094)" d="M 371.371398 250.232145 
L 376.755684 248.458482 
L 382.139969 246.449127 
L 387.075564 244.373493 
L 392.011159 242.046362 
L 396.498063 239.686975 
L 400.984967 237.069071 
L 405.023181 234.468577 
L 409.061395 231.612993 
L 413.099609 228.477297 
L 417.137823 225.034012 
L 420.727347 221.690764 
L 424.31687 218.057541 
L 427.906394 214.10919 
L 431.495917 209.818379 
L 435.085441 205.155406 
L 438.674964 200.08799 
L 442.264488 194.581052 
L 445.405321 189.372048 
L 448.546154 183.769793 
L 451.686987 177.744599 
L 454.82782 171.264537 
L 457.968653 164.295266 
L 461.109486 156.799855 
L 461.109486 156.799855 
" style="fill:none;stroke:#ffc400;stroke-linecap:square;stroke-width:0.75;"/>
   </g>
   <g id="text_12">
    <!-- expin -->
    <defs>
     <path d="M 50.34375 0 
L 40.046875 0 
Q 38.796875 0 38.0625 0.640625 
Q 37.34375 1.296875 36.90625 2.09375 
L 25.15625 20.953125 
Q 24.703125 19.25 23.953125 18 
L 13.296875 2.09375 
Q 12.75 1.296875 12.078125 0.640625 
Q 11.40625 0 10.296875 0 
L 0.703125 0 
L 18.34375 26.296875 
L 1.40625 51 
L 11.703125 51 
Q 12.953125 51 13.515625 50.625 
Q 14.09375 50.25 14.546875 49.5 
L 26.09375 31.5 
Q 26.546875 33.15625 27.5 34.65625 
L 37.25 49.296875 
Q 38.25 51 39.796875 51 
L 49.65625 51 
L 32.703125 26.75 
z
" id="Lato-Semibold-120"/>
    </defs>
    <g transform="translate(401.754192 142.12824)scale(0.12 -0.12)">
     <use xlink:href="#Lato-Semibold-101"/>
     <use x="53.100006" xlink:href="#Lato-Semibold-120"/>
     <use x="104.150009" xlink:href="#Lato-Semibold-112"/>
     <use x="160.600021" xlink:href="#Lato-Semibold-105"/>
     <use x="185.350021" xlink:href="#Lato-Semibold-110"/>
    </g>
   </g>
   <g id="legend_3">
    <g id="line2d_37">
     <path d="M 479.548969 190.764852 
L 484.546969 190.764852 
" style="fill:none;stroke:#ed2f55;stroke-linecap:square;stroke-width:0.75;"/>
    </g>
    <g id="line2d_38"/>
    <g id="text_13">
     <!-- 0.2 -->
     <g transform="translate(487.045969 194.263452)scale(0.09996 -0.09996)">
      <use xlink:href="#Lato-Regular-48"/>
      <use x="58" xlink:href="#Lato-Regular-46"/>
      <use x="81.600006" xlink:href="#Lato-Regular-50"/>
     </g>
    </g>
    <g id="line2d_39">
     <path d="M 479.548969 202.84127 
L 484.546969 202.84127 
" style="fill:none;stroke:#4592e6;stroke-linecap:square;stroke-width:0.75;"/>
    </g>
    <g id="line2d_40"/>
    <g id="text_14">
     <!-- 2.0 -->
     <g transform="translate(487.045969 206.33987)scale(0.09996 -0.09996)">
      <use xlink:href="#Lato-Regular-50"/>
      <use x="58" xlink:href="#Lato-Regular-46"/>
      <use x="81.600006" xlink:href="#Lato-Regular-48"/>
     </g>
    </g>
    <g id="line2d_41">
     <path d="M 479.548969 214.917687 
L 484.546969 214.917687 
" style="fill:none;stroke:#ffc400;stroke-linecap:square;stroke-width:0.75;"/>
    </g>
    <g id="line2d_42"/>
    <g id="text_15">
     <!-- 8.0 -->
     <defs>
      <path d="M 29 6.296875 
Q 32.5 6.296875 35.265625 7.265625 
Q 38.046875 8.25 39.96875 10.015625 
Q 41.90625 11.796875 42.921875 14.265625 
Q 43.953125 16.75 43.953125 19.75 
Q 43.953125 23.453125 42.71875 26.078125 
Q 41.5 28.703125 39.421875 30.34375 
Q 37.34375 32 34.640625 32.765625 
Q 31.953125 33.546875 29 33.546875 
Q 26.046875 33.546875 23.34375 32.765625 
Q 20.65625 32 18.578125 30.34375 
Q 16.5 28.703125 15.265625 26.078125 
Q 14.046875 23.453125 14.046875 19.75 
Q 14.046875 16.75 15.0625 14.265625 
Q 16.09375 11.796875 18.015625 10.015625 
Q 19.953125 8.25 22.71875 7.265625 
Q 25.5 6.296875 29 6.296875 
z
M 29 65.546875 
Q 25.796875 65.546875 23.375 64.59375 
Q 20.953125 63.65625 19.328125 62 
Q 17.703125 60.34375 16.875 58.140625 
Q 16.046875 55.953125 16.046875 53.453125 
Q 16.046875 51 16.75 48.703125 
Q 17.453125 46.40625 19 44.625 
Q 20.546875 42.84375 23.015625 41.765625 
Q 25.5 40.703125 29 40.703125 
Q 32.5 40.703125 34.96875 41.765625 
Q 37.453125 42.84375 39 44.625 
Q 40.546875 46.40625 41.25 48.703125 
Q 41.953125 51 41.953125 53.453125 
Q 41.953125 55.953125 41.125 58.140625 
Q 40.296875 60.34375 38.671875 62 
Q 37.046875 63.65625 34.625 64.59375 
Q 32.203125 65.546875 29 65.546875 
z
M 39.25 37.34375 
Q 45.953125 35.453125 49.546875 31 
Q 53.15625 26.546875 53.15625 19.59375 
Q 53.15625 14.90625 51.375 11.125 
Q 49.59375 7.34375 46.421875 4.6875 
Q 43.25 2.046875 38.796875 0.625 
Q 34.34375 -0.796875 29 -0.796875 
Q 23.65625 -0.796875 19.203125 0.625 
Q 14.75 2.046875 11.546875 4.6875 
Q 8.34375 7.34375 6.59375 11.125 
Q 4.84375 14.90625 4.84375 19.59375 
Q 4.84375 26.546875 8.4375 31 
Q 12.046875 35.453125 18.75 37.34375 
Q 13.09375 39.453125 10.21875 43.625 
Q 7.34375 47.796875 7.34375 53.59375 
Q 7.34375 57.546875 8.890625 61 
Q 10.453125 64.453125 13.296875 67 
Q 16.15625 69.546875 20.125 71 
Q 24.09375 72.453125 29 72.453125 
Q 33.84375 72.453125 37.84375 71 
Q 41.84375 69.546875 44.6875 67 
Q 47.546875 64.453125 49.09375 61 
Q 50.65625 57.546875 50.65625 53.59375 
Q 50.65625 47.796875 47.78125 43.625 
Q 44.90625 39.453125 39.25 37.34375 
z
" id="Lato-Regular-56"/>
     </defs>
     <g transform="translate(487.045969 218.416287)scale(0.09996 -0.09996)">
      <use xlink:href="#Lato-Regular-56"/>
      <use x="58" xlink:href="#Lato-Regular-46"/>
      <use x="81.600006" xlink:href="#Lato-Regular-48"/>
     </g>
    </g>
   </g>
  </g>
  <g id="axes_7">
   <g id="line2d_43">
    <path clip-path="url(#p3569591b89)" d="M 9.730597 380.480145 
L 32.165118 380.480145 
" style="fill:none;stroke:#808080;stroke-dasharray:0.75,1.2375;stroke-dashoffset:0;stroke-width:0.75;"/>
   </g>
   <g id="line2d_44">
    <path clip-path="url(#p3569591b89)" d="M 121.903206 287.047855 
L 144.337728 287.047855 
" style="fill:none;stroke:#808080;stroke-dasharray:0.75,1.2375;stroke-dashoffset:0;stroke-width:0.75;"/>
   </g>
   <g id="line2d_45">
    <path clip-path="url(#p3569591b89)" d="M 32.165118 380.480145 
L 37.549404 378.112044 
L 42.933689 375.503858 
L 47.869284 372.881369 
L 52.804879 370.016154 
L 57.740473 366.88575 
L 62.227378 363.789192 
L 66.714282 360.433148 
L 71.201187 356.795874 
L 75.688091 352.853801 
L 79.726305 349.024267 
L 83.764519 344.90709 
L 87.802733 340.480663 
L 91.840947 335.72176 
L 95.879161 330.605406 
L 99.917375 325.104754 
L 103.955588 319.190938 
L 107.545112 313.562322 
L 111.134635 307.559431 
L 114.724159 301.157379 
L 118.313682 294.329622 
L 121.903206 287.047855 
L 121.903206 287.047855 
" style="fill:none;stroke:#ed2f55;stroke-linecap:square;stroke-width:0.75;"/>
   </g>
   <g id="line2d_46">
    <path clip-path="url(#p3569591b89)" d="M 32.165118 380.480145 
L 37.998094 372.247886 
L 43.83107 364.378295 
L 50.112736 356.290631 
L 56.394402 348.586014 
L 62.676068 341.246303 
L 68.957734 334.254216 
L 75.2394 327.593288 
L 81.521067 321.247834 
L 87.802733 315.202914 
L 94.533089 309.043557 
L 101.263446 303.19622 
L 107.993802 297.645096 
L 114.724159 292.375181 
L 121.903206 287.047855 
L 121.903206 287.047855 
" style="fill:none;stroke:#4592e6;stroke-linecap:square;stroke-width:0.75;"/>
   </g>
   <g id="line2d_47">
    <path clip-path="url(#p3569591b89)" d="M 32.165118 380.480145 
L 35.305951 372.984734 
L 38.446785 366.015463 
L 41.587618 359.535401 
L 44.728451 353.510207 
L 47.869284 347.907952 
L 51.458807 341.985272 
L 55.048331 336.535294 
L 58.637854 331.520293 
L 62.227378 326.90555 
L 65.816901 322.659121 
L 69.406425 318.751609 
L 72.995948 315.155965 
L 76.585472 311.847298 
L 80.623686 308.439628 
L 84.6619 305.336365 
L 88.700114 302.510318 
L 92.738328 299.936722 
L 97.225232 297.345895 
L 101.712136 295.010912 
L 106.647731 292.707852 
L 111.583326 290.653687 
L 116.967611 288.665115 
L 121.903206 287.047855 
L 121.903206 287.047855 
" style="fill:none;stroke:#ffc400;stroke-linecap:square;stroke-width:0.75;"/>
   </g>
   <g id="text_16">
    <!-- expout -->
    <defs>
     <path d="M 49.546875 51 
L 49.546875 0 
L 43.046875 0 
Q 40.90625 0 40.296875 2.046875 
L 39.5 6.796875 
Q 37.90625 5.09375 36.125 3.6875 
Q 34.34375 2.296875 32.34375 1.296875 
Q 30.34375 0.296875 28.0625 -0.25 
Q 25.796875 -0.796875 23.203125 -0.796875 
Q 19 -0.796875 15.796875 0.59375 
Q 12.59375 2 10.421875 4.546875 
Q 8.25 7.09375 7.140625 10.671875 
Q 6.046875 14.25 6.046875 18.546875 
L 6.046875 51 
L 16.796875 51 
L 16.796875 18.546875 
Q 16.796875 13.40625 19.171875 10.546875 
Q 21.546875 7.703125 26.40625 7.703125 
Q 29.953125 7.703125 33.015625 9.328125 
Q 36.09375 10.953125 38.796875 13.796875 
L 38.796875 51 
z
" id="Lato-Semibold-117"/>
    </defs>
    <g transform="translate(58.414475 272.37624)scale(0.12 -0.12)">
     <use xlink:href="#Lato-Semibold-101"/>
     <use x="53.100006" xlink:href="#Lato-Semibold-120"/>
     <use x="104.150009" xlink:href="#Lato-Semibold-112"/>
     <use x="160.600021" xlink:href="#Lato-Semibold-111"/>
     <use x="217.700027" xlink:href="#Lato-Semibold-117"/>
     <use x="273.800034" xlink:href="#Lato-Semibold-116"/>
    </g>
   </g>
   <g id="legend_4">
    <g id="line2d_48">
     <path d="M 140.342689 321.012853 
L 145.340689 321.012853 
" style="fill:none;stroke:#ed2f55;stroke-linecap:square;stroke-width:0.75;"/>
    </g>
    <g id="line2d_49"/>
    <g id="text_17">
     <!-- 0.2 -->
     <g transform="translate(147.839689 324.511453)scale(0.09996 -0.09996)">
      <use xlink:href="#Lato-Regular-48"/>
      <use x="58" xlink:href="#Lato-Regular-46"/>
      <use x="81.600006" xlink:href="#Lato-Regular-50"/>
     </g>
    </g>
    <g id="line2d_50">
     <path d="M 140.342689 333.08927 
L 145.340689 333.08927 
" style="fill:none;stroke:#4592e6;stroke-linecap:square;stroke-width:0.75;"/>
    </g>
    <g id="line2d_51"/>
    <g id="text_18">
     <!-- 2.0 -->
     <g transform="translate(147.839689 336.58787)scale(0.09996 -0.09996)">
      <use xlink:href="#Lato-Regular-50"/>
      <use x="58" xlink:href="#Lato-Regular-46"/>
      <use x="81.600006" xlink:href="#Lato-Regular-48"/>
     </g>
    </g>
    <g id="line2d_52">
     <path d="M 140.342689 345.165687 
L 145.340689 345.165687 
" style="fill:none;stroke:#ffc400;stroke-linecap:square;stroke-width:0.75;"/>
    </g>
    <g id="line2d_53"/>
    <g id="text_19">
     <!-- 8.0 -->
     <g transform="translate(147.839689 348.664288)scale(0.09996 -0.09996)">
      <use xlink:href="#Lato-Regular-56"/>
      <use x="58" xlink:href="#Lato-Regular-46"/>
      <use x="81.600006" xlink:href="#Lato-Regular-48"/>
     </g>
    </g>
   </g>
  </g>
  <g id="axes_8">
   <g id="line2d_54">
    <path clip-path="url(#pbdd740eae1)" d="M 177.884317 380.480145 
L 200.318838 380.480145 
" style="fill:none;stroke:#808080;stroke-dasharray:0.75,1.2375;stroke-dashoffset:0;stroke-width:0.75;"/>
   </g>
   <g id="line2d_55">
    <path clip-path="url(#pbdd740eae1)" d="M 290.056926 287.047855 
L 312.491448 287.047855 
" style="fill:none;stroke:#808080;stroke-dasharray:0.75,1.2375;stroke-dashoffset:0;stroke-width:0.75;"/>
   </g>
   <g id="line2d_56">
    <path clip-path="url(#pbdd740eae1)" d="M 200.318838 380.480145 
L 203.459672 380.365691 
L 206.600505 380.022327 
L 209.741338 379.450054 
L 212.882171 378.648873 
L 216.023004 377.618782 
L 219.163837 376.359781 
L 222.30467 374.871872 
L 225.445503 373.155054 
L 228.586336 371.209326 
L 232.17586 368.705341 
L 235.765383 365.902372 
L 239.354907 362.80042 
L 242.94443 359.399485 
L 246.533954 355.699566 
L 250.123477 351.700664 
L 254.161691 346.844521 
L 258.199905 341.609977 
L 262.238119 335.997032 
L 266.276333 330.005686 
L 270.314547 323.63594 
L 274.801451 316.11464 
L 279.288355 308.126179 
L 283.77526 299.670557 
L 288.262164 290.747773 
L 290.056926 287.047855 
L 290.056926 287.047855 
" style="fill:none;stroke:#ed2f55;stroke-linecap:square;stroke-width:0.75;"/>
   </g>
   <g id="line2d_57">
    <path clip-path="url(#pbdd740eae1)" d="M 200.318838 380.480145 
L 209.741338 380.371986 
L 214.676932 380.097447 
L 218.715146 379.675215 
L 222.75336 379.020266 
L 226.342884 378.201425 
L 229.483717 377.27279 
L 232.62455 376.120968 
L 235.765383 374.721925 
L 238.906216 373.051624 
L 241.598359 371.38582 
L 244.290501 369.48793 
L 246.982644 367.342818 
L 249.674787 364.935348 
L 252.366929 362.250384 
L 255.059072 359.272791 
L 257.751214 355.987431 
L 260.443357 352.379169 
L 263.1355 348.43287 
L 265.827642 344.133396 
L 268.519785 339.465612 
L 271.660618 333.534168 
L 274.801451 327.056776 
L 277.942284 320.0094 
L 281.083117 312.368005 
L 284.22395 304.108556 
L 287.364783 295.207016 
L 290.056926 287.047855 
L 290.056926 287.047855 
" style="fill:none;stroke:#4592e6;stroke-linecap:square;stroke-width:0.75;"/>
   </g>
   <g id="line2d_58">
    <path clip-path="url(#pbdd740eae1)" d="M 200.318838 380.480145 
L 229.483717 380.370043 
L 235.765383 380.125267 
L 240.252287 379.754613 
L 243.841811 379.264107 
L 246.982644 378.632932 
L 249.674787 377.89388 
L 252.366929 376.9233 
L 254.610381 375.898418 
L 256.853834 374.638431 
L 259.097286 373.102041 
L 261.340738 371.24273 
L 263.1355 369.48793 
L 264.930261 367.463713 
L 266.725023 365.137957 
L 268.519785 362.47575 
L 270.314547 359.439231 
L 272.109308 355.987431 
L 273.90407 352.076106 
L 275.698832 347.657566 
L 277.493594 342.680502 
L 279.288355 337.089808 
L 281.083117 330.826395 
L 282.877879 323.827009 
L 284.672641 316.024031 
L 286.467402 307.345292 
L 288.262164 297.713862 
L 290.056926 287.047855 
L 290.056926 287.047855 
" style="fill:none;stroke:#ffc400;stroke-linecap:square;stroke-width:0.75;"/>
   </g>
   <g id="text_20">
    <!-- polyin -->
    <defs>
     <path d="M 51.796875 51 
L 23.703125 -14.5 
Q 23.15625 -15.65625 22.375 -16.296875 
Q 21.59375 -16.953125 20 -16.953125 
L 12.046875 -16.953125 
L 21.453125 3.453125 
L 0.65625 51 
L 10 51 
Q 11.34375 51 12.0625 50.375 
Q 12.796875 49.75 13.15625 48.90625 
L 25.296875 19.953125 
Q 25.75 18.703125 26.125 17.46875 
Q 26.5 16.25 26.84375 14.953125 
Q 27.25 16.25 27.640625 17.5 
Q 28.046875 18.75 28.546875 20 
L 40.203125 48.90625 
Q 40.546875 49.796875 41.375 50.390625 
Q 42.203125 51 43.203125 51 
z
" id="Lato-Semibold-121"/>
    </defs>
    <g transform="translate(228.937257 272.37624)scale(0.12 -0.12)">
     <use xlink:href="#Lato-Semibold-112"/>
     <use x="56.450012" xlink:href="#Lato-Semibold-111"/>
     <use x="113.550018" xlink:href="#Lato-Semibold-108"/>
     <use x="137.800018" xlink:href="#Lato-Semibold-121"/>
     <use x="190.000031" xlink:href="#Lato-Semibold-105"/>
     <use x="214.750031" xlink:href="#Lato-Semibold-110"/>
    </g>
   </g>
   <g id="legend_5">
    <g id="line2d_59">
     <path d="M 312.574464 321.012853 
L 317.572464 321.012853 
" style="fill:none;stroke:#ed2f55;stroke-linecap:square;stroke-width:0.75;"/>
    </g>
    <g id="line2d_60"/>
    <g id="text_21">
     <!-- 2 -->
     <g transform="translate(320.071464 324.511453)scale(0.09996 -0.09996)">
      <use xlink:href="#Lato-Regular-50"/>
     </g>
    </g>
    <g id="line2d_61">
     <path d="M 312.574464 333.08927 
L 317.572464 333.08927 
" style="fill:none;stroke:#4592e6;stroke-linecap:square;stroke-width:0.75;"/>
    </g>
    <g id="line2d_62"/>
    <g id="text_22">
     <!-- 3 -->
     <defs>
      <path d="M 6.5 52.25 
Q 7.203125 57.15625 9.203125 60.921875 
Q 11.203125 64.703125 14.265625 67.25 
Q 17.34375 69.796875 21.3125 71.125 
Q 25.296875 72.453125 29.90625 72.453125 
Q 34.453125 72.453125 38.296875 71.140625 
Q 42.15625 69.84375 44.921875 67.4375 
Q 47.703125 65.046875 49.25 61.640625 
Q 50.796875 58.25 50.796875 54.09375 
Q 50.796875 50.703125 49.921875 48.015625 
Q 49.046875 45.34375 47.421875 43.34375 
Q 45.796875 41.34375 43.5 39.9375 
Q 41.203125 38.546875 38.34375 37.65625 
Q 45.34375 35.84375 48.875 31.46875 
Q 52.40625 27.09375 52.40625 20.546875 
Q 52.40625 15.59375 50.53125 11.640625 
Q 48.65625 7.703125 45.40625 4.921875 
Q 42.15625 2.15625 37.828125 0.671875 
Q 33.5 -0.796875 28.546875 -0.796875 
Q 22.84375 -0.796875 18.796875 0.625 
Q 14.75 2.046875 11.953125 4.546875 
Q 9.15625 7.046875 7.34375 10.46875 
Q 5.546875 13.90625 4.296875 17.90625 
L 8.15625 19.5 
Q 9.65625 20.15625 11.078125 19.84375 
Q 12.5 19.546875 13.15625 18.203125 
Q 13.796875 16.796875 14.765625 14.84375 
Q 15.75 12.90625 17.453125 11.09375 
Q 19.15625 9.296875 21.78125 8.046875 
Q 24.40625 6.796875 28.453125 6.796875 
Q 32.203125 6.796875 35.015625 8.015625 
Q 37.84375 9.25 39.71875 11.203125 
Q 41.59375 13.15625 42.546875 15.546875 
Q 43.5 17.953125 43.5 20.296875 
Q 43.5 23.203125 42.75 25.59375 
Q 42 28 39.953125 29.75 
Q 37.90625 31.5 34.328125 32.5 
Q 30.75 33.5 25.15625 33.5 
L 25.15625 39.953125 
Q 29.75 40 32.96875 40.953125 
Q 36.203125 41.90625 38.21875 43.546875 
Q 40.25 45.203125 41.171875 47.5 
Q 42.09375 49.796875 42.09375 52.59375 
Q 42.09375 55.703125 41.125 58 
Q 40.15625 60.296875 38.453125 61.796875 
Q 36.75 63.296875 34.421875 64.046875 
Q 32.09375 64.796875 29.40625 64.796875 
Q 26.703125 64.796875 24.375 64 
Q 22.046875 63.203125 20.265625 61.765625 
Q 18.5 60.34375 17.296875 58.390625 
Q 16.09375 56.453125 15.59375 54.09375 
Q 14.953125 52.34375 13.96875 51.765625 
Q 13 51.203125 11.15625 51.453125 
z
" id="Lato-Regular-51"/>
     </defs>
     <g transform="translate(320.071464 336.58787)scale(0.09996 -0.09996)">
      <use xlink:href="#Lato-Regular-51"/>
     </g>
    </g>
    <g id="line2d_63">
     <path d="M 312.574464 345.165687 
L 317.572464 345.165687 
" style="fill:none;stroke:#ffc400;stroke-linecap:square;stroke-width:0.75;"/>
    </g>
    <g id="line2d_64"/>
    <g id="text_23">
     <!-- 6 -->
     <defs>
      <path d="M 28.90625 6.59375 
Q 32.5 6.59375 35.421875 7.75 
Q 38.34375 8.90625 40.421875 10.953125 
Q 42.5 13 43.625 15.796875 
Q 44.75 18.59375 44.75 21.90625 
Q 44.75 25.40625 43.640625 28.21875 
Q 42.546875 31.046875 40.515625 33.015625 
Q 38.5 35 35.703125 36.046875 
Q 32.90625 37.09375 29.546875 37.09375 
Q 25.953125 37.09375 23.046875 35.875 
Q 20.15625 34.65625 18.125 32.578125 
Q 16.09375 30.5 15.015625 27.765625 
Q 13.953125 25.046875 13.953125 22.09375 
Q 13.953125 18.65625 14.953125 15.796875 
Q 15.953125 12.953125 17.875 10.890625 
Q 19.796875 8.84375 22.5625 7.71875 
Q 25.34375 6.59375 28.90625 6.59375 
z
M 23.703125 44.796875 
Q 22.75 43.59375 21.875 42.46875 
Q 21 41.34375 20.203125 40.25 
Q 22.75 42 25.796875 42.953125 
Q 28.84375 43.90625 32.453125 43.90625 
Q 36.796875 43.90625 40.640625 42.46875 
Q 44.5 41.046875 47.375 38.3125 
Q 50.25 35.59375 51.953125 31.625 
Q 53.65625 27.65625 53.65625 22.546875 
Q 53.65625 17.59375 51.84375 13.34375 
Q 50.046875 9.09375 46.8125 5.9375 
Q 43.59375 2.796875 39.0625 1 
Q 34.546875 -0.796875 29.09375 -0.796875 
Q 23.703125 -0.796875 19.296875 0.921875 
Q 14.90625 2.65625 11.828125 5.828125 
Q 8.75 9 7.078125 13.515625 
Q 5.40625 18.046875 5.40625 23.65625 
Q 5.40625 28.34375 7.46875 33.671875 
Q 9.546875 39 14.09375 45.046875 
L 32.296875 69.5 
Q 33 70.40625 34.21875 71.03125 
Q 35.453125 71.65625 37.046875 71.65625 
L 44.953125 71.65625 
z
" id="Lato-Regular-54"/>
     </defs>
     <g transform="translate(320.071464 348.664288)scale(0.09996 -0.09996)">
      <use xlink:href="#Lato-Regular-54"/>
     </g>
    </g>
   </g>
  </g>
  <g id="axes_9">
   <g id="line2d_65">
    <path clip-path="url(#p9eeeaff6ee)" d="M 348.936877 380.480145 
L 371.371398 380.480145 
" style="fill:none;stroke:#808080;stroke-dasharray:0.75,1.2375;stroke-dashoffset:0;stroke-width:0.75;"/>
   </g>
   <g id="line2d_66">
    <path clip-path="url(#p9eeeaff6ee)" d="M 461.109486 287.047855 
L 483.544008 287.047855 
" style="fill:none;stroke:#808080;stroke-dasharray:0.75,1.2375;stroke-dashoffset:0;stroke-width:0.75;"/>
   </g>
   <g id="line2d_67">
    <path clip-path="url(#p9eeeaff6ee)" d="M 371.371398 380.480145 
L 375.858303 371.370497 
L 380.345207 362.72801 
L 384.832112 354.552685 
L 389.319016 346.844521 
L 393.80592 339.603518 
L 397.844134 333.486039 
L 401.882348 327.74696 
L 405.920562 322.386283 
L 409.958776 317.404006 
L 413.99699 312.80013 
L 417.586514 309.025465 
L 421.176037 305.549784 
L 424.76556 302.373086 
L 428.355084 299.495372 
L 431.944608 296.91664 
L 435.534131 294.636892 
L 438.674964 292.887373 
L 441.815797 291.366762 
L 444.95663 290.075061 
L 448.097463 289.012268 
L 451.238296 288.178385 
L 454.379129 287.573411 
L 457.519962 287.197346 
L 460.660796 287.05019 
L 461.109486 287.047855 
L 461.109486 287.047855 
" style="fill:none;stroke:#ed2f55;stroke-linecap:square;stroke-width:0.75;"/>
   </g>
   <g id="line2d_68">
    <path clip-path="url(#p9eeeaff6ee)" d="M 371.371398 380.480145 
L 374.512231 371.009113 
L 377.653065 362.200772 
L 380.793898 354.031087 
L 383.934731 346.476024 
L 387.075564 339.511546 
L 390.216397 333.113618 
L 393.35723 327.258204 
L 396.498063 321.92127 
L 399.638896 317.07878 
L 402.331039 313.303391 
L 405.023181 309.858472 
L 407.715324 306.728888 
L 410.407466 303.899501 
L 413.099609 301.355176 
L 415.791752 299.080777 
L 418.483894 297.061168 
L 421.176037 295.281213 
L 424.31687 293.487301 
L 427.457703 291.974948 
L 430.598536 290.720117 
L 433.739369 289.698774 
L 437.328893 288.786594 
L 440.918416 288.112107 
L 444.95663 287.592752 
L 449.443535 287.253125 
L 454.82782 287.079902 
L 461.109486 287.047855 
L 461.109486 287.047855 
" style="fill:none;stroke:#4592e6;stroke-linecap:square;stroke-width:0.75;"/>
   </g>
   <g id="line2d_69">
    <path clip-path="url(#p9eeeaff6ee)" d="M 371.371398 380.480145 
L 373.614851 367.312574 
L 375.858303 355.729174 
L 377.653065 347.49763 
L 379.447826 340.10518 
L 381.242588 333.481955 
L 383.03735 327.562544 
L 384.832112 322.285798 
L 386.626873 317.594643 
L 388.421635 313.435893 
L 390.216397 309.760072 
L 392.011159 306.521235 
L 393.80592 303.676795 
L 395.600682 301.187358 
L 397.395444 299.016558 
L 399.190206 297.130896 
L 401.433658 295.128143 
L 403.67711 293.468473 
L 405.920562 292.103163 
L 408.164014 290.988878 
L 410.856157 289.929398 
L 413.5483 289.118722 
L 416.689133 288.422302 
L 420.278656 287.876875 
L 424.31687 287.491668 
L 429.701155 287.219608 
L 437.328893 287.080212 
L 455.725201 287.047859 
L 461.109486 287.047855 
L 461.109486 287.047855 
" style="fill:none;stroke:#ffc400;stroke-linecap:square;stroke-width:0.75;"/>
   </g>
   <g id="text_24">
    <!-- polyout -->
    <g transform="translate(395.85638 272.37624)scale(0.12 -0.12)">
     <use xlink:href="#Lato-Semibold-112"/>
     <use x="56.450012" xlink:href="#Lato-Semibold-111"/>
     <use x="113.550018" xlink:href="#Lato-Semibold-108"/>
     <use x="137.800018" xlink:href="#Lato-Semibold-121"/>
     <use x="190.000031" xlink:href="#Lato-Semibold-111"/>
     <use x="247.100037" xlink:href="#Lato-Semibold-117"/>
     <use x="303.200043" xlink:href="#Lato-Semibold-116"/>
    </g>
   </g>
   <g id="legend_6">
    <g id="line2d_70">
     <path d="M 483.627024 321.012853 
L 488.625024 321.012853 
" style="fill:none;stroke:#ed2f55;stroke-linecap:square;stroke-width:0.75;"/>
    </g>
    <g id="line2d_71"/>
    <g id="text_25">
     <!-- 2 -->
     <g transform="translate(491.124024 324.511453)scale(0.09996 -0.09996)">
      <use xlink:href="#Lato-Regular-50"/>
     </g>
    </g>
    <g id="line2d_72">
     <path d="M 483.627024 333.08927 
L 488.625024 333.08927 
" style="fill:none;stroke:#4592e6;stroke-linecap:square;stroke-width:0.75;"/>
    </g>
    <g id="line2d_73"/>
    <g id="text_26">
     <!-- 3 -->
     <g transform="translate(491.124024 336.58787)scale(0.09996 -0.09996)">
      <use xlink:href="#Lato-Regular-51"/>
     </g>
    </g>
    <g id="line2d_74">
     <path d="M 483.627024 345.165687 
L 488.625024 345.165687 
" style="fill:none;stroke:#ffc400;stroke-linecap:square;stroke-width:0.75;"/>
    </g>
    <g id="line2d_75"/>
    <g id="text_27">
     <!-- 6 -->
     <g transform="translate(491.124024 348.664288)scale(0.09996 -0.09996)">
      <use xlink:href="#Lato-Regular-54"/>
     </g>
    </g>
   </g>
  </g>
  <g id="axes_10">
   <g id="line2d_76">
    <path clip-path="url(#p7545bcd476)" d="M 9.730597 510.728145 
L 32.165118 510.728145 
" style="fill:none;stroke:#808080;stroke-dasharray:0.75,1.2375;stroke-dashoffset:0;stroke-width:0.75;"/>
   </g>
   <g id="line2d_77">
    <path clip-path="url(#p7545bcd476)" d="M 121.903206 417.295855 
L 144.337728 417.295855 
" style="fill:none;stroke:#808080;stroke-dasharray:0.75,1.2375;stroke-dashoffset:0;stroke-width:0.75;"/>
   </g>
   <g id="line2d_78">
    <path clip-path="url(#p7545bcd476)" d="M 32.165118 510.728145 
L 34.408571 510.611355 
L 36.652023 510.260984 
L 38.895475 509.677032 
L 41.138927 508.8595 
L 43.382379 507.808386 
L 45.625832 506.523692 
L 47.869284 505.005418 
L 50.112736 503.253562 
L 52.804879 500.843009 
L 55.497021 498.0961 
L 58.189164 495.012834 
L 60.881306 491.593212 
L 63.573449 487.837234 
L 66.714282 483.030143 
L 69.855115 477.765233 
L 72.995948 472.042505 
L 76.136781 465.861959 
L 81.072376 455.981495 
L 84.213209 450.258767 
L 87.354042 444.993857 
L 90.494875 440.186766 
L 93.187018 436.430788 
L 95.879161 433.011166 
L 98.571303 429.9279 
L 101.263446 427.180991 
L 103.955588 424.770438 
L 106.647731 422.696241 
L 108.891183 421.224682 
L 111.134635 419.986705 
L 113.378088 418.982307 
L 115.62154 418.211491 
L 117.864992 417.674255 
L 120.108444 417.3706 
L 121.903206 417.295855 
L 121.903206 417.295855 
" style="fill:none;stroke:#ed2f55;stroke-linecap:square;stroke-width:0.75;"/>
   </g>
   <g id="line2d_79">
    <path clip-path="url(#p7545bcd476)" d="M 32.165118 510.728145 
L 37.998094 510.62551 
L 41.138927 510.354416 
L 43.83107 509.907062 
L 46.074522 509.336425 
L 48.317974 508.548557 
L 50.561426 507.508422 
L 52.804879 506.180983 
L 54.59964 504.888627 
L 56.394402 503.372034 
L 58.189164 501.613265 
L 59.983926 499.59438 
L 61.778687 497.297441 
L 63.573449 494.704508 
L 65.816901 491.019772 
L 68.060353 486.809479 
L 70.303806 482.038593 
L 72.547258 476.672075 
L 74.79071 470.67489 
L 77.034162 464.012 
L 79.277614 457.34911 
L 81.521067 451.351925 
L 83.764519 445.985407 
L 86.007971 441.214521 
L 88.251423 437.004228 
L 90.494875 433.319492 
L 92.738328 430.125276 
L 94.98178 427.386542 
L 97.225232 425.068253 
L 99.468684 423.135373 
L 101.712136 421.552863 
L 103.955588 420.285688 
L 106.199041 419.298809 
L 108.442493 418.55719 
L 110.685945 418.025794 
L 113.378088 417.616281 
L 116.518921 417.37658 
L 121.005825 417.296228 
L 121.903206 417.295855 
L 121.903206 417.295855 
" style="fill:none;stroke:#4592e6;stroke-linecap:square;stroke-width:0.75;"/>
   </g>
   <g id="line2d_80">
    <path clip-path="url(#p7545bcd476)" d="M 32.165118 510.728145 
L 48.317974 510.626455 
L 51.907498 510.389158 
L 54.59964 509.998206 
L 56.843092 509.435013 
L 58.637854 508.757634 
L 60.432616 507.807288 
L 61.778687 506.866872 
L 63.124759 505.686625 
L 64.47083 504.219929 
L 65.816901 502.413675 
L 67.162973 500.207688 
L 68.509044 497.534126 
L 69.855115 494.316856 
L 71.201187 490.470801 
L 72.547258 485.90127 
L 73.893329 480.503258 
L 75.2394 474.160719 
L 76.585472 466.745822 
L 78.380234 456.209096 
L 79.726305 449.523912 
L 81.072376 443.824517 
L 82.418447 438.991023 
L 83.764519 434.914826 
L 85.11059 431.497874 
L 86.456661 428.651963 
L 87.802733 426.298052 
L 89.148804 424.365606 
L 90.494875 422.791962 
L 91.840947 421.521721 
L 93.187018 420.506164 
L 94.98178 419.475443 
L 96.776541 418.736626 
L 98.571303 418.219461 
L 100.814755 417.799418 
L 103.506898 417.517761 
L 107.545112 417.346016 
L 115.62154 417.296206 
L 121.903206 417.295855 
L 121.903206 417.295855 
" style="fill:none;stroke:#ffc400;stroke-linecap:square;stroke-width:0.75;"/>
   </g>
   <g id="text_28">
    <!-- polyio -->
    <g transform="translate(60.723537 402.62424)scale(0.12 -0.12)">
     <use xlink:href="#Lato-Semibold-112"/>
     <use x="56.450012" xlink:href="#Lato-Semibold-111"/>
     <use x="113.550018" xlink:href="#Lato-Semibold-108"/>
     <use x="137.800018" xlink:href="#Lato-Semibold-121"/>
     <use x="190.000031" xlink:href="#Lato-Semibold-105"/>
     <use x="214.750031" xlink:href="#Lato-Semibold-111"/>
    </g>
   </g>
   <g id="legend_7">
    <g id="line2d_81">
     <path d="M 144.420744 451.260852 
L 149.418744 451.260852 
" style="fill:none;stroke:#ed2f55;stroke-linecap:square;stroke-width:0.75;"/>
    </g>
    <g id="line2d_82"/>
    <g id="text_29">
     <!-- 2 -->
     <g transform="translate(151.917744 454.759453)scale(0.09996 -0.09996)">
      <use xlink:href="#Lato-Regular-50"/>
     </g>
    </g>
    <g id="line2d_83">
     <path d="M 144.420744 463.33727 
L 149.418744 463.33727 
" style="fill:none;stroke:#4592e6;stroke-linecap:square;stroke-width:0.75;"/>
    </g>
    <g id="line2d_84"/>
    <g id="text_30">
     <!-- 3 -->
     <g transform="translate(151.917744 466.83587)scale(0.09996 -0.09996)">
      <use xlink:href="#Lato-Regular-51"/>
     </g>
    </g>
    <g id="line2d_85">
     <path d="M 144.420744 475.413688 
L 149.418744 475.413688 
" style="fill:none;stroke:#ffc400;stroke-linecap:square;stroke-width:0.75;"/>
    </g>
    <g id="line2d_86"/>
    <g id="text_31">
     <!-- 6 -->
     <g transform="translate(151.917744 478.912288)scale(0.09996 -0.09996)">
      <use xlink:href="#Lato-Regular-54"/>
     </g>
    </g>
   </g>
  </g>
  <g id="axes_11"/>
  <g id="axes_12"/>
 </g>
 <defs>
  <clipPath id="p0ecbe41f43">
   <rect height="102.77552" width="148.067844" x="3.00024" y="21.88024"/>
  </clipPath>
  <clipPath id="pc410af8dcb">
   <rect height="102.77552" width="148.067844" x="171.15396" y="21.88024"/>
  </clipPath>
  <clipPath id="pe4cd5ecf99">
   <rect height="102.77552" width="148.067844" x="342.20652" y="21.88024"/>
  </clipPath>
  <clipPath id="p6afeeb3b97">
   <rect height="102.77552" width="148.067844" x="3.00024" y="152.12824"/>
  </clipPath>
  <clipPath id="pe91f72f490">
   <rect height="102.77552" width="148.067844" x="171.15396" y="152.12824"/>
  </clipPath>
  <clipPath id="p0917eef094">
   <rect height="102.77552" width="148.067844" x="342.20652" y="152.12824"/>
  </clipPath>
  <clipPath id="p3569591b89">
   <rect height="102.77552" width="148.067844" x="3.00024" y="282.37624"/>
  </clipPath>
  <clipPath id="pbdd740eae1">
   <rect height="102.77552" width="148.067844" x="171.15396" y="282.37624"/>
  </clipPath>
  <clipPath id="p9eeeaff6ee">
   <rect height="102.77552" width="148.067844" x="342.20652" y="282.37624"/>
  </clipPath>
  <clipPath id="p7545bcd476">
   <rect height="102.77552" width="148.067844" x="3.00024" y="412.62424"/>
  </clipPath>
 </defs>
</svg>
