<?xml version="1.0" encoding="utf-8" standalone="no"?>
<!DOCTYPE svg PUBLIC "-//W3C//DTD SVG 1.1//EN"
  "http://www.w3.org/Graphics/SVG/1.1/DTD/svg11.dtd">
<!-- Created with matplotlib (https://matplotlib.org/) -->
<svg height="180pt" version="1.1" viewBox="0 0 288 180" width="288pt" xmlns="http://www.w3.org/2000/svg" xmlns:xlink="http://www.w3.org/1999/xlink">
 <defs>
  <style type="text/css">
*{stroke-linecap:butt;stroke-linejoin:round;}
  </style>
 </defs>
 <g id="figure_1">
  <g id="patch_1">
   <path d="M 0 180 
L 288 180 
L 288 0 
L 0 0 
z
" style="fill:#ffffff;"/>
  </g>
  <g id="axes_1">
   <g id="patch_2">
    <path d="M 51.578182 133.249091 
L 238.509136 133.249091 
L 238.509136 12.96 
L 51.578182 12.96 
z
" style="fill:#ffffff;"/>
   </g>
   <g id="matplotlib.axis_1">
    <g id="xtick_1">
     <g id="line2d_1">
      <defs>
       <path d="M 0 0 
L 0 -2.5 
" id="m7117b9e9c3" style="stroke:#000000;stroke-width:0.8;"/>
      </defs>
      <g>
       <use style="stroke:#000000;stroke-width:0.8;" x="84.351791" xlink:href="#m7117b9e9c3" y="133.249091"/>
      </g>
     </g>
     <g id="text_1">
      <!-- 0 -->
      <defs>
       <path d="M 55 35.796875 
Q 55 26.40625 52.96875 19.53125 
Q 50.953125 12.65625 47.453125 8.15625 
Q 43.953125 3.65625 39.171875 1.453125 
Q 34.40625 -0.75 28.953125 -0.75 
Q 23.453125 -0.75 18.71875 1.453125 
Q 14 3.65625 10.5 8.15625 
Q 7 12.65625 5 19.53125 
Q 3 26.40625 3 35.796875 
Q 3 45.203125 5 52.09375 
Q 7 59 10.5 63.515625 
Q 14 68.046875 18.71875 70.25 
Q 23.453125 72.453125 28.953125 72.453125 
Q 34.40625 72.453125 39.171875 70.25 
Q 43.953125 68.046875 47.453125 63.515625 
Q 50.953125 59 52.96875 52.09375 
Q 55 45.203125 55 35.796875 
z
M 45.75 35.796875 
Q 45.75 44 44.375 49.578125 
Q 43 55.15625 40.671875 58.546875 
Q 38.34375 61.953125 35.296875 63.421875 
Q 32.25 64.90625 28.953125 64.90625 
Q 25.65625 64.90625 22.59375 63.421875 
Q 19.546875 61.953125 17.25 58.546875 
Q 14.953125 55.15625 13.578125 49.578125 
Q 12.203125 44 12.203125 35.796875 
Q 12.203125 27.59375 13.578125 22.046875 
Q 14.953125 16.5 17.25 13.09375 
Q 19.546875 9.703125 22.59375 8.21875 
Q 25.65625 6.75 28.953125 6.75 
Q 32.25 6.75 35.296875 8.21875 
Q 38.34375 9.703125 40.671875 13.09375 
Q 43 16.5 44.375 22.046875 
Q 45.75 27.59375 45.75 35.796875 
z
" id="Lato-Regular-48"/>
      </defs>
      <g transform="translate(81.452951 144.11177)scale(0.09996 -0.09996)">
       <use xlink:href="#Lato-Regular-48"/>
      </g>
     </g>
    </g>
    <g id="xtick_2">
     <g id="line2d_2">
      <g>
       <use style="stroke:#000000;stroke-width:0.8;" x="132.905285" xlink:href="#m7117b9e9c3" y="133.249091"/>
      </g>
     </g>
     <g id="text_2">
      <!-- 1 -->
      <defs>
       <path d="M 50.90625 6.796875 
L 50.90625 0 
L 12.5 0 
L 12.5 6.796875 
L 27.84375 6.796875 
L 27.84375 55.65625 
Q 27.84375 57.84375 28 60.09375 
L 15.25 49.15625 
Q 14.59375 48.59375 13.9375 48.46875 
Q 13.296875 48.34375 12.75 48.4375 
Q 12.203125 48.546875 11.71875 48.84375 
Q 11.25 49.15625 11 49.5 
L 8.203125 53.34375 
L 29.546875 71.796875 
L 36.796875 71.796875 
L 36.796875 6.796875 
z
" id="Lato-Regular-49"/>
      </defs>
      <g transform="translate(130.006445 144.11177)scale(0.09996 -0.09996)">
       <use xlink:href="#Lato-Regular-49"/>
      </g>
     </g>
    </g>
    <g id="xtick_3">
     <g id="line2d_3">
      <g>
       <use style="stroke:#000000;stroke-width:0.8;" x="181.45878" xlink:href="#m7117b9e9c3" y="133.249091"/>
      </g>
     </g>
     <g id="text_3">
      <!-- 2 -->
      <defs>
       <path d="M 49.34375 8.453125 
Q 50.796875 8.453125 51.640625 7.59375 
Q 52.5 6.75 52.5 5.40625 
L 52.5 0 
L 4.703125 0 
L 4.703125 3.046875 
Q 4.703125 4 5.09375 5 
Q 5.5 6 6.34375 6.84375 
L 29.296875 29.90625 
Q 32.15625 32.796875 34.5 35.46875 
Q 36.84375 38.15625 38.5 40.84375 
Q 40.15625 43.546875 41.046875 46.3125 
Q 41.953125 49.09375 41.953125 52.25 
Q 41.953125 55.40625 40.953125 57.78125 
Q 39.953125 60.15625 38.21875 61.703125 
Q 36.5 63.25 34.140625 64.015625 
Q 31.796875 64.796875 29.09375 64.796875 
Q 26.34375 64.796875 24.046875 64 
Q 21.75 63.203125 19.96875 61.765625 
Q 18.203125 60.34375 17 58.390625 
Q 15.796875 56.453125 15.296875 54.09375 
Q 14.703125 52.34375 13.671875 51.765625 
Q 12.65625 51.203125 10.796875 51.453125 
L 6.15625 52.25 
Q 6.84375 57.15625 8.875 60.921875 
Q 10.90625 64.703125 13.96875 67.25 
Q 17.046875 69.796875 21 71.125 
Q 24.953125 72.453125 29.546875 72.453125 
Q 34.09375 72.453125 38.046875 71.09375 
Q 42 69.75 44.890625 67.171875 
Q 47.796875 64.59375 49.4375 60.890625 
Q 51.09375 57.203125 51.09375 52.5 
Q 51.09375 48.5 49.890625 45.078125 
Q 48.703125 41.65625 46.640625 38.546875 
Q 44.59375 35.453125 41.921875 32.5 
Q 39.25 29.546875 36.25 26.546875 
L 17.34375 7.25 
Q 19.34375 7.796875 21.390625 8.125 
Q 23.453125 8.453125 25.34375 8.453125 
z
" id="Lato-Regular-50"/>
      </defs>
      <g transform="translate(178.55994 144.11177)scale(0.09996 -0.09996)">
       <use xlink:href="#Lato-Regular-50"/>
      </g>
     </g>
    </g>
    <g id="xtick_4">
     <g id="line2d_4">
      <g>
       <use style="stroke:#000000;stroke-width:0.8;" x="230.012275" xlink:href="#m7117b9e9c3" y="133.249091"/>
      </g>
     </g>
     <g id="text_4">
      <!-- 3 -->
      <defs>
       <path d="M 6.5 52.25 
Q 7.203125 57.15625 9.203125 60.921875 
Q 11.203125 64.703125 14.265625 67.25 
Q 17.34375 69.796875 21.3125 71.125 
Q 25.296875 72.453125 29.90625 72.453125 
Q 34.453125 72.453125 38.296875 71.140625 
Q 42.15625 69.84375 44.921875 67.4375 
Q 47.703125 65.046875 49.25 61.640625 
Q 50.796875 58.25 50.796875 54.09375 
Q 50.796875 50.703125 49.921875 48.015625 
Q 49.046875 45.34375 47.421875 43.34375 
Q 45.796875 41.34375 43.5 39.9375 
Q 41.203125 38.546875 38.34375 37.65625 
Q 45.34375 35.84375 48.875 31.46875 
Q 52.40625 27.09375 52.40625 20.546875 
Q 52.40625 15.59375 50.53125 11.640625 
Q 48.65625 7.703125 45.40625 4.921875 
Q 42.15625 2.15625 37.828125 0.671875 
Q 33.5 -0.796875 28.546875 -0.796875 
Q 22.84375 -0.796875 18.796875 0.625 
Q 14.75 2.046875 11.953125 4.546875 
Q 9.15625 7.046875 7.34375 10.46875 
Q 5.546875 13.90625 4.296875 17.90625 
L 8.15625 19.5 
Q 9.65625 20.15625 11.078125 19.84375 
Q 12.5 19.546875 13.15625 18.203125 
Q 13.796875 16.796875 14.765625 14.84375 
Q 15.75 12.90625 17.453125 11.09375 
Q 19.15625 9.296875 21.78125 8.046875 
Q 24.40625 6.796875 28.453125 6.796875 
Q 32.203125 6.796875 35.015625 8.015625 
Q 37.84375 9.25 39.71875 11.203125 
Q 41.59375 13.15625 42.546875 15.546875 
Q 43.5 17.953125 43.5 20.296875 
Q 43.5 23.203125 42.75 25.59375 
Q 42 28 39.953125 29.75 
Q 37.90625 31.5 34.328125 32.5 
Q 30.75 33.5 25.15625 33.5 
L 25.15625 39.953125 
Q 29.75 40 32.96875 40.953125 
Q 36.203125 41.90625 38.21875 43.546875 
Q 40.25 45.203125 41.171875 47.5 
Q 42.09375 49.796875 42.09375 52.59375 
Q 42.09375 55.703125 41.125 58 
Q 40.15625 60.296875 38.453125 61.796875 
Q 36.75 63.296875 34.421875 64.046875 
Q 32.09375 64.796875 29.40625 64.796875 
Q 26.703125 64.796875 24.375 64 
Q 22.046875 63.203125 20.265625 61.765625 
Q 18.5 60.34375 17.296875 58.390625 
Q 16.09375 56.453125 15.59375 54.09375 
Q 14.953125 52.34375 13.96875 51.765625 
Q 13 51.203125 11.15625 51.453125 
z
" id="Lato-Regular-51"/>
      </defs>
      <g transform="translate(227.113435 144.11177)scale(0.09996 -0.09996)">
       <use xlink:href="#Lato-Regular-51"/>
      </g>
     </g>
    </g>
    <g id="text_5">
     <!-- t -->
     <defs>
      <path d="M 22.90625 -0.796875 
Q 16.546875 -0.796875 13.125 2.765625 
Q 9.703125 6.34375 9.703125 12.84375 
L 9.703125 42.546875 
L 4.09375 42.546875 
Q 3.203125 42.546875 2.546875 43.125 
Q 1.90625 43.703125 1.90625 44.84375 
L 1.90625 49.203125 
L 10.15625 50.40625 
L 12.5 65.15625 
Q 12.75 66 13.34375 66.515625 
Q 13.953125 67.046875 14.953125 67.046875 
L 20.453125 67.046875 
L 20.453125 50.296875 
L 34.59375 50.296875 
L 34.59375 42.546875 
L 20.453125 42.546875 
L 20.453125 13.59375 
Q 20.453125 10.84375 21.796875 9.390625 
Q 23.15625 7.953125 25.40625 7.953125 
Q 26.65625 7.953125 27.546875 8.265625 
Q 28.453125 8.59375 29.09375 8.96875 
Q 29.75 9.34375 30.21875 9.671875 
Q 30.703125 10 31.15625 10 
Q 32.046875 10 32.59375 9 
L 35.796875 3.75 
Q 33.296875 1.546875 29.890625 0.375 
Q 26.5 -0.796875 22.90625 -0.796875 
z
" id="Lato-Semibold-116"/>
     </defs>
     <g transform="translate(142.850847 164.706708)scale(0.12 -0.12)">
      <use xlink:href="#Lato-Semibold-116"/>
     </g>
    </g>
   </g>
   <g id="matplotlib.axis_2">
    <g id="ytick_1">
     <g id="line2d_5">
      <defs>
       <path d="M 0 0 
L 2.5 0 
" id="mfd2fec613c" style="stroke:#000000;stroke-width:0.8;"/>
      </defs>
      <g>
       <use style="stroke:#000000;stroke-width:0.8;" x="51.578182" xlink:href="#mfd2fec613c" y="127.781405"/>
      </g>
     </g>
     <g id="text_6">
      <!-- 0.0 -->
      <defs>
       <path d="M 5.546875 5.5 
Q 5.546875 6.796875 6.015625 7.9375 
Q 6.5 9.09375 7.328125 9.9375 
Q 8.15625 10.796875 9.296875 11.296875 
Q 10.453125 11.796875 11.75 11.796875 
Q 13.046875 11.796875 14.1875 11.296875 
Q 15.34375 10.796875 16.1875 9.9375 
Q 17.046875 9.09375 17.546875 7.9375 
Q 18.046875 6.796875 18.046875 5.5 
Q 18.046875 4.15625 17.546875 3.03125 
Q 17.046875 1.90625 16.1875 1.046875 
Q 15.34375 0.203125 14.1875 -0.265625 
Q 13.046875 -0.75 11.75 -0.75 
Q 10.453125 -0.75 9.296875 -0.265625 
Q 8.15625 0.203125 7.328125 1.046875 
Q 6.5 1.90625 6.015625 3.03125 
Q 5.546875 4.15625 5.546875 5.5 
z
" id="Lato-Regular-46"/>
      </defs>
      <g transform="translate(34.124391 131.462744)scale(0.09996 -0.09996)">
       <use xlink:href="#Lato-Regular-48"/>
       <use x="58" xlink:href="#Lato-Regular-46"/>
       <use x="81.600006" xlink:href="#Lato-Regular-48"/>
      </g>
     </g>
    </g>
    <g id="ytick_2">
     <g id="line2d_6">
      <g>
       <use style="stroke:#000000;stroke-width:0.8;" x="51.578182" xlink:href="#mfd2fec613c" y="105.910661"/>
      </g>
     </g>
     <g id="text_7">
      <!-- 0.2 -->
      <g transform="translate(34.124391 109.592001)scale(0.09996 -0.09996)">
       <use xlink:href="#Lato-Regular-48"/>
       <use x="58" xlink:href="#Lato-Regular-46"/>
       <use x="81.600006" xlink:href="#Lato-Regular-50"/>
      </g>
     </g>
    </g>
    <g id="ytick_3">
     <g id="line2d_7">
      <g>
       <use style="stroke:#000000;stroke-width:0.8;" x="51.578182" xlink:href="#mfd2fec613c" y="84.039917"/>
      </g>
     </g>
     <g id="text_8">
      <!-- 0.4 -->
      <defs>
       <path d="M 36.5 25.84375 
L 36.5 55.40625 
Q 36.5 56.703125 36.59375 58.25 
Q 36.703125 59.796875 36.90625 61.40625 
L 10.796875 25.84375 
z
M 55.15625 25.84375 
L 55.15625 20.75 
Q 55.15625 19.953125 54.671875 19.390625 
Q 54.203125 18.84375 53.203125 18.84375 
L 44.296875 18.84375 
L 44.296875 0 
L 36.5 0 
L 36.5 18.84375 
L 4.703125 18.84375 
Q 3.703125 18.84375 2.96875 19.421875 
Q 2.25 20 2.046875 20.84375 
L 1.15625 25.40625 
L 36 71.65625 
L 44.296875 71.65625 
L 44.296875 25.84375 
z
" id="Lato-Regular-52"/>
      </defs>
      <g transform="translate(34.124391 87.721257)scale(0.09996 -0.09996)">
       <use xlink:href="#Lato-Regular-48"/>
       <use x="58" xlink:href="#Lato-Regular-46"/>
       <use x="81.600006" xlink:href="#Lato-Regular-52"/>
      </g>
     </g>
    </g>
    <g id="ytick_4">
     <g id="line2d_8">
      <g>
       <use style="stroke:#000000;stroke-width:0.8;" x="51.578182" xlink:href="#mfd2fec613c" y="62.169174"/>
      </g>
     </g>
     <g id="text_9">
      <!-- 0.6 -->
      <defs>
       <path d="M 28.90625 6.59375 
Q 32.5 6.59375 35.421875 7.75 
Q 38.34375 8.90625 40.421875 10.953125 
Q 42.5 13 43.625 15.796875 
Q 44.75 18.59375 44.75 21.90625 
Q 44.75 25.40625 43.640625 28.21875 
Q 42.546875 31.046875 40.515625 33.015625 
Q 38.5 35 35.703125 36.046875 
Q 32.90625 37.09375 29.546875 37.09375 
Q 25.953125 37.09375 23.046875 35.875 
Q 20.15625 34.65625 18.125 32.578125 
Q 16.09375 30.5 15.015625 27.765625 
Q 13.953125 25.046875 13.953125 22.09375 
Q 13.953125 18.65625 14.953125 15.796875 
Q 15.953125 12.953125 17.875 10.890625 
Q 19.796875 8.84375 22.5625 7.71875 
Q 25.34375 6.59375 28.90625 6.59375 
z
M 23.703125 44.796875 
Q 22.75 43.59375 21.875 42.46875 
Q 21 41.34375 20.203125 40.25 
Q 22.75 42 25.796875 42.953125 
Q 28.84375 43.90625 32.453125 43.90625 
Q 36.796875 43.90625 40.640625 42.46875 
Q 44.5 41.046875 47.375 38.3125 
Q 50.25 35.59375 51.953125 31.625 
Q 53.65625 27.65625 53.65625 22.546875 
Q 53.65625 17.59375 51.84375 13.34375 
Q 50.046875 9.09375 46.8125 5.9375 
Q 43.59375 2.796875 39.0625 1 
Q 34.546875 -0.796875 29.09375 -0.796875 
Q 23.703125 -0.796875 19.296875 0.921875 
Q 14.90625 2.65625 11.828125 5.828125 
Q 8.75 9 7.078125 13.515625 
Q 5.40625 18.046875 5.40625 23.65625 
Q 5.40625 28.34375 7.46875 33.671875 
Q 9.546875 39 14.09375 45.046875 
L 32.296875 69.5 
Q 33 70.40625 34.21875 71.03125 
Q 35.453125 71.65625 37.046875 71.65625 
L 44.953125 71.65625 
z
" id="Lato-Regular-54"/>
      </defs>
      <g transform="translate(34.124391 65.850513)scale(0.09996 -0.09996)">
       <use xlink:href="#Lato-Regular-48"/>
       <use x="58" xlink:href="#Lato-Regular-46"/>
       <use x="81.600006" xlink:href="#Lato-Regular-54"/>
      </g>
     </g>
    </g>
    <g id="ytick_5">
     <g id="line2d_9">
      <g>
       <use style="stroke:#000000;stroke-width:0.8;" x="51.578182" xlink:href="#mfd2fec613c" y="40.29843"/>
      </g>
     </g>
     <g id="text_10">
      <!-- 0.8 -->
      <defs>
       <path d="M 29 6.296875 
Q 32.5 6.296875 35.265625 7.265625 
Q 38.046875 8.25 39.96875 10.015625 
Q 41.90625 11.796875 42.921875 14.265625 
Q 43.953125 16.75 43.953125 19.75 
Q 43.953125 23.453125 42.71875 26.078125 
Q 41.5 28.703125 39.421875 30.34375 
Q 37.34375 32 34.640625 32.765625 
Q 31.953125 33.546875 29 33.546875 
Q 26.046875 33.546875 23.34375 32.765625 
Q 20.65625 32 18.578125 30.34375 
Q 16.5 28.703125 15.265625 26.078125 
Q 14.046875 23.453125 14.046875 19.75 
Q 14.046875 16.75 15.0625 14.265625 
Q 16.09375 11.796875 18.015625 10.015625 
Q 19.953125 8.25 22.71875 7.265625 
Q 25.5 6.296875 29 6.296875 
z
M 29 65.546875 
Q 25.796875 65.546875 23.375 64.59375 
Q 20.953125 63.65625 19.328125 62 
Q 17.703125 60.34375 16.875 58.140625 
Q 16.046875 55.953125 16.046875 53.453125 
Q 16.046875 51 16.75 48.703125 
Q 17.453125 46.40625 19 44.625 
Q 20.546875 42.84375 23.015625 41.765625 
Q 25.5 40.703125 29 40.703125 
Q 32.5 40.703125 34.96875 41.765625 
Q 37.453125 42.84375 39 44.625 
Q 40.546875 46.40625 41.25 48.703125 
Q 41.953125 51 41.953125 53.453125 
Q 41.953125 55.953125 41.125 58.140625 
Q 40.296875 60.34375 38.671875 62 
Q 37.046875 63.65625 34.625 64.59375 
Q 32.203125 65.546875 29 65.546875 
z
M 39.25 37.34375 
Q 45.953125 35.453125 49.546875 31 
Q 53.15625 26.546875 53.15625 19.59375 
Q 53.15625 14.90625 51.375 11.125 
Q 49.59375 7.34375 46.421875 4.6875 
Q 43.25 2.046875 38.796875 0.625 
Q 34.34375 -0.796875 29 -0.796875 
Q 23.65625 -0.796875 19.203125 0.625 
Q 14.75 2.046875 11.546875 4.6875 
Q 8.34375 7.34375 6.59375 11.125 
Q 4.84375 14.90625 4.84375 19.59375 
Q 4.84375 26.546875 8.4375 31 
Q 12.046875 35.453125 18.75 37.34375 
Q 13.09375 39.453125 10.21875 43.625 
Q 7.34375 47.796875 7.34375 53.59375 
Q 7.34375 57.546875 8.890625 61 
Q 10.453125 64.453125 13.296875 67 
Q 16.15625 69.546875 20.125 71 
Q 24.09375 72.453125 29 72.453125 
Q 33.84375 72.453125 37.84375 71 
Q 41.84375 69.546875 44.6875 67 
Q 47.546875 64.453125 49.09375 61 
Q 50.65625 57.546875 50.65625 53.59375 
Q 50.65625 47.796875 47.78125 43.625 
Q 44.90625 39.453125 39.25 37.34375 
z
" id="Lato-Regular-56"/>
      </defs>
      <g transform="translate(34.124391 43.979769)scale(0.09996 -0.09996)">
       <use xlink:href="#Lato-Regular-48"/>
       <use x="58" xlink:href="#Lato-Regular-46"/>
       <use x="81.600006" xlink:href="#Lato-Regular-56"/>
      </g>
     </g>
    </g>
    <g id="ytick_6">
     <g id="line2d_10">
      <g>
       <use style="stroke:#000000;stroke-width:0.8;" x="51.578182" xlink:href="#mfd2fec613c" y="18.427686"/>
      </g>
     </g>
     <g id="text_11">
      <!-- 1.0 -->
      <g transform="translate(34.124391 22.109025)scale(0.09996 -0.09996)">
       <use xlink:href="#Lato-Regular-49"/>
       <use x="58" xlink:href="#Lato-Regular-46"/>
       <use x="81.600006" xlink:href="#Lato-Regular-48"/>
      </g>
     </g>
    </g>
    <g id="text_12">
     <!-- animation value -->
     <defs>
      <path d="M 33.796875 22.296875 
Q 28.046875 22.09375 24.09375 21.375 
Q 20.15625 20.65625 17.703125 19.53125 
Q 15.25 18.40625 14.171875 16.84375 
Q 13.09375 15.296875 13.09375 13.453125 
Q 13.09375 11.65625 13.671875 10.375 
Q 14.25 9.09375 15.265625 8.265625 
Q 16.296875 7.453125 17.671875 7.078125 
Q 19.046875 6.703125 20.703125 6.703125 
Q 24.90625 6.703125 27.921875 8.265625 
Q 30.953125 9.84375 33.796875 12.84375 
z
M 5.296875 43.90625 
Q 13.953125 51.953125 25.90625 51.953125 
Q 30.296875 51.953125 33.71875 50.515625 
Q 37.15625 49.09375 39.46875 46.5 
Q 41.796875 43.90625 43.015625 40.328125 
Q 44.25 36.75 44.25 32.40625 
L 44.25 0 
L 39.453125 0 
Q 37.90625 0 37.09375 0.46875 
Q 36.296875 0.953125 35.75 2.40625 
L 34.703125 6.546875 
Q 32.75 4.796875 30.84375 3.421875 
Q 28.953125 2.046875 26.921875 1.09375 
Q 24.90625 0.15625 22.578125 -0.3125 
Q 20.25 -0.796875 17.453125 -0.796875 
Q 14.34375 -0.796875 11.671875 0.046875 
Q 9 0.90625 7.046875 2.625 
Q 5.09375 4.34375 3.96875 6.890625 
Q 2.84375 9.453125 2.84375 12.90625 
Q 2.84375 15.84375 4.421875 18.640625 
Q 6 21.453125 9.625 23.671875 
Q 13.25 25.90625 19.171875 27.34375 
Q 25.09375 28.796875 33.796875 29 
L 33.796875 32.40625 
Q 33.796875 37.90625 31.4375 40.59375 
Q 29.09375 43.296875 24.546875 43.296875 
Q 21.453125 43.296875 19.34375 42.515625 
Q 17.25 41.75 15.703125 40.84375 
Q 14.15625 39.953125 12.953125 39.171875 
Q 11.75 38.40625 10.40625 38.40625 
Q 9.296875 38.40625 8.515625 38.96875 
Q 7.75 39.546875 7.25 40.40625 
z
" id="Lato-Semibold-97"/>
      <path d="M 16.59375 44.25 
Q 18.25 45.953125 20.015625 47.328125 
Q 21.796875 48.703125 23.796875 49.703125 
Q 25.796875 50.703125 28.046875 51.25 
Q 30.296875 51.796875 32.953125 51.796875 
Q 37.15625 51.796875 40.328125 50.390625 
Q 43.5 49 45.671875 46.453125 
Q 47.84375 43.90625 48.9375 40.328125 
Q 50.046875 36.75 50.046875 32.453125 
L 50.046875 0 
L 39.34375 0 
L 39.34375 32.453125 
Q 39.34375 37.59375 36.96875 40.4375 
Q 34.59375 43.296875 29.75 43.296875 
Q 26.15625 43.296875 23.078125 41.640625 
Q 20 40 17.296875 37.15625 
L 17.296875 0 
L 6.546875 0 
L 6.546875 51 
L 13.046875 51 
Q 15.25 51 15.84375 48.953125 
z
" id="Lato-Semibold-110"/>
      <path d="M 17.75 51 
L 17.75 0 
L 7 0 
L 7 51 
z
M 19.546875 66.40625 
Q 19.546875 64.953125 18.96875 63.640625 
Q 18.40625 62.34375 17.40625 61.375 
Q 16.40625 60.40625 15.078125 59.828125 
Q 13.75 59.25 12.25 59.25 
Q 10.796875 59.25 9.515625 59.828125 
Q 8.25 60.40625 7.296875 61.375 
Q 6.34375 62.34375 5.765625 63.640625 
Q 5.203125 64.953125 5.203125 66.40625 
Q 5.203125 67.90625 5.765625 69.203125 
Q 6.34375 70.5 7.296875 71.46875 
Q 8.25 72.453125 9.515625 73.015625 
Q 10.796875 73.59375 12.25 73.59375 
Q 13.75 73.59375 15.078125 73.015625 
Q 16.40625 72.453125 17.40625 71.46875 
Q 18.40625 70.5 18.96875 69.203125 
Q 19.546875 67.90625 19.546875 66.40625 
z
" id="Lato-Semibold-105"/>
      <path d="M 6.546875 0 
L 6.546875 51 
L 13.046875 51 
Q 15.25 51 15.84375 48.953125 
L 16.546875 44.5 
Q 17.953125 46.09375 19.453125 47.421875 
Q 20.953125 48.75 22.671875 49.71875 
Q 24.40625 50.703125 26.375 51.25 
Q 28.34375 51.796875 30.65625 51.796875 
Q 33.09375 51.796875 35.140625 51.09375 
Q 37.203125 50.40625 38.765625 49.09375 
Q 40.34375 47.796875 41.5 45.9375 
Q 42.65625 44.09375 43.40625 41.796875 
Q 44.546875 44.453125 46.296875 46.34375 
Q 48.046875 48.25 50.1875 49.453125 
Q 52.34375 50.65625 54.765625 51.21875 
Q 57.203125 51.796875 59.703125 51.796875 
Q 63.796875 51.796875 67.015625 50.5 
Q 70.25 49.203125 72.46875 46.71875 
Q 74.703125 44.25 75.84375 40.640625 
Q 77 37.046875 77 32.453125 
L 77 0 
L 66.25 0 
L 66.25 32.453125 
Q 66.25 37.84375 63.921875 40.5625 
Q 61.59375 43.296875 57.046875 43.296875 
Q 55 43.296875 53.203125 42.59375 
Q 51.40625 41.90625 50.046875 40.546875 
Q 48.703125 39.203125 47.921875 37.171875 
Q 47.15625 35.15625 47.15625 32.453125 
L 47.15625 0 
L 36.40625 0 
L 36.40625 32.453125 
Q 36.40625 38.046875 34.15625 40.671875 
Q 31.90625 43.296875 27.546875 43.296875 
Q 24.546875 43.296875 22 41.765625 
Q 19.453125 40.25 17.296875 37.59375 
L 17.296875 0 
z
" id="Lato-Semibold-109"/>
      <path d="M 28.59375 51.796875 
Q 34.25 51.796875 38.828125 49.9375 
Q 43.40625 48.09375 46.625 44.6875 
Q 49.84375 41.296875 51.59375 36.4375 
Q 53.34375 31.59375 53.34375 25.546875 
Q 53.34375 19.5 51.59375 14.640625 
Q 49.84375 9.796875 46.625 6.375 
Q 43.40625 2.953125 38.828125 1.09375 
Q 34.25 -0.75 28.59375 -0.75 
Q 22.90625 -0.75 18.328125 1.09375 
Q 13.75 2.953125 10.5 6.375 
Q 7.25 9.796875 5.5 14.640625 
Q 3.75 19.5 3.75 25.546875 
Q 3.75 31.59375 5.5 36.4375 
Q 7.25 41.296875 10.5 44.6875 
Q 13.75 48.09375 18.328125 49.9375 
Q 22.90625 51.796875 28.59375 51.796875 
z
M 28.59375 7.65625 
Q 35.5 7.65625 38.875 12.28125 
Q 42.25 16.90625 42.25 25.5 
Q 42.25 34.09375 38.875 38.765625 
Q 35.5 43.453125 28.59375 43.453125 
Q 21.59375 43.453125 18.1875 38.765625 
Q 14.796875 34.09375 14.796875 25.5 
Q 14.796875 16.90625 18.1875 12.28125 
Q 21.59375 7.65625 28.59375 7.65625 
z
" id="Lato-Semibold-111"/>
      <path id="Lato-Semibold-32"/>
      <path d="M 51.453125 51 
L 30.953125 0 
L 21.25 0 
L 0.75 51 
L 9.59375 51 
Q 10.84375 51 11.671875 50.375 
Q 12.5 49.75 12.75 48.90625 
L 24.046875 19.203125 
Q 24.75 17.09375 25.296875 15.046875 
Q 25.84375 13 26.25 10.90625 
Q 26.65625 13 27.21875 15.015625 
Q 27.796875 17.046875 28.5 19.203125 
L 40 48.90625 
Q 40.296875 49.796875 41.09375 50.390625 
Q 41.90625 51 43.046875 51 
z
" id="Lato-Semibold-118"/>
      <path d="M 17.5 74 
L 17.5 0 
L 6.75 0 
L 6.75 74 
z
" id="Lato-Semibold-108"/>
      <path d="M 49.546875 51 
L 49.546875 0 
L 43.046875 0 
Q 40.90625 0 40.296875 2.046875 
L 39.5 6.796875 
Q 37.90625 5.09375 36.125 3.6875 
Q 34.34375 2.296875 32.34375 1.296875 
Q 30.34375 0.296875 28.0625 -0.25 
Q 25.796875 -0.796875 23.203125 -0.796875 
Q 19 -0.796875 15.796875 0.59375 
Q 12.59375 2 10.421875 4.546875 
Q 8.25 7.09375 7.140625 10.671875 
Q 6.046875 14.25 6.046875 18.546875 
L 6.046875 51 
L 16.796875 51 
L 16.796875 18.546875 
Q 16.796875 13.40625 19.171875 10.546875 
Q 21.546875 7.703125 26.40625 7.703125 
Q 29.953125 7.703125 33.015625 9.328125 
Q 36.09375 10.953125 38.796875 13.796875 
L 38.796875 51 
z
" id="Lato-Semibold-117"/>
      <path d="M 40 31.25 
Q 40 33.953125 39.21875 36.265625 
Q 38.453125 38.59375 36.953125 40.3125 
Q 35.453125 42.046875 33.21875 43.015625 
Q 31 44 28.09375 44 
Q 22.25 44 18.890625 40.640625 
Q 15.546875 37.296875 14.65625 31.25 
z
M 14.34375 24.65625 
Q 14.546875 20.296875 15.6875 17.125 
Q 16.84375 13.953125 18.765625 11.84375 
Q 20.703125 9.75 23.375 8.71875 
Q 26.046875 7.703125 29.34375 7.703125 
Q 32.5 7.703125 34.796875 8.421875 
Q 37.09375 9.15625 38.796875 10.03125 
Q 40.5 10.90625 41.703125 11.625 
Q 42.90625 12.34375 43.90625 12.34375 
Q 45.203125 12.34375 45.90625 11.34375 
L 48.953125 7.40625 
Q 47.046875 5.15625 44.640625 3.59375 
Q 42.25 2.046875 39.546875 1.0625 
Q 36.84375 0.09375 34 -0.328125 
Q 31.15625 -0.75 28.453125 -0.75 
Q 23.15625 -0.75 18.625 1.015625 
Q 14.09375 2.796875 10.765625 6.25 
Q 7.453125 9.703125 5.578125 14.796875 
Q 3.703125 19.90625 3.703125 26.546875 
Q 3.703125 31.84375 5.375 36.4375 
Q 7.046875 41.046875 10.171875 44.4375 
Q 13.296875 47.84375 17.765625 49.8125 
Q 22.25 51.796875 27.90625 51.796875 
Q 32.59375 51.796875 36.59375 50.265625 
Q 40.59375 48.75 43.5 45.796875 
Q 46.40625 42.84375 48.03125 38.5625 
Q 49.65625 34.296875 49.65625 28.84375 
Q 49.65625 26.34375 49.09375 25.5 
Q 48.546875 24.65625 47.09375 24.65625 
z
" id="Lato-Semibold-101"/>
     </defs>
     <g transform="translate(22.090016 115.08767)rotate(-90)scale(0.12 -0.12)">
      <use xlink:href="#Lato-Semibold-97"/>
      <use x="50.25" xlink:href="#Lato-Semibold-110"/>
      <use x="106.350006" xlink:href="#Lato-Semibold-105"/>
      <use x="131.100006" xlink:href="#Lato-Semibold-109"/>
      <use x="214.150024" xlink:href="#Lato-Semibold-97"/>
      <use x="264.400024" xlink:href="#Lato-Semibold-116"/>
      <use x="300.950027" xlink:href="#Lato-Semibold-105"/>
      <use x="325.700027" xlink:href="#Lato-Semibold-111"/>
      <use x="382.800034" xlink:href="#Lato-Semibold-110"/>
      <use x="438.90004" xlink:href="#Lato-Semibold-32"/>
      <use x="463.800034" xlink:href="#Lato-Semibold-118"/>
      <use x="516.050034" xlink:href="#Lato-Semibold-97"/>
      <use x="566.300034" xlink:href="#Lato-Semibold-108"/>
      <use x="590.550034" xlink:href="#Lato-Semibold-117"/>
      <use x="646.65004" xlink:href="#Lato-Semibold-101"/>
     </g>
    </g>
   </g>
   <g id="line2d_11">
    <path clip-path="url(#p37abfdf2db)" d="M 60.075043 127.781405 
L 84.351791 127.781405 
L 108.628538 18.427686 
L 132.905285 127.781405 
L 157.182033 18.427686 
L 181.45878 127.781405 
L 230.012275 127.781405 
L 230.012275 127.781405 
" style="fill:none;stroke:#ed2f55;stroke-linecap:square;stroke-width:0.75;"/>
   </g>
   <g id="line2d_12">
    <path clip-path="url(#p37abfdf2db)" d="M 60.075043 127.781405 
L 84.351791 127.781405 
L 116.397097 19.521223 
L 116.882632 18.974455 
L 148.927939 127.234636 
L 149.413474 126.687868 
L 181.45878 18.427686 
L 230.012275 18.427686 
L 230.012275 18.427686 
" style="fill:none;stroke:#4592e6;stroke-linecap:square;stroke-width:0.75;"/>
   </g>
   <g id="line2d_13">
    <path clip-path="url(#p37abfdf2db)" d="M 84.351791 133.249091 
L 84.351791 12.96 
" style="fill:none;stroke:#808080;stroke-dasharray:2.775,1.2;stroke-dashoffset:0;stroke-width:0.75;"/>
   </g>
   <g id="line2d_14">
    <path clip-path="url(#p37abfdf2db)" d="M 181.45878 133.249091 
L 181.45878 12.96 
" style="fill:none;stroke:#808080;stroke-dasharray:2.775,1.2;stroke-dashoffset:0;stroke-width:0.75;"/>
   </g>
   <g id="patch_3">
    <path d="M 51.578182 133.249091 
L 51.578182 12.96 
" style="fill:none;stroke:#000000;stroke-linecap:square;stroke-linejoin:miter;stroke-width:0.75;"/>
   </g>
   <g id="patch_4">
    <path d="M 51.578182 133.249091 
L 238.509136 133.249091 
" style="fill:none;stroke:#000000;stroke-linecap:square;stroke-linejoin:miter;stroke-width:0.75;"/>
   </g>
   <g id="legend_1">
    <g id="line2d_15">
     <path d="M 207.039698 60.353398 
L 222.033698 60.353398 
" style="fill:none;stroke:#ed2f55;stroke-linecap:square;stroke-width:0.75;"/>
    </g>
    <g id="line2d_16"/>
    <g id="text_13">
     <!-- even -->
     <defs>
      <path d="M 40.953125 30.84375 
Q 40.953125 33.953125 40.078125 36.515625 
Q 39.203125 39.09375 37.515625 40.96875 
Q 35.84375 42.84375 33.4375 43.875 
Q 31.046875 44.90625 28 44.90625 
Q 21.59375 44.90625 17.875 41.171875 
Q 14.15625 37.453125 13.25 30.84375 
z
M 48.15625 7.09375 
Q 46.5 5.09375 44.203125 3.625 
Q 41.90625 2.15625 39.28125 1.203125 
Q 36.65625 0.25 33.84375 -0.21875 
Q 31.046875 -0.703125 28.296875 -0.703125 
Q 23.046875 -0.703125 18.625 1.0625 
Q 14.203125 2.84375 10.96875 6.265625 
Q 7.75 9.703125 5.953125 14.75 
Q 4.15625 19.796875 4.15625 26.34375 
Q 4.15625 31.65625 5.78125 36.25 
Q 7.40625 40.84375 10.453125 44.21875 
Q 13.5 47.59375 17.890625 49.515625 
Q 22.296875 51.453125 27.796875 51.453125 
Q 32.34375 51.453125 36.21875 49.921875 
Q 40.09375 48.40625 42.921875 45.53125 
Q 45.75 42.65625 47.34375 38.421875 
Q 48.953125 34.203125 48.953125 28.796875 
Q 48.953125 26.703125 48.5 26 
Q 48.046875 25.296875 46.796875 25.296875 
L 12.953125 25.296875 
Q 13.09375 20.5 14.265625 16.953125 
Q 15.453125 13.40625 17.546875 11.03125 
Q 19.65625 8.65625 22.546875 7.46875 
Q 25.453125 6.296875 29.046875 6.296875 
Q 32.40625 6.296875 34.828125 7.0625 
Q 37.25 7.84375 39 8.75 
Q 40.75 9.65625 41.921875 10.421875 
Q 43.09375 11.203125 43.953125 11.203125 
Q 45.046875 11.203125 45.65625 10.34375 
z
" id="Lato-Regular-101"/>
      <path d="M 50.453125 50.65625 
L 29.796875 0 
L 21.796875 0 
L 1.15625 50.65625 
L 8.40625 50.65625 
Q 9.5 50.65625 10.203125 50.09375 
Q 10.90625 49.546875 11.15625 48.796875 
L 24 16.203125 
Q 24.59375 14.34375 25.046875 12.59375 
Q 25.5 10.84375 25.90625 9.09375 
Q 26.296875 10.84375 26.75 12.59375 
Q 27.203125 14.34375 27.84375 16.203125 
L 40.84375 48.796875 
Q 41.15625 49.59375 41.84375 50.125 
Q 42.546875 50.65625 43.5 50.65625 
z
" id="Lato-Regular-118"/>
      <path d="M 15.453125 43.296875 
Q 17.09375 45.15625 18.9375 46.65625 
Q 20.796875 48.15625 22.875 49.21875 
Q 24.953125 50.296875 27.265625 50.875 
Q 29.59375 51.453125 32.296875 51.453125 
Q 36.453125 51.453125 39.625 50.078125 
Q 42.796875 48.703125 44.921875 46.171875 
Q 47.046875 43.65625 48.140625 40.09375 
Q 49.25 36.546875 49.25 32.25 
L 49.25 0 
L 40.296875 0 
L 40.296875 32.25 
Q 40.296875 38 37.671875 41.171875 
Q 35.046875 44.34375 29.703125 44.34375 
Q 25.75 44.34375 22.328125 42.4375 
Q 18.90625 40.546875 16 37.296875 
L 16 0 
L 7.046875 0 
L 7.046875 50.65625 
L 12.40625 50.65625 
Q 14.296875 50.65625 14.75 48.796875 
z
" id="Lato-Regular-110"/>
     </defs>
     <g transform="translate(224.532698 63.851998)scale(0.09996 -0.09996)">
      <use xlink:href="#Lato-Regular-101"/>
      <use x="52.800003" xlink:href="#Lato-Regular-118"/>
      <use x="104.400009" xlink:href="#Lato-Regular-101"/>
      <use x="157.200012" xlink:href="#Lato-Regular-110"/>
     </g>
    </g>
    <g id="line2d_17">
     <path d="M 207.039698 72.429815 
L 222.033698 72.429815 
" style="fill:none;stroke:#4592e6;stroke-linecap:square;stroke-width:0.75;"/>
    </g>
    <g id="line2d_18"/>
    <g id="text_14">
     <!-- odd -->
     <defs>
      <path d="M 28.40625 51.453125 
Q 33.953125 51.453125 38.390625 49.59375 
Q 42.84375 47.75 46 44.34375 
Q 49.15625 40.953125 50.828125 36.125 
Q 52.5 31.296875 52.5 25.34375 
Q 52.5 19.34375 50.828125 14.546875 
Q 49.15625 9.75 46 6.34375 
Q 42.84375 2.953125 38.390625 1.125 
Q 33.953125 -0.703125 28.40625 -0.703125 
Q 22.796875 -0.703125 18.3125 1.125 
Q 13.84375 2.953125 10.6875 6.34375 
Q 7.546875 9.75 5.875 14.546875 
Q 4.203125 19.34375 4.203125 25.34375 
Q 4.203125 31.296875 5.875 36.125 
Q 7.546875 40.953125 10.6875 44.34375 
Q 13.84375 47.75 18.3125 49.59375 
Q 22.796875 51.453125 28.40625 51.453125 
z
M 28.40625 6.25 
Q 35.90625 6.25 39.59375 11.265625 
Q 43.296875 16.296875 43.296875 25.296875 
Q 43.296875 34.34375 39.59375 39.390625 
Q 35.90625 44.453125 28.40625 44.453125 
Q 24.59375 44.453125 21.765625 43.140625 
Q 18.953125 41.84375 17.078125 39.390625 
Q 15.203125 36.953125 14.265625 33.375 
Q 13.34375 29.796875 13.34375 25.296875 
Q 13.34375 16.296875 17.0625 11.265625 
Q 20.796875 6.25 28.40625 6.25 
z
" id="Lato-Regular-111"/>
      <path d="M 40.046875 38.59375 
Q 37.546875 41.953125 34.640625 43.265625 
Q 31.75 44.59375 28.15625 44.59375 
Q 21.09375 44.59375 17.296875 39.546875 
Q 13.5 34.5 13.5 25.15625 
Q 13.5 20.203125 14.34375 16.671875 
Q 15.203125 13.15625 16.84375 10.875 
Q 18.5 8.59375 20.890625 7.546875 
Q 23.296875 6.5 26.34375 6.5 
Q 30.75 6.5 34.015625 8.5 
Q 37.296875 10.5 40.046875 14.15625 
z
M 48.953125 73.65625 
L 48.953125 0 
L 43.65625 0 
Q 41.75 0 41.25 1.84375 
L 40.453125 8 
Q 37.203125 4.09375 33.046875 1.6875 
Q 28.90625 -0.703125 23.453125 -0.703125 
Q 19.09375 -0.703125 15.546875 0.96875 
Q 12 2.65625 9.5 5.90625 
Q 7 9.15625 5.640625 14 
Q 4.296875 18.84375 4.296875 25.15625 
Q 4.296875 30.75 5.796875 35.578125 
Q 7.296875 40.40625 10.09375 43.953125 
Q 12.90625 47.5 16.96875 49.515625 
Q 21.046875 51.546875 26.15625 51.546875 
Q 30.796875 51.546875 34.125 49.96875 
Q 37.453125 48.40625 40.046875 45.59375 
L 40.046875 73.65625 
z
" id="Lato-Regular-100"/>
     </defs>
     <g transform="translate(224.532698 75.928415)scale(0.09996 -0.09996)">
      <use xlink:href="#Lato-Regular-111"/>
      <use x="56.700012" xlink:href="#Lato-Regular-100"/>
      <use x="112.700012" xlink:href="#Lato-Regular-100"/>
     </g>
    </g>
    <g id="line2d_19">
     <path d="M 207.039698 84.506233 
L 222.033698 84.506233 
" style="fill:none;stroke:#808080;stroke-dasharray:2.775,1.2;stroke-dashoffset:0;stroke-width:0.75;"/>
    </g>
    <g id="line2d_20"/>
    <g id="text_15">
     <!-- keyframes -->
     <defs>
      <path d="M 16 73.65625 
L 16 30.296875 
L 18.296875 30.296875 
Q 19.296875 30.296875 19.96875 30.5625 
Q 20.65625 30.84375 21.40625 31.703125 
L 37.40625 48.84375 
Q 38.09375 49.703125 38.875 50.171875 
Q 39.65625 50.65625 40.953125 50.65625 
L 49 50.65625 
L 30.34375 30.796875 
Q 29 29.09375 27.453125 28.15625 
Q 28.34375 27.546875 29.0625 26.765625 
Q 29.796875 26 30.453125 25 
L 50.25 0 
L 42.296875 0 
Q 41.15625 0 40.328125 0.375 
Q 39.5 0.75 38.90625 1.75 
L 22.25 22.5 
Q 21.5 23.546875 20.765625 23.875 
Q 20.046875 24.203125 18.546875 24.203125 
L 16 24.203125 
L 16 0 
L 7.046875 0 
L 7.046875 73.65625 
z
" id="Lato-Regular-107"/>
      <path d="M 50.75 50.65625 
L 22.5 -14.953125 
Q 22.046875 -15.953125 21.375 -16.546875 
Q 20.703125 -17.15625 19.296875 -17.15625 
L 12.703125 -17.15625 
L 21.953125 2.953125 
L 1.046875 50.65625 
L 8.75 50.65625 
Q 9.90625 50.65625 10.578125 50.078125 
Q 11.25 49.5 11.5 48.796875 
L 25.046875 16.90625 
Q 25.84375 14.796875 26.40625 12.5 
Q 27.09375 14.84375 27.90625 16.953125 
L 41.046875 48.796875 
Q 41.34375 49.59375 42.0625 50.125 
Q 42.796875 50.65625 43.703125 50.65625 
z
" id="Lato-Regular-121"/>
      <path d="M 10.34375 0 
L 10.34375 43.046875 
L 4.75 43.703125 
Q 3.703125 43.953125 3.015625 44.46875 
Q 2.34375 45 2.34375 46 
L 2.34375 49.65625 
L 10.34375 49.65625 
L 10.34375 54.546875 
Q 10.34375 58.90625 11.5625 62.28125 
Q 12.796875 65.65625 15.0625 67.96875 
Q 17.34375 70.296875 20.546875 71.5 
Q 23.75 72.703125 27.75 72.703125 
Q 31.15625 72.703125 34 71.703125 
L 33.796875 67.25 
Q 33.703125 66.046875 32.46875 65.9375 
Q 31.25 65.84375 29.203125 65.84375 
Q 26.90625 65.84375 25.03125 65.25 
Q 23.15625 64.65625 21.796875 63.296875 
Q 20.453125 61.953125 19.71875 59.75 
Q 19 57.546875 19 54.296875 
L 19 49.65625 
L 33.59375 49.65625 
L 33.59375 43.203125 
L 19.296875 43.203125 
L 19.296875 0 
z
" id="Lato-Regular-102"/>
      <path d="M 15.5 40.5 
Q 17.90625 45.703125 21.40625 48.625 
Q 24.90625 51.546875 29.953125 51.546875 
Q 31.546875 51.546875 33.015625 51.1875 
Q 34.5 50.84375 35.65625 50.09375 
L 35 43.453125 
Q 34.703125 42.203125 33.5 42.203125 
Q 32.796875 42.203125 31.4375 42.5 
Q 30.09375 42.796875 28.40625 42.796875 
Q 26 42.796875 24.125 42.09375 
Q 22.25 41.40625 20.765625 40.03125 
Q 19.296875 38.65625 18.125 36.625 
Q 16.953125 34.59375 16 32 
L 16 0 
L 7.046875 0 
L 7.046875 50.65625 
L 12.15625 50.65625 
Q 13.59375 50.65625 14.140625 50.09375 
Q 14.703125 49.546875 14.90625 48.203125 
z
" id="Lato-Regular-114"/>
      <path d="M 34.5 22.796875 
Q 28.34375 22.59375 24.015625 21.8125 
Q 19.703125 21.046875 16.96875 19.796875 
Q 14.25 18.546875 13.015625 16.84375 
Q 11.796875 15.15625 11.796875 13.046875 
Q 11.796875 11.046875 12.4375 9.59375 
Q 13.09375 8.15625 14.21875 7.21875 
Q 15.34375 6.296875 16.875 5.875 
Q 18.40625 5.453125 20.15625 5.453125 
Q 22.5 5.453125 24.453125 5.921875 
Q 26.40625 6.40625 28.125 7.296875 
Q 29.84375 8.203125 31.421875 9.453125 
Q 33 10.703125 34.5 12.296875 
z
M 5.75 43.5 
Q 9.953125 47.546875 14.796875 49.546875 
Q 19.65625 51.546875 25.546875 51.546875 
Q 29.796875 51.546875 33.09375 50.140625 
Q 36.40625 48.75 38.65625 46.25 
Q 40.90625 43.75 42.046875 40.203125 
Q 43.203125 36.65625 43.203125 32.40625 
L 43.203125 0 
L 39.25 0 
Q 37.953125 0 37.25 0.421875 
Q 36.546875 0.84375 36.15625 2.09375 
L 35.15625 6.90625 
Q 33.15625 5.046875 31.25 3.625 
Q 29.34375 2.203125 27.25 1.21875 
Q 25.15625 0.25 22.78125 -0.265625 
Q 20.40625 -0.796875 17.5 -0.796875 
Q 14.546875 -0.796875 11.9375 0.015625 
Q 9.34375 0.84375 7.421875 2.5 
Q 5.5 4.15625 4.375 6.671875 
Q 3.25 9.203125 3.25 12.65625 
Q 3.25 15.65625 4.890625 18.421875 
Q 6.546875 21.203125 10.25 23.34375 
Q 13.953125 25.5 19.890625 26.875 
Q 25.84375 28.25 34.5 28.453125 
L 34.5 32.40625 
Q 34.5 38.296875 31.953125 41.3125 
Q 29.40625 44.34375 24.5 44.34375 
Q 21.203125 44.34375 18.96875 43.515625 
Q 16.75 42.703125 15.125 41.671875 
Q 13.5 40.65625 12.328125 39.828125 
Q 11.15625 39 10 39 
Q 9.09375 39 8.4375 39.46875 
Q 7.796875 39.953125 7.34375 40.65625 
z
" id="Lato-Regular-97"/>
      <path d="M 7.046875 0 
L 7.046875 50.65625 
L 12.40625 50.65625 
Q 14.296875 50.65625 14.75 48.796875 
L 15.40625 43.59375 
Q 18.203125 47.046875 21.703125 49.25 
Q 25.203125 51.453125 29.796875 51.453125 
Q 34.90625 51.453125 38.078125 48.59375 
Q 41.25 45.75 42.65625 40.90625 
Q 43.75 43.65625 45.46875 45.65625 
Q 47.203125 47.65625 49.34375 48.953125 
Q 51.5 50.25 53.921875 50.84375 
Q 56.34375 51.453125 58.84375 51.453125 
Q 62.84375 51.453125 65.96875 50.171875 
Q 69.09375 48.90625 71.265625 46.453125 
Q 73.453125 44 74.59375 40.421875 
Q 75.75 36.84375 75.75 32.25 
L 75.75 0 
L 66.796875 0 
L 66.796875 32.25 
Q 66.796875 38.203125 64.1875 41.265625 
Q 61.59375 44.34375 56.703125 44.34375 
Q 54.5 44.34375 52.515625 43.5625 
Q 50.546875 42.796875 49.046875 41.296875 
Q 47.546875 39.796875 46.671875 37.515625 
Q 45.796875 35.25 45.796875 32.25 
L 45.796875 0 
L 36.84375 0 
L 36.84375 32.25 
Q 36.84375 38.34375 34.390625 41.34375 
Q 31.953125 44.34375 27.25 44.34375 
Q 23.953125 44.34375 21.140625 42.5625 
Q 18.34375 40.796875 16 37.75 
L 16 0 
z
" id="Lato-Regular-109"/>
      <path d="M 36.546875 42.296875 
Q 35.953125 41.203125 34.703125 41.203125 
Q 33.953125 41.203125 33 41.75 
Q 32.046875 42.296875 30.671875 42.96875 
Q 29.296875 43.65625 27.390625 44.21875 
Q 25.5 44.796875 22.90625 44.796875 
Q 20.65625 44.796875 18.84375 44.21875 
Q 17.046875 43.65625 15.765625 42.65625 
Q 14.5 41.65625 13.828125 40.328125 
Q 13.15625 39 13.15625 37.453125 
Q 13.15625 35.5 14.28125 34.203125 
Q 15.40625 32.90625 17.25 31.953125 
Q 19.09375 31 21.4375 30.265625 
Q 23.796875 29.546875 26.265625 28.71875 
Q 28.75 27.90625 31.09375 26.90625 
Q 33.453125 25.90625 35.296875 24.40625 
Q 37.15625 22.90625 38.28125 20.71875 
Q 39.40625 18.546875 39.40625 15.5 
Q 39.40625 12 38.15625 9.015625 
Q 36.90625 6.046875 34.453125 3.875 
Q 32 1.703125 28.453125 0.453125 
Q 24.90625 -0.796875 20.25 -0.796875 
Q 14.953125 -0.796875 10.640625 0.921875 
Q 6.34375 2.65625 3.34375 5.34375 
L 5.453125 8.75 
Q 5.84375 9.40625 6.390625 9.75 
Q 6.953125 10.09375 7.796875 10.09375 
Q 8.703125 10.09375 9.703125 9.390625 
Q 10.703125 8.703125 12.125 7.84375 
Q 13.546875 7 15.59375 6.296875 
Q 17.65625 5.59375 20.703125 5.59375 
Q 23.296875 5.59375 25.25 6.265625 
Q 27.203125 6.953125 28.5 8.09375 
Q 29.796875 9.25 30.421875 10.75 
Q 31.046875 12.25 31.046875 13.953125 
Q 31.046875 16.046875 29.921875 17.421875 
Q 28.796875 18.796875 26.9375 19.765625 
Q 25.09375 20.75 22.71875 21.46875 
Q 20.34375 22.203125 17.875 23 
Q 15.40625 23.796875 13.03125 24.8125 
Q 10.65625 25.84375 8.796875 27.390625 
Q 6.953125 28.953125 5.828125 31.21875 
Q 4.703125 33.5 4.703125 36.75 
Q 4.703125 39.65625 5.890625 42.328125 
Q 7.09375 45 9.390625 47.015625 
Q 11.703125 49.046875 15.046875 50.25 
Q 18.40625 51.453125 22.703125 51.453125 
Q 27.703125 51.453125 31.671875 49.875 
Q 35.65625 48.296875 38.546875 45.546875 
z
" id="Lato-Regular-115"/>
     </defs>
     <g transform="translate(224.532698 88.004833)scale(0.09996 -0.09996)">
      <use xlink:href="#Lato-Regular-107"/>
      <use x="50.800003" xlink:href="#Lato-Regular-101"/>
      <use x="103.600006" xlink:href="#Lato-Regular-121"/>
      <use x="155.150009" xlink:href="#Lato-Regular-102"/>
      <use x="190.200012" xlink:href="#Lato-Regular-114"/>
      <use x="226.600021" xlink:href="#Lato-Regular-97"/>
      <use x="276.300034" xlink:href="#Lato-Regular-109"/>
      <use x="358.550049" xlink:href="#Lato-Regular-101"/>
      <use x="411.350052" xlink:href="#Lato-Regular-115"/>
     </g>
    </g>
   </g>
  </g>
 </g>
 <defs>
  <clipPath id="p37abfdf2db">
   <rect height="120.289091" width="186.930955" x="51.578182" y="12.96"/>
  </clipPath>
 </defs>
</svg>
